<svg width="12" height="8" viewBox="0 0 12 8" fill="none" xmlns="http://www.w3.org/2000/svg">
<path d="M1.40392 0.818031C1.59919 0.622769 1.91577 0.622769 2.11103 0.818031L7.06078 5.76778C7.25604 5.96304 7.25604 6.27962 7.06078 6.47489L6.35367 7.18199C6.15841 7.37725 5.84183 7.37725 5.64656 7.18199L0.696817 2.23224C0.501555 2.03698 0.501555 1.7204 0.696817 1.52514L1.40392 0.818031Z" fill="white"/>
<path d="M4.96162 6.47489C4.76635 6.27963 4.76635 5.96305 4.96162 5.76778L9.91136 0.818036C10.1066 0.622774 10.4232 0.622774 10.6185 0.818036L11.3256 1.52514C11.5208 1.7204 11.5208 2.03699 11.3256 2.23225L6.37583 7.182C6.18057 7.37726 5.86399 7.37726 5.66872 7.182L4.96162 6.47489Z" fill="white"/>
</svg>
