<svg width="16" height="10" viewBox="0 0 16 10" fill="none" xmlns="http://www.w3.org/2000/svg">
<path d="M1.41434 0.471404C1.67469 0.211055 2.0968 0.211055 2.35715 0.471404L8.95681 7.07107C9.21716 7.33142 9.21716 7.75353 8.95681 8.01388L8.014 8.95669C7.75365 9.21703 7.33154 9.21703 7.07119 8.95668L0.471529 2.35702C0.211179 2.09667 0.211179 1.67456 0.471529 1.41421L1.41434 0.471404Z" fill="#15171C"/>
<path d="M6.15793 8.01388C5.89758 7.75354 5.89758 7.33143 6.15793 7.07108L12.7576 0.471412C13.0179 0.211063 13.44 0.211062 13.7004 0.471412L14.6432 1.41422C14.9036 1.67457 14.9036 2.09668 14.6432 2.35703L8.04355 8.95669C7.7832 9.21704 7.36109 9.21704 7.10074 8.95669L6.15793 8.01388Z" fill="#15171C"/>
</svg>
