<svg width="32" height="47" viewBox="0 0 32 47" fill="none" xmlns="http://www.w3.org/2000/svg">
<rect width="32" height="47" fill="#15171C"/>
<path d="M13.0908 29.128C12.8304 28.8677 12.8304 28.4456 13.0908 28.1852L19.6905 21.5855C19.9508 21.3252 20.3729 21.3252 20.6333 21.5855L21.5761 22.5284C21.8364 22.7887 21.8364 23.2108 21.5761 23.4712L14.9764 30.0708C14.7161 30.3312 14.2939 30.3312 14.0336 30.0708L13.0908 29.128Z" fill="white"/>
<path d="M20.6333 24.3844C20.3729 24.6448 19.9508 24.6448 19.6905 24.3844L13.0908 17.7848C12.8304 17.5244 12.8304 17.1023 13.0908 16.842L14.0336 15.8992C14.294 15.6388 14.7161 15.6388 14.9764 15.8992L21.5761 22.4988C21.8364 22.7592 21.8364 23.1813 21.5761 23.4416L20.6333 24.3844Z" fill="white"/>
</svg>
