<svg width="150" height="36" viewBox="0 0 150 36" fill="none" xmlns="http://www.w3.org/2000/svg">
<path d="M45.6109 21.2307C46.0276 21.2307 46.3661 21.1161 46.6265 20.8869C46.8869 20.6577 47.0224 20.353 47.0328 19.9728H49.15C49.1448 20.5458 48.9885 21.0718 48.6812 21.551C48.3739 22.0249 47.952 22.3947 47.4156 22.6603C46.8843 22.9208 46.2958 23.051 45.65 23.051C44.4416 23.051 43.4885 22.6682 42.7906 21.9025C42.0927 21.1317 41.7437 20.0692 41.7437 18.715V18.5666C41.7437 17.2645 42.0901 16.2254 42.7828 15.4494C43.4755 14.6734 44.426 14.2853 45.6343 14.2853C46.6916 14.2853 47.538 14.5874 48.1734 15.1916C48.814 15.7905 49.1395 16.59 49.15 17.59H47.0328C47.0224 17.1525 46.8869 16.7984 46.6265 16.5275C46.3661 16.2515 46.0224 16.1135 45.5953 16.1135C45.0692 16.1135 44.6708 16.3062 44.4 16.6916C44.1343 17.0718 44.0015 17.6916 44.0015 18.551V18.7853C44.0015 19.6551 44.1343 20.2801 44.4 20.6603C44.6656 21.0405 45.0692 21.2307 45.6109 21.2307ZM50.0875 18.59C50.0875 17.7515 50.2489 17.0041 50.5718 16.3478C50.8948 15.6916 51.3583 15.1838 51.9625 14.8244C52.5718 14.465 53.2776 14.2853 54.0797 14.2853C55.2203 14.2853 56.15 14.6343 56.8687 15.3322C57.5927 16.0301 57.9963 16.978 58.0797 18.176L58.0953 18.7541C58.0953 20.051 57.7333 21.0926 57.0093 21.8791C56.2854 22.6603 55.314 23.051 54.0953 23.051C52.8765 23.051 51.9026 22.6603 51.1734 21.8791C50.4494 21.0978 50.0875 20.0353 50.0875 18.6916V18.59ZM52.3453 18.7541C52.3453 19.5562 52.4963 20.1708 52.7984 20.5978C53.1005 21.0197 53.5328 21.2307 54.0953 21.2307C54.6422 21.2307 55.0692 21.0223 55.3765 20.6057C55.6838 20.1838 55.8375 19.5119 55.8375 18.59C55.8375 17.8036 55.6838 17.1942 55.3765 16.7619C55.0692 16.3296 54.6369 16.1135 54.0797 16.1135C53.5276 16.1135 53.1005 16.3296 52.7984 16.7619C52.4963 17.189 52.3453 17.853 52.3453 18.7541ZM54.525 10.8947H56.9859L54.8218 13.3166H52.9859L54.525 10.8947ZM59.1343 18.6057C59.1343 17.2879 59.4286 16.2385 60.0172 15.4572C60.6109 14.676 61.4208 14.2853 62.4468 14.2853C63.2698 14.2853 63.9494 14.5926 64.4859 15.2072V10.8947H66.7515V22.8947H64.7125L64.6031 21.9963C64.0406 22.6994 63.3166 23.051 62.4312 23.051C61.4364 23.051 60.6369 22.6603 60.0328 21.8791C59.4338 21.0926 59.1343 20.0015 59.1343 18.6057ZM61.3922 18.7697C61.3922 19.5614 61.5302 20.1682 61.8062 20.59C62.0823 21.0119 62.4833 21.2228 63.0093 21.2228C63.7073 21.2228 64.1994 20.9286 64.4859 20.34V17.0041C64.2047 16.4155 63.7177 16.1213 63.025 16.1213C61.9364 16.1213 61.3922 17.0041 61.3922 18.7697ZM70.8843 22.8947H68.6187V14.4416H70.8843V22.8947ZM68.4859 12.2541C68.4859 11.9155 68.5979 11.6369 68.8218 11.4182C69.051 11.1994 69.3609 11.09 69.7515 11.09C70.1369 11.09 70.4442 11.1994 70.6734 11.4182C70.9026 11.6369 71.0172 11.9155 71.0172 12.2541C71.0172 12.5978 70.9 12.8791 70.6656 13.0978C70.4364 13.3166 70.1317 13.426 69.7515 13.426C69.3713 13.426 69.064 13.3166 68.8297 13.0978C68.6005 12.8791 68.4859 12.5978 68.4859 12.2541ZM72.4234 18.6057C72.4234 17.3088 72.7307 16.2645 73.3453 15.4728C73.9651 14.6812 74.7984 14.2853 75.8453 14.2853C76.7724 14.2853 77.4937 14.603 78.0093 15.2385L78.1031 14.4416H80.15V22.6135C80.15 23.353 79.9807 23.9963 79.6422 24.5432C79.3088 25.09 78.8375 25.5067 78.2281 25.7932C77.6187 26.0796 76.9052 26.2228 76.0875 26.2228C75.4677 26.2228 74.8635 26.0978 74.275 25.8478C73.6864 25.603 73.2411 25.2853 72.939 24.8947L73.939 23.5197C74.5015 24.1499 75.1838 24.465 75.9859 24.465C76.5849 24.465 77.051 24.3036 77.3843 23.9807C77.7177 23.6629 77.8843 23.2098 77.8843 22.6213V22.1682C77.3635 22.7567 76.6786 23.051 75.8297 23.051C74.814 23.051 73.9911 22.6551 73.3609 21.8635C72.7359 21.0666 72.4234 20.0119 72.4234 18.6994V18.6057ZM74.6812 18.7697C74.6812 19.5353 74.8349 20.1369 75.1422 20.5744C75.4494 21.0067 75.8713 21.2228 76.4078 21.2228C77.0953 21.2228 77.5875 20.965 77.8843 20.4494V16.8947C77.5823 16.3791 77.0953 16.1213 76.4234 16.1213C75.8817 16.1213 75.4547 16.3426 75.1422 16.7853C74.8349 17.228 74.6812 17.8895 74.6812 18.7697ZM81.5406 18.59C81.5406 17.7515 81.702 17.0041 82.025 16.3478C82.3479 15.6916 82.8114 15.1838 83.4156 14.8244C84.025 14.465 84.7307 14.2853 85.5328 14.2853C86.6734 14.2853 87.6031 14.6343 88.3218 15.3322C89.0458 16.0301 89.4494 16.978 89.5328 18.176L89.5484 18.7541C89.5484 20.051 89.1864 21.0926 88.4625 21.8791C87.7385 22.6603 86.7672 23.051 85.5484 23.051C84.3297 23.051 83.3557 22.6603 82.6265 21.8791C81.9026 21.0978 81.5406 20.0353 81.5406 18.6916V18.59ZM83.7984 18.7541C83.7984 19.5562 83.9494 20.1708 84.2515 20.5978C84.5536 21.0197 84.9859 21.2307 85.5484 21.2307C86.0953 21.2307 86.5224 21.0223 86.8297 20.6057C87.1369 20.1838 87.2906 19.5119 87.2906 18.59C87.2906 17.8036 87.1369 17.1942 86.8297 16.7619C86.5224 16.3296 86.0901 16.1135 85.5328 16.1135C84.9807 16.1135 84.5536 16.3296 84.2515 16.7619C83.9494 17.189 83.7984 17.853 83.7984 18.7541ZM91.5562 22.8947V16.0978H90.2984V14.4416H91.5562V13.7228C91.5562 12.7749 91.827 12.0405 92.3687 11.5197C92.9156 10.9937 93.6786 10.7307 94.6578 10.7307C94.9703 10.7307 95.3531 10.7827 95.8062 10.8869L95.7828 12.6369C95.5953 12.59 95.3661 12.5666 95.0953 12.5666C94.2463 12.5666 93.8218 12.965 93.8218 13.7619V14.4416H95.5015V16.0978H93.8218V22.8947H91.5562ZM101.572 22.8947C101.468 22.6916 101.392 22.439 101.345 22.1369C100.798 22.7463 100.087 23.051 99.2125 23.051C98.3843 23.051 97.6968 22.8114 97.15 22.3322C96.6083 21.853 96.3375 21.2489 96.3375 20.5197C96.3375 19.6239 96.6682 18.9364 97.3297 18.4572C97.9963 17.978 98.9573 17.7359 100.212 17.7307H101.252V17.2463C101.252 16.8557 101.15 16.5432 100.947 16.3088C100.749 16.0744 100.434 15.9572 100.002 15.9572C99.6213 15.9572 99.3218 16.0484 99.1031 16.2307C98.8895 16.4129 98.7828 16.6629 98.7828 16.9807H96.525C96.525 16.4911 96.676 16.0379 96.9781 15.6213C97.2802 15.2046 97.7073 14.8791 98.2593 14.6447C98.8114 14.4051 99.4312 14.2853 100.119 14.2853C101.16 14.2853 101.986 14.5484 102.595 15.0744C103.21 15.5952 103.517 16.3296 103.517 17.2775V20.9416C103.522 21.7437 103.634 22.3504 103.853 22.7619V22.8947H101.572ZM99.7047 21.3244C100.038 21.3244 100.345 21.2515 100.627 21.1057C100.908 20.9546 101.116 20.7541 101.252 20.5041V19.051H100.408C99.2776 19.051 98.676 19.4416 98.6031 20.2228L98.5953 20.3557C98.5953 20.6369 98.6942 20.8687 98.8922 21.051C99.0901 21.2333 99.3609 21.3244 99.7047 21.3244ZM108.767 21.2307C109.184 21.2307 109.522 21.1161 109.783 20.8869C110.043 20.6577 110.179 20.353 110.189 19.9728H112.306C112.301 20.5458 112.145 21.0718 111.837 21.551C111.53 22.0249 111.108 22.3947 110.572 22.6603C110.041 22.9208 109.452 23.051 108.806 23.051C107.598 23.051 106.645 22.6682 105.947 21.9025C105.249 21.1317 104.9 20.0692 104.9 18.715V18.5666C104.9 17.2645 105.246 16.2254 105.939 15.4494C106.632 14.6734 107.582 14.2853 108.791 14.2853C109.848 14.2853 110.694 14.5874 111.33 15.1916C111.97 15.7905 112.296 16.59 112.306 17.59H110.189C110.179 17.1525 110.043 16.7984 109.783 16.5275C109.522 16.2515 109.179 16.1135 108.752 16.1135C108.225 16.1135 107.827 16.3062 107.556 16.6916C107.291 17.0718 107.158 17.6916 107.158 18.551V18.7853C107.158 19.6551 107.291 20.2801 107.556 20.6603C107.822 21.0405 108.225 21.2307 108.767 21.2307ZM115.978 22.8947H113.712V14.4416H115.978V22.8947ZM113.58 12.2541C113.58 11.9155 113.692 11.6369 113.916 11.4182C114.145 11.1994 114.455 11.09 114.845 11.09C115.231 11.09 115.538 11.1994 115.767 11.4182C115.996 11.6369 116.111 11.9155 116.111 12.2541C116.111 12.5978 115.994 12.8791 115.759 13.0978C115.53 13.3166 115.225 13.426 114.845 13.426C114.465 13.426 114.158 13.3166 113.923 13.0978C113.694 12.8791 113.58 12.5978 113.58 12.2541ZM120.228 22.8947H117.962V10.8947H120.228V22.8947ZM124.478 22.8947H122.212V14.4416H124.478V22.8947ZM122.08 12.2541C122.08 11.9155 122.192 11.6369 122.416 11.4182C122.645 11.1994 122.955 11.09 123.345 11.09C123.731 11.09 124.038 11.1994 124.267 11.4182C124.496 11.6369 124.611 11.9155 124.611 12.2541C124.611 12.5978 124.494 12.8791 124.259 13.0978C124.03 13.3166 123.725 13.426 123.345 13.426C122.965 13.426 122.658 13.3166 122.423 13.0978C122.194 12.8791 122.08 12.5978 122.08 12.2541ZM129.048 12.3635V14.4416H130.494V16.0978H129.048V20.3166C129.048 20.6291 129.108 20.853 129.228 20.9885C129.348 21.1239 129.577 21.1916 129.916 21.1916C130.166 21.1916 130.387 21.1734 130.58 21.1369V22.8478C130.137 22.9833 129.681 23.051 129.212 23.051C127.629 23.051 126.822 22.2515 126.791 20.6525V16.0978H125.556V14.4416H126.791V12.3635H129.048ZM131.166 18.59C131.166 17.7515 131.327 17.0041 131.65 16.3478C131.973 15.6916 132.436 15.1838 133.041 14.8244C133.65 14.465 134.356 14.2853 135.158 14.2853C136.298 14.2853 137.228 14.6343 137.947 15.3322C138.671 16.0301 139.074 16.978 139.158 18.176L139.173 18.7541C139.173 20.051 138.811 21.0926 138.087 21.8791C137.364 22.6603 136.392 23.051 135.173 23.051C133.955 23.051 132.981 22.6603 132.252 21.8791C131.528 21.0978 131.166 20.0353 131.166 18.6916V18.59ZM133.423 18.7541C133.423 19.5562 133.574 20.1708 133.877 20.5978C134.179 21.0197 134.611 21.2307 135.173 21.2307C135.72 21.2307 136.147 21.0223 136.455 20.6057C136.762 20.1838 136.916 19.5119 136.916 18.59C136.916 17.8036 136.762 17.1942 136.455 16.7619C136.147 16.3296 135.715 16.1135 135.158 16.1135C134.606 16.1135 134.179 16.3296 133.877 16.7619C133.574 17.189 133.423 17.853 133.423 18.7541Z" fill="#434B59"/>
<circle cx="17.5439" cy="17.5439" r="17.5439" fill="#434B59"/>
<rect x="8.95856" y="10.0784" width="17.5439" height="3.73274" rx="1.86637" fill="#1C1F25"/>
<rect x="8.95856" y="15.6776" width="9.33184" height="3.73274" rx="1.86637" fill="#1C1F25"/>
<rect x="19.7834" y="15.6776" width="6.71893" height="3.73274" rx="1.86637" fill="#1C1F25"/>
<rect x="15.6775" y="21.2766" width="10.8249" height="3.73274" rx="1.86637" fill="#1C1F25"/>
<rect x="8.95856" y="21.2766" width="5.22583" height="3.73274" rx="1.86637" fill="#1C1F25"/>
</svg>
