<svg width="171" height="40" viewBox="0 0 171 40" fill="none" xmlns="http://www.w3.org/2000/svg">
<path d="M52.4785 24.9199C52.9993 24.9199 53.4225 24.7767 53.748 24.4902C54.0736 24.2038 54.2428 23.8229 54.2559 23.3477H56.9023C56.8958 24.0638 56.7005 24.7214 56.3164 25.3203C55.9323 25.9128 55.4049 26.375 54.7344 26.707C54.0703 27.0326 53.3346 27.1953 52.5273 27.1953C51.0169 27.1953 49.8255 26.7168 48.9531 25.7598C48.0807 24.7962 47.6445 23.4681 47.6445 21.7754V21.5898C47.6445 19.9622 48.0775 18.6634 48.9434 17.6934C49.8092 16.7233 50.9974 16.2383 52.5078 16.2383C53.8294 16.2383 54.8874 16.6159 55.6816 17.3711C56.4824 18.1198 56.8893 19.1191 56.9023 20.3691H54.2559C54.2428 19.8223 54.0736 19.3796 53.748 19.041C53.4225 18.696 52.9928 18.5234 52.459 18.5234C51.8014 18.5234 51.3034 18.7643 50.9648 19.2461C50.6328 19.7214 50.4668 20.4961 50.4668 21.5703V21.8633C50.4668 22.9505 50.6328 23.7318 50.9648 24.207C51.2969 24.6823 51.8014 24.9199 52.4785 24.9199ZM58.0742 21.6191C58.0742 20.571 58.276 19.6367 58.6797 18.8164C59.0833 17.9961 59.6628 17.3613 60.418 16.9121C61.1797 16.4629 62.0618 16.2383 63.0645 16.2383C64.4902 16.2383 65.6523 16.6745 66.5508 17.5469C67.4557 18.4193 67.9603 19.6042 68.0645 21.1016L68.084 21.8242C68.084 23.4453 67.6315 24.7474 66.7266 25.7305C65.8216 26.707 64.6074 27.1953 63.084 27.1953C61.5605 27.1953 60.3431 26.707 59.4316 25.7305C58.5267 24.7539 58.0742 23.4258 58.0742 21.7461V21.6191ZM60.8965 21.8242C60.8965 22.8268 61.0853 23.5951 61.4629 24.1289C61.8405 24.6562 62.3809 24.9199 63.084 24.9199C63.7676 24.9199 64.3014 24.6595 64.6855 24.1387C65.0697 23.6113 65.2617 22.7715 65.2617 21.6191C65.2617 20.6361 65.0697 19.8743 64.6855 19.334C64.3014 18.7936 63.7611 18.5234 63.0645 18.5234C62.3743 18.5234 61.8405 18.7936 61.4629 19.334C61.0853 19.8678 60.8965 20.6979 60.8965 21.8242ZM63.6211 12H66.6973L63.9922 15.0273H61.6973L63.6211 12ZM69.3828 21.6387C69.3828 19.9915 69.7507 18.6797 70.4863 17.7031C71.2285 16.7266 72.2409 16.2383 73.5234 16.2383C74.5521 16.2383 75.4017 16.6224 76.0723 17.3906V12H78.9043V27H76.3555L76.2188 25.877C75.5156 26.7559 74.6107 27.1953 73.5039 27.1953C72.2604 27.1953 71.2611 26.707 70.5059 25.7305C69.7572 24.7474 69.3828 23.3835 69.3828 21.6387ZM72.2051 21.8438C72.2051 22.8333 72.3776 23.5918 72.7227 24.1191C73.0677 24.6465 73.569 24.9102 74.2266 24.9102C75.099 24.9102 75.7142 24.5423 76.0723 23.8066V19.6367C75.7207 18.901 75.112 18.5332 74.2461 18.5332C72.8854 18.5332 72.2051 19.6367 72.2051 21.8438ZM84.0703 27H81.2383V16.4336H84.0703V27ZM81.0723 13.6992C81.0723 13.276 81.2122 12.9277 81.4922 12.6543C81.7786 12.3809 82.166 12.2441 82.6543 12.2441C83.1361 12.2441 83.5202 12.3809 83.8066 12.6543C84.0931 12.9277 84.2363 13.276 84.2363 13.6992C84.2363 14.1289 84.0898 14.4805 83.7969 14.7539C83.5104 15.0273 83.1296 15.1641 82.6543 15.1641C82.179 15.1641 81.7949 15.0273 81.502 14.7539C81.2155 14.4805 81.0723 14.1289 81.0723 13.6992ZM85.9941 21.6387C85.9941 20.0176 86.3783 18.7122 87.1465 17.7227C87.9212 16.7331 88.9629 16.2383 90.2715 16.2383C91.4303 16.2383 92.332 16.6354 92.9766 17.4297L93.0938 16.4336H95.6523V26.6484C95.6523 27.5729 95.4408 28.377 95.0176 29.0605C94.6009 29.7441 94.0117 30.265 93.25 30.623C92.4883 30.9811 91.5964 31.1602 90.5742 31.1602C89.7995 31.1602 89.0443 31.0039 88.3086 30.6914C87.5729 30.3854 87.0163 29.9883 86.6387 29.5L87.8887 27.7812C88.5918 28.569 89.4447 28.9629 90.4473 28.9629C91.196 28.9629 91.7786 28.7611 92.1953 28.3574C92.612 27.9603 92.8203 27.3939 92.8203 26.6582V26.0918C92.1693 26.8275 91.3132 27.1953 90.252 27.1953C88.9824 27.1953 87.9538 26.7005 87.166 25.7109C86.3848 24.7148 85.9941 23.3965 85.9941 21.7559V21.6387ZM88.8164 21.8438C88.8164 22.8008 89.0085 23.5527 89.3926 24.0996C89.7767 24.64 90.304 24.9102 90.9746 24.9102C91.834 24.9102 92.4492 24.5879 92.8203 23.9434V19.5C92.4427 18.8555 91.834 18.5332 90.9941 18.5332C90.3171 18.5332 89.7832 18.8099 89.3926 19.3633C89.0085 19.9167 88.8164 20.7435 88.8164 21.8438ZM97.3906 21.6191C97.3906 20.571 97.5924 19.6367 97.9961 18.8164C98.3997 17.9961 98.9792 17.3613 99.7344 16.9121C100.496 16.4629 101.378 16.2383 102.381 16.2383C103.807 16.2383 104.969 16.6745 105.867 17.5469C106.772 18.4193 107.277 19.6042 107.381 21.1016L107.4 21.8242C107.4 23.4453 106.948 24.7474 106.043 25.7305C105.138 26.707 103.924 27.1953 102.4 27.1953C100.877 27.1953 99.6595 26.707 98.748 25.7305C97.8431 24.7539 97.3906 23.4258 97.3906 21.7461V21.6191ZM100.213 21.8242C100.213 22.8268 100.402 23.5951 100.779 24.1289C101.157 24.6562 101.697 24.9199 102.4 24.9199C103.084 24.9199 103.618 24.6595 104.002 24.1387C104.386 23.6113 104.578 22.7715 104.578 21.6191C104.578 20.6361 104.386 19.8743 104.002 19.334C103.618 18.7936 103.077 18.5234 102.381 18.5234C101.691 18.5234 101.157 18.7936 100.779 19.334C100.402 19.8678 100.213 20.6979 100.213 21.8242ZM109.91 27V18.5039H108.338V16.4336H109.91V15.5352C109.91 14.3503 110.249 13.4323 110.926 12.7812C111.609 12.1237 112.563 11.7949 113.787 11.7949C114.178 11.7949 114.656 11.86 115.223 11.9902L115.193 14.1777C114.959 14.1191 114.673 14.0898 114.334 14.0898C113.273 14.0898 112.742 14.5879 112.742 15.584V16.4336H114.842V18.5039H112.742V27H109.91ZM122.43 27C122.299 26.7461 122.205 26.4303 122.146 26.0527C121.463 26.8145 120.574 27.1953 119.48 27.1953C118.445 27.1953 117.586 26.8958 116.902 26.2969C116.225 25.6979 115.887 24.9427 115.887 24.0312C115.887 22.9115 116.3 22.0521 117.127 21.4531C117.96 20.8542 119.161 20.5514 120.73 20.5449H122.029V19.9395C122.029 19.4512 121.902 19.0605 121.648 18.7676C121.401 18.4746 121.007 18.3281 120.467 18.3281C119.992 18.3281 119.617 18.4421 119.344 18.6699C119.077 18.8978 118.943 19.2103 118.943 19.6074H116.121C116.121 18.9954 116.31 18.429 116.688 17.9082C117.065 17.3874 117.599 16.9805 118.289 16.6875C118.979 16.388 119.754 16.2383 120.613 16.2383C121.915 16.2383 122.947 16.5671 123.709 17.2246C124.477 17.8757 124.861 18.7936 124.861 19.9785V24.5586C124.868 25.5612 125.008 26.3197 125.281 26.834V27H122.43ZM120.096 25.0371C120.512 25.0371 120.896 24.946 121.248 24.7637C121.6 24.5749 121.86 24.3242 122.029 24.0117V22.1953H120.975C119.562 22.1953 118.81 22.6836 118.719 23.6602L118.709 23.8262C118.709 24.1777 118.833 24.4674 119.08 24.6953C119.327 24.9232 119.666 25.0371 120.096 25.0371ZM131.424 24.9199C131.945 24.9199 132.368 24.7767 132.693 24.4902C133.019 24.2038 133.188 23.8229 133.201 23.3477H135.848C135.841 24.0638 135.646 24.7214 135.262 25.3203C134.878 25.9128 134.35 26.375 133.68 26.707C133.016 27.0326 132.28 27.1953 131.473 27.1953C129.962 27.1953 128.771 26.7168 127.898 25.7598C127.026 24.7962 126.59 23.4681 126.59 21.7754V21.5898C126.59 19.9622 127.023 18.6634 127.889 17.6934C128.755 16.7233 129.943 16.2383 131.453 16.2383C132.775 16.2383 133.833 16.6159 134.627 17.3711C135.428 18.1198 135.835 19.1191 135.848 20.3691H133.201C133.188 19.8223 133.019 19.3796 132.693 19.041C132.368 18.696 131.938 18.5234 131.404 18.5234C130.747 18.5234 130.249 18.7643 129.91 19.2461C129.578 19.7214 129.412 20.4961 129.412 21.5703V21.8633C129.412 22.9505 129.578 23.7318 129.91 24.207C130.242 24.6823 130.747 24.9199 131.424 24.9199ZM140.438 27H137.605V16.4336H140.438V27ZM137.439 13.6992C137.439 13.276 137.579 12.9277 137.859 12.6543C138.146 12.3809 138.533 12.2441 139.021 12.2441C139.503 12.2441 139.887 12.3809 140.174 12.6543C140.46 12.9277 140.604 13.276 140.604 13.6992C140.604 14.1289 140.457 14.4805 140.164 14.7539C139.878 15.0273 139.497 15.1641 139.021 15.1641C138.546 15.1641 138.162 15.0273 137.869 14.7539C137.583 14.4805 137.439 14.1289 137.439 13.6992ZM145.75 27H142.918V12H145.75V27ZM151.062 27H148.23V16.4336H151.062V27ZM148.064 13.6992C148.064 13.276 148.204 12.9277 148.484 12.6543C148.771 12.3809 149.158 12.2441 149.646 12.2441C150.128 12.2441 150.512 12.3809 150.799 12.6543C151.085 12.9277 151.229 13.276 151.229 13.6992C151.229 14.1289 151.082 14.4805 150.789 14.7539C150.503 15.0273 150.122 15.1641 149.646 15.1641C149.171 15.1641 148.787 15.0273 148.494 14.7539C148.208 14.4805 148.064 14.1289 148.064 13.6992ZM156.775 13.8359V16.4336H158.582V18.5039H156.775V23.7773C156.775 24.168 156.85 24.4479 157 24.6172C157.15 24.7865 157.436 24.8711 157.859 24.8711C158.172 24.8711 158.449 24.8483 158.689 24.8027V26.9414C158.136 27.1107 157.566 27.1953 156.98 27.1953C155.001 27.1953 153.992 26.196 153.953 24.1973V18.5039H152.41V16.4336H153.953V13.8359H156.775ZM159.422 21.6191C159.422 20.571 159.624 19.6367 160.027 18.8164C160.431 17.9961 161.01 17.3613 161.766 16.9121C162.527 16.4629 163.41 16.2383 164.412 16.2383C165.838 16.2383 167 16.6745 167.898 17.5469C168.803 18.4193 169.308 19.6042 169.412 21.1016L169.432 21.8242C169.432 23.4453 168.979 24.7474 168.074 25.7305C167.169 26.707 165.955 27.1953 164.432 27.1953C162.908 27.1953 161.691 26.707 160.779 25.7305C159.874 24.7539 159.422 23.4258 159.422 21.7461V21.6191ZM162.244 21.8242C162.244 22.8268 162.433 23.5951 162.811 24.1289C163.188 24.6562 163.729 24.9199 164.432 24.9199C165.115 24.9199 165.649 24.6595 166.033 24.1387C166.417 23.6113 166.609 22.7715 166.609 21.6191C166.609 20.6361 166.417 19.8743 166.033 19.334C165.649 18.7936 165.109 18.5234 164.412 18.5234C163.722 18.5234 163.188 18.7936 162.811 19.334C162.433 19.8678 162.244 20.6979 162.244 21.8242Z" fill="white"/>
<circle cx="20" cy="20" r="20" fill="#272B33"/>
<rect x="10.2129" y="11.4893" width="20" height="4.25532" rx="2.12766" fill="white"/>
<rect x="10.2129" y="17.8723" width="10.6383" height="4.25532" rx="2.12766" fill="white"/>
<rect x="22.5532" y="17.8723" width="7.65957" height="4.25532" rx="2.12766" fill="#55B99D"/>
<rect x="17.8726" y="24.2553" width="12.3404" height="4.25532" rx="2.12766" fill="#55B99D"/>
<rect x="10.2129" y="24.2553" width="5.95745" height="4.25532" rx="2.12766" fill="white"/>
</svg>
