<svg width="45" height="40" viewBox="0 0 45 40" fill="none" xmlns="http://www.w3.org/2000/svg">
<path fill-rule="evenodd" clip-rule="evenodd" d="M27.524 17.2612C26.1899 16.4568 25.4386 18.3801 26.392 18.9733C27.2756 19.5232 28.3511 18.864 28.0274 17.7732C27.8645 17.2251 27.7588 17.4029 27.524 17.2612ZM25.3107 17.005C24.5909 16.5218 23.9518 17.5908 24.5386 18.0597C25.2455 18.6248 26.243 17.631 25.3107 17.005ZM12.0025 11.8358C12.5868 12.6716 13.6732 11.8331 13.2578 11.0111C12.8526 10.2091 11.5074 10.8208 12.0025 11.8358V11.8358ZM11.4836 9.16681C10.3116 8.7049 9.86354 10.3742 10.7639 10.7467C11.9339 11.2304 12.6769 9.6372 11.4836 9.16681ZM1.47182 6.80345C2.8578 6.83956 2.89827 5.41675 2.27181 4.6061C0.791556 4.54139 0.787194 5.98989 1.47182 6.80345V6.80345ZM4.88187 4.56005C3.90764 4.16866 3.57393 6.46247 4.5564 6.63672C5.5316 6.80975 6.01993 5.01712 4.88187 4.56005ZM22.7321 2.14822C23.4456 1.69698 23.6172 1.53145 24.6076 1.31552C26.2856 0.950066 27.407 0.986176 28.6543 2.19185C29.0886 2.61159 29.7938 3.17359 29.6734 3.93965C28.6085 4.26318 26.8576 4.31237 25.6294 4.17666C24.6532 4.06882 22.624 3.42321 22.2026 3.44356L22.1129 2.85176C22.1233 2.13926 21.1792 1.52152 20.4839 1.26075C18.0968 0.36577 15.2494 2.1143 15.2885 5.09418C15.3442 9.35341 20.6501 10.2918 22.301 7.20671C22.6984 7.53218 22.7728 7.89522 23.1046 8.26843C25.7629 11.2573 30.2431 9.47798 30.2075 5.38863C30.3289 5.26479 30.3389 5.46836 30.4966 4.93448L30.7668 7.75102C31.2811 12.2395 30.3813 13.5887 30.232 17.2338C30.1862 18.3532 30.6561 19.0242 31.112 19.7762C31.5816 20.551 31.9328 21.2344 32.1579 22.1391C32.4499 23.3121 32.179 24.2376 32.0118 25.357C31.8637 26.3472 32.0663 27.7991 31.8969 28.5993C30.2494 28.2559 28.3085 26.9977 29.2064 25.0334C29.5534 24.2742 30.2977 23.48 30.4802 22.9871C30.7581 22.2356 30.2904 20.8501 29.307 20.7587C29.5966 21.431 30.7162 22.0313 29.9552 23.1465C29.4853 23.8355 28.83 24.4836 28.6386 25.4234C28.1847 27.6486 30.3883 28.688 32.077 29.0484C32.1543 29.8663 32.5944 30.3234 33.2102 30.4906L33.0066 30.6181C32.9838 30.6353 32.9351 30.6692 32.9102 30.6886L32.7301 30.8439C28.4638 33.8854 29.8711 31.7896 30.2073 36.6239C30.3556 38.7573 30.4889 38.3588 29.0469 39.3767C29.0237 39.3539 28.9963 39.2781 28.9873 39.2989C28.8647 39.5892 29.0052 39.2112 28.6512 38.8263L26.1269 39.4571C26.3358 39.2378 26.6472 38.7463 26.6586 38.329L26.0806 38.1196C26.0554 38.1075 26.0098 38.0864 25.9788 38.0634L27.6849 37.2501C27.9757 34.7273 27.0876 33.604 26.7029 32.2355C26.4805 31.4435 26.1846 30.6801 25.9459 29.9552C25.2639 27.8834 24.3818 25.4474 23.0394 23.765C21.9944 22.4551 21.1358 21.953 19.0213 21.6166C15.0519 20.9853 12.5938 23.3479 11.8767 26.5823C10.8232 31.3349 12.4193 36.0187 11.4007 37.8763C10.9604 37.6272 11.2687 37.9149 11.1671 37.412L11.1935 33.7075C11.1649 32.4349 10.6313 31.5504 10.2411 30.51C9.51916 28.5853 8.82872 27.4135 9.09627 25.4866C9.14983 25.1008 9.22495 24.9161 9.0953 24.5388C8.91015 24.0001 8.85804 24.4976 8.71288 23.7742C11.631 21.9144 10.3502 20.9545 10.824 19.8247C10.9207 19.5942 11.1126 19.523 11.2859 19.2462C11.4572 18.9726 11.4945 18.7535 11.6392 18.5165C12.6842 18.8723 13.3889 19.3538 14.6647 19.3771C17.6823 19.4321 21.7346 18.1586 23.0094 16.0419C22.254 13.8152 19.713 12.826 16.7811 12.8621C13.7345 12.8997 11.3414 13.634 8.1945 12.9028C4.60633 12.0691 0.589682 10.5356 0.379568 6.55286C0.297897 5.00209 0.733878 3.52281 2.14385 3.49034C3.05991 3.96703 2.61085 4.1832 3.19878 4.79052C3.79568 4.59859 4.08043 3.16002 5.55656 3.92486C6.39557 4.35963 6.28602 5.40923 6.22665 6.02479C6.13722 6.95467 6.12438 6.22352 6.28772 6.7608C6.40768 7.15534 14.573 6.8524 14.9026 6.77679C15.0825 5.78099 14.7158 4.60416 15.0602 3.24048C15.6515 0.899173 18.286 0.238538 20.0801 0.618537C21.3675 0.891176 21.6096 1.50989 22.3211 2.32756C22.7164 2.22093 22.4248 2.34961 22.7319 2.14726L22.7321 2.14822Z" fill="#4FB796"/>
<path fill-rule="evenodd" clip-rule="evenodd" d="M12.1679 34.5744C16.5219 35.0332 14.6154 35.2343 19.6857 35.0191C24.8196 34.8013 22.6797 34.8165 26.8555 34.0056L25.7957 30.7131C23.2288 31.9391 22.9458 32.3853 19.5607 32.8152C16.3127 33.2275 14.7547 32.4701 11.943 32.0521L12.1679 34.5744V34.5744ZM41.1205 32.5959C39.0414 32.671 39.5266 32.919 38.8347 34.0071C38.5822 34.4043 38.3376 34.6256 38.1297 35.0269C40.1286 35.1064 41.3624 34.7954 41.1205 32.5959V32.5959ZM38.9345 32.7915L36.7551 32.41C36.1257 33.3576 35.3083 34.1792 35.24 34.5061C35.8669 34.7494 37.1317 35.2023 37.7499 34.7787L38.7554 33.3995C38.9925 32.9003 38.8143 33.2122 38.9343 32.7917L38.9345 32.7915ZM36.3218 32.2457L34.4654 31.777L32.8989 33.3191C32.9929 33.4252 34.3237 34.4159 34.9349 34.0766C35.4702 33.7795 36.0562 32.7779 36.3216 32.246L36.3218 32.2457ZM43.2917 31.777L41.5305 32.4696L41.3338 34.2199C42.0693 33.8968 43.0488 32.56 43.2917 31.777ZM34.0147 31.6045C33.4461 31.3098 33.0593 31.1072 32.5589 31.4162C32.0999 31.6995 31.5885 32.055 31.2713 32.3957C32.4789 33.7301 33.2064 32.6788 34.0144 31.6045H34.0147ZM24.695 27.7475C23.1413 28.2203 22.3275 29.2326 19.021 29.6187C16.187 29.9497 14.5322 29.6853 11.9156 29.3911L11.8919 31.6045C15.5237 33.0881 22.321 32.8126 25.6096 30.2997C25.462 29.5341 25.1094 28.2855 24.695 27.7475ZM39.641 28.5369C39.4876 28.6563 39.0719 28.8803 38.9404 29.5838L39.6659 29.703L39.641 28.5369V28.5369ZM42.1931 28.6268C41.7877 28.8975 41.6558 29.1529 41.5184 29.6831L42.2598 29.6371L42.1934 28.6268H42.1931ZM37.1642 27.5602C36.6688 27.8183 36.396 28.0427 36.0712 28.4203L36.8535 28.7746L37.1642 27.5602ZM24.4897 27.2524C24.2738 26.346 23.5041 25.2402 23.1076 24.4974C22.6671 24.6012 21.3727 25.4268 20.8049 25.738C16.4426 28.1292 13.47 26.5729 12.2297 26.6795L11.9447 29.0358C14.445 29.3739 16.3743 29.5007 19.0125 29.2246C20.6941 29.0487 23.5962 28.185 24.4897 27.2527V27.2524ZM22.7364 24.0874C21.9328 22.5402 19.1354 21.4977 16.7061 22.033C14.4401 22.5325 12.8559 23.9088 12.4078 26.1975C13.8554 26.9393 16.7538 26.7859 18.3819 26.3349C19.4952 26.0264 22.1998 24.7204 22.7364 24.0874V24.0874ZM8.44668 23.3664C8.80778 23.3187 8.56713 23.4292 8.99026 23.1541C10.9075 21.9092 10.2517 19.9542 10.3336 19.7353C10.8144 19.2153 11.4634 18.8144 11.0013 17.776C10.7153 16.9862 10.4293 17.0683 10.1038 16.5703C10.3336 16.1176 10.13 16.4961 10.6709 15.9797C10.8798 15.7802 10.7243 15.9574 10.9024 15.7262C10.163 15.7102 9.36033 15.7049 8.76101 15.9526C6.40855 16.9246 7.69226 17.9233 7.07306 18.74C6.85398 19.0289 6.38165 19.2303 5.98857 19.7545C3.17178 23.5116 7.22962 24.6806 8.44644 23.3664H8.44668ZM19.5517 15.6024C19.138 15.2437 18.8821 14.0274 18.6642 13.3757C18.0353 13.2901 17.6832 13.1859 17.0461 13.2838C16.5699 13.8058 16.1666 14.6967 15.5387 14.8307L14.7819 13.4297L12.0349 13.6999C11.6476 14.3356 11.4767 15.0312 10.8478 15.2849C9.33755 14.0991 11.0056 13.6699 7.94648 13.2761C6.91651 14.3383 7.59193 14.8063 8.21258 15.6394C9.05812 15.5946 10.4235 14.9594 11.2434 15.5018C11.5865 16.0982 11.042 16.2349 10.6513 16.3844C10.867 16.9673 10.8607 16.7019 11.1728 17.1788C11.7293 18.0295 10.9823 17.9112 12.8869 18.6244C15.987 19.7853 20.0708 18.3309 22.5788 16.0815C22.3569 15.3292 21.6764 14.4951 21.0024 14.2704C20.3893 14.7193 20.2817 15.4582 19.5517 15.6024V15.6024ZM19.0711 13.4973L19.6835 15.0772C20.0122 14.8341 20.3672 14.3904 20.5395 13.9028L19.0714 13.4973H19.0711ZM10.8476 14.7282C11.2169 14.512 11.4261 14.062 11.5417 13.6309L10.1618 13.5751L10.8476 14.7282V14.7282ZM15.727 14.2978C15.966 14.093 16.3447 13.5102 16.4906 13.2298L15.2135 13.382C15.3446 13.7901 15.386 14.0177 15.727 14.2976V14.2978ZM33.5242 14.6393C34.2587 14.1543 34.6898 13.5974 35.3265 12.9843L33.6841 13.3461L33.5244 14.6393H33.5242ZM5.61075 12.6191C5.75107 12.9685 6.28568 14.1585 6.62739 14.4044C6.97516 14.1262 7.33189 13.6541 7.41429 13.1108L5.61075 12.6191V12.6191ZM33.4485 11.1105C33.9298 10.7889 34.4395 9.9494 34.756 9.61496L33.3138 9.90117L33.4485 11.1105ZM32.9706 8.27357C33.4221 8.05231 33.8058 7.61512 34.0537 7.05627L32.8175 7.33109L32.9706 8.27357V8.27357ZM8.71229 23.7752C7.75842 24.2451 7.26306 24.2086 6.15554 24.2631C5.68079 26.229 5.6837 27.9724 6.33318 29.7726C7.03477 31.7174 7.96223 32.0555 9.37148 33.0554C9.43618 33.8047 9.67853 35.0167 9.521 35.6926L7.32922 36.8219C8.50485 36.9753 8.81578 36.7131 8.18883 37.7996C10.1722 37.4421 10.4368 36.66 10.5747 38.364L11.4004 37.8771C12.419 36.0198 10.8229 31.3357 11.8764 26.5831C12.5935 23.3485 15.0516 20.9861 19.021 21.6174C21.1354 21.9535 21.9941 22.4557 23.0391 23.7658C24.3814 25.4482 25.2636 27.8842 25.9455 29.956C26.1842 30.6809 26.4801 31.4443 26.7026 32.2363C27.0872 33.605 27.9754 34.7283 27.6846 37.2509L25.9785 38.0642C26.0097 38.0872 26.0551 38.1083 26.0803 38.1204L26.6583 38.3298C26.6469 38.7469 26.3355 39.2384 26.1265 39.4579L28.6508 38.8271C29.0049 39.212 28.8643 39.59 28.987 39.2997C28.9957 39.2791 29.0231 39.3547 29.0466 39.3775C30.4888 38.3596 30.3552 38.758 30.2069 36.6247C29.8708 31.7903 28.4635 33.8862 32.7298 30.8447C33.5666 30.861 36.5091 32.3252 39.3305 32.3446C40.6251 32.3536 43.3581 31.7947 43.8125 30.8052C43.9867 30.4257 44.2213 29.6163 44.3226 29.2164C42.3298 30.0217 41.8202 30.4451 38.9423 29.9844C36.75 29.6335 35.3306 28.326 34.4361 27.9264C34.5255 28.5608 34.7315 28.2855 34.7189 28.9668C33.9425 29.2365 32.9144 29.055 32.0766 29.0492C30.3882 28.6888 28.1843 27.6496 28.6382 25.4242C28.8299 24.4843 29.485 23.8361 29.9549 23.1473C30.7159 22.0318 29.5962 21.4318 29.3066 20.7595C30.2901 20.8506 30.7578 22.2363 30.4798 22.9879C30.2976 23.4808 29.5531 24.275 29.206 25.0342C28.3081 26.9984 30.2493 28.2567 31.8966 28.6001L34.2279 28.6866C34.1 28.1343 33.9916 28.3679 33.9786 27.8311C34.6353 27.3089 35.2351 27.0149 35.7067 26.2973L34.1089 26.292C33.9291 23.7706 37.8457 23.3065 34.2052 18.7972C32.573 16.7756 32.826 18.1148 33.1476 14.9747C33.317 13.3226 33.1194 11.5295 32.9105 9.97218C32.4484 6.52674 31.4153 4.71569 29.7659 2.26606C28.4911 0.372851 26.4651 -0.141165 24.19 0.90262C23.4823 1.22736 22.9748 1.41664 22.7315 2.14828C22.4245 2.35064 22.716 2.22195 22.3208 2.32858C21.6092 1.51067 21.3671 0.892199 20.0798 0.61956C18.2857 0.239561 15.6511 0.899954 15.0598 3.2415C14.7154 4.60518 15.0821 5.78226 14.9023 6.77781C14.5727 6.85343 6.40734 7.15612 6.28738 6.76182C6.12404 6.2243 6.13688 6.9557 6.22631 6.02581C6.28544 5.41026 6.39498 4.36066 5.55622 3.92589C4.08009 3.16104 3.79534 4.59961 3.19844 4.79155C2.61051 4.18399 3.05957 3.96781 2.1435 3.49136C0.733535 3.52359 0.297555 5.00311 0.379226 6.55389C0.58934 10.5366 4.60598 12.0702 8.19416 12.9038C11.341 13.635 13.7342 12.9007 16.7807 12.8631C19.7126 12.827 22.2536 13.816 23.009 16.0429C21.7343 18.1596 17.682 19.4331 14.6643 19.3781C13.3884 19.3548 12.6836 18.8735 11.6389 18.5175C11.4942 18.7546 11.4569 18.9736 11.2855 19.2472C11.1122 19.524 10.9201 19.5953 10.8236 19.8257C10.3498 20.9555 11.6304 21.9152 8.71254 23.7752H8.71229ZM32.7392 6.94891C33.3182 6.90505 33.9088 6.5534 34.5035 6.76158C34.6746 7.88703 32.7537 8.3836 33.2842 9.40751C33.599 9.77054 34.3239 9.03939 35.2984 9.26162C35.3808 10.5126 33.158 10.7188 33.6085 12.9327C34.424 12.9945 34.9215 12.4204 35.9074 12.7197C35.8216 13.6939 33.8925 14.4893 33.5293 15.3683C32.7869 17.164 33.814 17.6417 34.71 18.8222C37.7989 22.8919 35.0522 23.7047 34.4448 25.9525L36.3395 25.8315C36.3354 26.53 35.4142 27.2233 34.9072 27.6484C35.1016 27.9615 35.1765 28.0379 35.6403 28.2327C35.9711 27.986 36.299 27.7441 36.5552 27.5066C38.2477 25.9367 37.3026 28.4171 37.249 29.0783L38.399 29.5055C38.8834 29.0022 39.2055 27.8619 39.9575 27.8181L40.0622 29.671L41.0289 29.7769C41.1787 29.4248 41.3868 29.032 41.5594 28.6893C41.8286 28.1539 41.8185 27.9923 42.4185 27.8791L42.6928 29.3831C43.44 29.632 44.2746 28.445 44.9646 28.3527C45.0332 29.3722 43.392 32.6361 42.8807 33.3036C40.7749 36.0527 36.8569 35.8293 33.9325 34.3696C33.5174 34.1624 30.8048 32.6134 30.6109 32.6718L30.2338 32.9337C30.1005 34.2671 30.5259 35.7452 30.6461 37.1423C30.7355 38.1822 30.8823 38.5125 30.173 39.0639C29.8458 39.3181 29.1195 39.8585 28.7827 39.9998C28.3685 39.6312 28.6244 39.687 28.3872 39.2573C27.5763 39.383 26.3364 40.04 25.5372 39.8656C25.533 39.4143 25.921 39.0215 26.1593 38.6112C25.4851 38.657 25.5103 38.8259 25.0384 38.4629C25.1942 38.0853 25.0673 38.2343 25.5044 37.9515C26.1023 37.5645 26.778 37.3946 27.3014 36.8803L27.1614 34.4137C26.5783 34.3837 24.4464 35.0053 23.5972 35.1393C22.4572 35.3194 16.6736 35.5913 15.6642 35.4619C14.4876 35.3109 13.3665 35.0194 12.1744 34.936C11.9815 35.9223 12.3836 38.6516 10.4516 38.7971C10.1957 38.4658 10.1845 38.04 10.0845 37.6966C9.4769 37.8681 8.08462 38.3989 7.4441 38.3199C7.47681 37.5509 7.69856 37.9312 7.92443 37.3137C7.31444 37.3093 7.00448 37.4482 6.44466 37.1947C6.44781 36.4606 8.15078 36.1804 9.19359 35.4299L9.0002 33.1964C7.83282 32.6907 7.03938 31.8757 6.4323 30.8779C6.03243 30.2212 5.2339 27.7795 5.38125 26.8576L5.77651 24.0835C5.15708 23.5181 4.73636 23.3191 4.69541 22.1045C4.65203 20.8235 5.37858 19.7123 6.24206 18.9562C6.80576 18.4623 6.73839 18.755 6.82636 17.9284C6.98776 16.4157 7.03986 16.7106 7.93097 15.9118C7.70195 15.4928 7.38884 15.3477 7.14092 14.7018C6.5353 14.8329 6.98461 14.8751 6.32349 15.0169C4.74 11.8077 5.64298 12.7492 3.9342 11.8853C2.68903 11.2559 1.43416 10.4249 0.848407 9.29361C-1.43788 4.87903 1.45258 1.65922 2.99535 3.72425L3.33076 4.15927C3.96086 3.52795 4.78968 2.99479 5.83371 3.64961C6.78904 4.24893 6.67247 5.22971 6.59589 6.58176L14.5822 6.45598C14.6408 4.74623 14.2007 3.29094 15.2581 1.86013C16.0042 0.850273 17.366 0.142138 19.1562 0.140926C21.0118 0.139714 21.4822 0.790413 22.4274 1.75568C23.904 -0.0771853 27.364 -0.712132 29.1804 1.0078C30.1088 1.88679 30.4614 2.63442 31.1666 3.76424C31.8682 4.888 32.4576 6.49621 32.7394 6.94939L32.7392 6.94891Z" fill="#0B0B0B"/>
<path fill-rule="evenodd" clip-rule="evenodd" d="M31.897 28.5998C32.0664 27.7996 31.864 26.3477 32.0118 25.3574C32.1791 24.238 32.45 23.3125 32.158 22.1396C31.9328 21.2349 31.5817 20.5515 31.112 19.7767C30.6562 19.0247 30.186 18.3536 30.2321 17.2342C30.3816 13.5891 31.2814 12.24 30.7669 7.75149L30.4967 4.93494C30.3389 5.46883 30.329 5.26526 30.2076 5.3891C30.2638 4.51568 30.6142 3.86232 29.6732 3.94011C29.7937 3.17405 29.0884 2.61205 28.6541 2.19231C27.4065 0.98664 26.2852 0.95053 24.6074 1.31599C23.617 1.53168 23.4452 1.6972 22.7319 2.14869C22.9752 1.41705 23.4827 1.22777 24.1904 0.90303C26.4653 -0.140754 28.4913 0.373262 29.7663 2.26647C31.4157 4.71586 32.4488 6.52715 32.911 9.97259C33.1199 11.5299 33.3171 13.3228 33.148 14.9751C32.8264 18.1152 32.5736 16.776 34.2056 18.7976C37.8461 23.3067 33.9295 23.771 34.1094 26.2924L35.7071 26.2977C35.2353 27.0153 34.6357 27.3091 33.979 27.8315C33.9921 28.3683 34.1004 28.1347 34.2283 28.687L31.897 28.6005V28.5998Z" fill="#3A9B82"/>
<path fill-rule="evenodd" clip-rule="evenodd" d="M16.6379 4.83302C17.4365 6.56725 20.6524 5.54528 19.5757 3.35689C18.7345 1.64738 15.6732 2.73818 16.6379 4.83302ZM22.113 2.85208L22.2027 3.44389C22.2259 3.74052 22.3697 3.63074 22.4601 3.93367C22.54 4.20098 22.2652 5.38581 23.506 5.75127C25.075 6.21342 25.4336 4.84247 26.0138 4.59286C27.6845 4.6074 28.3345 4.51264 29.8555 4.29526C30.0707 10.2279 25.1423 10.3871 23.1963 7.78213C22.7758 7.21916 22.7201 6.90484 22.453 6.50327C21.8433 6.82559 21.2524 8.96066 18.6654 8.63567C15.0123 8.17691 14.6837 2.94127 17.8344 1.65805C18.6807 1.31343 19.5328 1.29259 20.3759 1.63357C21.2476 1.98618 21.6203 2.7314 22.113 2.85208V2.85208Z" fill="#FDFDFD"/>
<path fill-rule="evenodd" clip-rule="evenodd" d="M19.5517 15.6021C20.2817 15.4579 20.3893 14.719 21.0024 14.2702C21.6764 14.4948 22.3569 15.329 22.5789 16.0812C20.0709 18.3307 15.9873 19.785 12.887 18.6242C10.9824 17.9109 11.7295 18.029 11.1729 17.1786C10.8607 16.7016 10.867 16.9672 10.6513 16.3842C11.042 16.2346 11.5866 16.0979 11.2434 15.5015C10.4233 14.9592 9.05816 15.5943 8.21262 15.6392C7.59197 14.806 6.91679 14.338 7.94652 13.2758C11.0054 13.6696 9.33735 14.0988 10.8479 15.2846C11.4765 15.0311 11.6476 14.3354 12.0349 13.6997L14.7819 13.4295L15.5387 14.8305C16.1669 14.6965 16.5699 13.8056 17.0461 13.2836C17.6835 13.1854 18.0356 13.2899 18.6643 13.3754C18.8821 14.0271 19.1381 15.2434 19.5517 15.6021V15.6021Z" fill="#FECE01"/>
<path fill-rule="evenodd" clip-rule="evenodd" d="M11.4007 37.877L10.575 38.3639C10.4371 36.6602 10.1727 37.442 8.1891 37.7995C8.81605 36.713 8.50536 36.9752 7.3295 36.8218L9.52127 35.6925C9.6788 35.0166 9.43645 33.8046 9.37174 33.0553C7.9625 32.0554 7.03504 31.7173 6.33345 29.7725C5.68397 27.9723 5.68106 26.2289 6.15581 24.263C7.26333 24.2085 7.75893 24.2451 8.71256 23.7751C8.85773 24.4983 8.91008 24.0008 9.09499 24.5397C9.22464 24.9171 9.14951 25.102 9.09595 25.4876C8.82816 27.4145 9.51885 28.586 10.2408 30.5109C10.631 31.5513 11.1649 32.4359 11.1932 33.7084L11.1668 37.4129C11.2683 37.9155 10.9601 37.6281 11.4004 37.8773L11.4007 37.877Z" fill="#3A9B82"/>
<path fill-rule="evenodd" clip-rule="evenodd" d="M24.695 27.7473C25.1094 28.2853 25.4623 29.5339 25.6096 30.2995C22.3212 32.8123 15.5236 33.0879 11.8918 31.6043L11.9156 29.3909C14.5322 29.6851 16.1869 29.9495 19.0209 29.6185C22.3275 29.2322 23.1413 28.2201 24.695 27.7473V27.7473Z" fill="#FECE01"/>
<path fill-rule="evenodd" clip-rule="evenodd" d="M11.9429 32.0519C14.7546 32.4699 16.3126 33.2275 19.5605 32.815C22.9456 32.3853 23.2287 31.9389 25.7956 30.7129L26.8554 34.0054C22.6795 34.8163 24.8194 34.801 19.6856 35.0189C14.6155 35.2341 16.5218 35.0327 12.1678 34.5742L11.9429 32.0519V32.0519Z" fill="#FECE01"/>
<path fill-rule="evenodd" clip-rule="evenodd" d="M22.7363 24.0872C22.1997 24.7205 19.4951 26.0265 18.3818 26.3347C16.7537 26.7857 13.8555 26.9389 12.4077 26.1973C12.8558 23.9086 14.4398 22.5323 16.706 22.0328C19.1352 21.4975 21.9326 22.5401 22.7363 24.0872V24.0872Z" fill="#FECE01"/>
<path fill-rule="evenodd" clip-rule="evenodd" d="M24.4899 27.2521C23.5963 28.1844 20.6942 29.0481 19.0126 29.224C16.3742 29.5001 14.4451 29.3733 11.9448 29.0352L12.2298 26.6789C13.4702 26.5725 16.4428 28.1286 20.805 25.7374C21.3728 25.4262 22.6672 24.6006 23.1078 24.4968C23.5042 25.2396 24.2742 26.3454 24.4899 27.2518V27.2521Z" fill="#FECE01"/>
<path fill-rule="evenodd" clip-rule="evenodd" d="M32.73 30.8446L32.9101 30.6893C32.9351 30.6699 32.9835 30.6359 33.0065 30.6187L33.2101 30.4913C32.5943 30.3238 32.1542 29.867 32.0769 29.0491C32.9149 29.0546 33.9427 29.2362 34.7192 28.9667C34.732 28.2857 34.5261 28.5607 34.4364 27.9263C35.3309 28.3259 36.7503 29.6334 38.9426 29.9843C41.8204 30.4452 42.3301 30.0218 44.3229 29.2163C44.2216 29.6161 43.9872 30.4256 43.8127 30.8051C43.3583 31.7946 40.6254 32.3534 39.3308 32.3445C36.5094 32.3251 33.5668 30.8608 32.73 30.8446V30.8446Z" fill="#3C9B84"/>
<path fill-rule="evenodd" clip-rule="evenodd" d="M11.0015 17.7759C8.84006 17.8481 9.11513 19.8606 8.59941 20.2626C8.19615 20.5772 8.1867 20.3826 7.84305 20.8186C7.72988 20.9623 7.50692 21.383 7.46014 21.6161C7.31692 22.3318 7.62712 22.8715 8.0173 23.4352L8.44674 23.3661C7.22992 24.6804 3.17207 23.5113 5.98886 19.7542C6.38195 19.23 6.85404 19.0286 7.07336 18.7397C7.69255 17.923 6.40885 16.9241 8.7613 15.9523C9.36062 15.7046 10.1633 15.7099 10.9027 15.7259C10.7248 15.9571 10.8801 15.78 10.6712 15.9794C10.1303 16.4958 10.3341 16.1173 10.1041 16.57C10.4299 17.068 10.7156 16.9859 11.0015 17.7757V17.7759Z" fill="#3A9B82"/>
<path fill-rule="evenodd" clip-rule="evenodd" d="M22.1129 2.85207C21.6203 2.73138 21.2475 1.98593 20.3758 1.63356C19.5327 1.29257 18.6806 1.31366 17.8343 1.65803C14.6836 2.94101 15.0122 8.1769 18.6653 8.63566C21.2521 8.96064 21.843 6.82558 22.453 6.50326C22.72 6.90482 22.7758 7.21915 23.1962 7.78212C25.1425 10.3871 30.0709 10.2279 29.8554 4.29524C28.3342 4.51263 27.6845 4.60738 26.0138 4.59284C25.4338 4.8427 25.0749 6.21365 23.506 5.75126C22.2654 5.3858 22.54 4.20097 22.46 3.93366C22.3694 3.63073 22.2259 3.74051 22.2026 3.44388C22.6241 3.42352 24.6532 4.06913 25.6294 4.17698C26.8576 4.31269 28.6085 4.26349 29.6734 3.93996C30.6144 3.86217 30.264 4.51553 30.2078 5.38895C30.2434 9.4783 25.7632 11.2576 23.1049 8.26875C22.7731 7.89578 22.6987 7.53274 22.3013 7.20703C20.6504 10.2921 15.3445 9.35373 15.2887 5.0945C15.2497 2.11461 18.097 0.365844 20.4841 1.26107C21.1797 1.52183 22.1236 2.13957 22.1132 2.85207H22.1129Z" fill="#000905"/>
<path fill-rule="evenodd" clip-rule="evenodd" d="M8.44663 23.3661L8.0172 23.4351C7.62702 22.8714 7.31706 22.3317 7.46004 21.6161C7.50657 21.383 7.72953 20.9622 7.84295 20.8185C8.1866 20.3826 8.19581 20.5772 8.59931 20.2626C9.11502 19.8605 8.83996 17.8479 11.0014 17.7759C11.4636 18.8143 10.8146 19.2152 10.3338 19.7352C10.2519 19.9541 10.9074 21.9091 8.99046 23.154C8.56708 23.4288 8.80773 23.3183 8.44688 23.3663L8.44663 23.3661Z" fill="#4FB796"/>
<path fill-rule="evenodd" clip-rule="evenodd" d="M16.6381 4.83282C15.6735 2.73774 18.7348 1.64719 19.5758 3.35669C20.6525 5.54508 17.4363 6.56705 16.6381 4.83282Z" fill="#010101"/>
<path fill-rule="evenodd" clip-rule="evenodd" d="M38.9346 32.7911C38.8146 33.2116 38.9927 32.8997 38.7557 33.3989L37.7502 34.7781C37.1317 35.2017 35.8672 34.749 35.2402 34.5055C35.3083 34.1786 36.1258 33.357 36.7554 32.4094L38.9348 32.7909L38.9346 32.7911Z" fill="#FDCB02"/>
<path fill-rule="evenodd" clip-rule="evenodd" d="M36.3218 32.2456C36.0562 32.7775 35.4705 33.7791 34.9351 34.0762C34.3239 34.4155 32.9932 33.4248 32.8992 33.3187L34.4657 31.7766L36.3221 32.2453L36.3218 32.2456Z" fill="#FECD05"/>
<path fill-rule="evenodd" clip-rule="evenodd" d="M38.1296 35.0264C38.3373 34.6251 38.5821 34.4038 38.8346 34.0066C39.5265 32.9185 39.0413 32.6706 41.1204 32.5955C41.3625 34.795 40.1285 35.1057 38.1296 35.0264V35.0264Z" fill="#FECD05"/>
<path fill-rule="evenodd" clip-rule="evenodd" d="M27.524 17.2611C27.7588 17.4029 27.8647 17.225 28.0274 17.7732C28.3511 18.864 27.2756 19.5232 26.392 18.9733C25.4386 18.3801 26.1899 16.4566 27.524 17.2611Z" fill="#34A289"/>
<path fill-rule="evenodd" clip-rule="evenodd" d="M1.47177 6.80345C0.787141 5.9899 0.791504 4.54139 2.27175 4.6061C2.89798 5.41651 2.85775 6.83956 1.47177 6.80345Z" fill="#181818"/>
<path fill-rule="evenodd" clip-rule="evenodd" d="M34.0146 31.6042C33.2064 32.6785 32.4791 33.7298 31.2715 32.3955C31.5887 32.0547 32.0998 31.6992 32.5591 31.4159C33.0595 31.1069 33.4463 31.3095 34.0148 31.6042H34.0146Z" fill="#F6CB07"/>
<path fill-rule="evenodd" clip-rule="evenodd" d="M4.88177 4.56029C6.01983 5.01759 5.5315 6.81022 4.5563 6.63695C3.57383 6.4627 3.90754 4.16865 4.88177 4.56029V4.56029Z" fill="#1B1B1B"/>
<path fill-rule="evenodd" clip-rule="evenodd" d="M11.4834 9.16681C12.6767 9.63696 11.9335 11.2304 10.7637 10.7467C9.86335 10.3744 10.3114 8.70489 11.4834 9.16681Z" fill="#34A185"/>
<path fill-rule="evenodd" clip-rule="evenodd" d="M43.2917 31.7766C43.0488 32.5596 42.0693 33.8964 41.3337 34.2195L41.5305 32.4692L43.2917 31.7766Z" fill="#F6CB07"/>
<path fill-rule="evenodd" clip-rule="evenodd" d="M12.0022 11.8358C11.5073 10.8209 12.8526 10.209 13.2575 11.0111C13.6729 11.8334 12.5865 12.6717 12.0022 11.8358V11.8358Z" fill="#34A289"/>
<path fill-rule="evenodd" clip-rule="evenodd" d="M7.41462 13.1106C7.33198 13.654 6.97549 14.1263 6.62773 14.4043C6.28602 14.1583 5.7514 12.9684 5.61108 12.6189L7.41462 13.1106V13.1106Z" fill="#F9F9F6"/>
<path fill-rule="evenodd" clip-rule="evenodd" d="M25.3105 17.005C26.2428 17.631 25.2453 18.6246 24.5384 18.0597C23.9516 17.5907 24.5907 16.5217 25.3105 17.005Z" fill="#34A289"/>
<path fill-rule="evenodd" clip-rule="evenodd" d="M20.5394 13.9028C20.3674 14.3904 20.0123 14.8339 19.6835 15.0772L19.071 13.4973L20.5392 13.9028H20.5394Z" fill="#F9F9F6"/>
<path fill-rule="evenodd" clip-rule="evenodd" d="M33.5244 14.6391L33.6841 13.346L35.3265 12.9841C34.6899 13.5973 34.2587 14.1542 33.5242 14.6391H33.5244Z" fill="#F9F9F6"/>
<path fill-rule="evenodd" clip-rule="evenodd" d="M33.4487 11.1103L33.314 9.90096L34.7562 9.61475C34.4399 9.94918 33.93 10.7887 33.4487 11.1103Z" fill="#F4F4F4"/>
<path fill-rule="evenodd" clip-rule="evenodd" d="M10.8477 14.7283L10.1619 13.5752L11.5418 13.6309C11.4262 14.0623 11.217 14.5123 10.8477 14.7283V14.7283Z" fill="#F9F9F6"/>
<path fill-rule="evenodd" clip-rule="evenodd" d="M32.9708 8.27321L32.8176 7.33073L34.0538 7.05591C33.8059 7.61476 33.4223 8.05195 32.9708 8.27321V8.27321Z" fill="#F4F4F4"/>
<path fill-rule="evenodd" clip-rule="evenodd" d="M15.7272 14.2978C15.3862 14.0176 15.3447 13.7903 15.2136 13.3822L16.4908 13.23C16.3447 13.5104 15.9661 14.093 15.7272 14.298V14.2978Z" fill="#F9F9F6"/>
<path fill-rule="evenodd" clip-rule="evenodd" d="M36.8536 28.7742L36.0713 28.4199C36.396 28.0421 36.6689 27.8177 37.1643 27.5598L36.8536 28.7742Z" fill="#F4F4F4"/>
<path fill-rule="evenodd" clip-rule="evenodd" d="M39.666 29.703L38.9404 29.5838C39.072 28.88 39.4876 28.6563 39.641 28.5369L39.666 29.703V29.703Z" fill="#F4F4F4"/>
<path fill-rule="evenodd" clip-rule="evenodd" d="M42.2594 29.6368L41.5181 29.6828C41.6557 29.1526 41.7873 28.8972 42.1928 28.6265L42.2592 29.6368H42.2594Z" fill="#F4F4F4"/>
</svg>
