<svg width="48" height="40" viewBox="0 0 48 40" fill="none" xmlns="http://www.w3.org/2000/svg">
<path fill-rule="evenodd" clip-rule="evenodd" d="M30.4794 21.5462C29.3796 20.8675 29.0519 22.761 29.8781 23.1377C30.7543 23.5371 31.4501 22.1452 30.4794 21.5462ZM31.1397 19.7846C30.3713 19.5201 30.2983 20.7264 30.8615 20.906C31.493 21.1073 32.0259 20.0895 31.1397 19.7846ZM28.9205 19.066C27.5912 18.5597 27.2258 20.4895 28.2785 20.8193C29.454 21.1876 30.1957 19.5516 28.9205 19.066ZM15.074 10.1048C14.5728 9.70517 14.2314 10.4499 14.6686 10.7078C14.8344 10.8055 15.092 10.7721 15.2034 10.6107C15.4182 10.2994 15.1818 10.1908 15.074 10.1048V10.1048ZM16.1732 10.7379C16.6275 10.7269 16.9052 10.6679 16.9461 10.1623C17.0214 9.22637 15.7988 9.15119 15.7903 9.99335C15.7853 10.4813 15.9811 10.5006 16.1734 10.7381L16.1732 10.7379ZM13.933 9.60094C14.5999 9.75377 14.558 9.04772 13.9421 9.25883L13.933 9.60094ZM15.8136 8.64961C15.5784 8.49583 15.2585 8.39502 14.8862 8.52013C14.5335 9.31085 15.1482 9.74294 15.8318 9.24175L15.8136 8.64961ZM5.33703 4.62312C4.52581 4.02035 3.74534 5.82733 4.73787 6.22544C5.51017 6.53527 6.29159 5.33258 5.33703 4.62312ZM8.02376 4.43365C7.06218 3.86544 6.51731 5.7924 7.4096 6.22715C8.38466 6.70234 8.8439 4.91834 8.02376 4.43365V4.43365ZM21.3469 3.54118C21.3291 3.07757 21.4815 2.72388 21.2467 2.39715C20.9053 2.5384 21.024 2.74438 20.9566 3.52979C20.3994 3.62281 20.2004 3.74488 19.7556 3.83924C19.4661 2.86968 19.4963 2.95189 19.1737 2.92911C19.0355 3.27672 19.39 3.69932 19.4281 4.083C19.097 4.46972 18.9677 4.56522 18.6809 5.07325C18.5531 5.29974 18.301 5.75689 18.3101 6.02439L18.3376 6.16981C18.3411 6.18747 18.3616 6.25259 18.3646 6.24006C18.3678 6.22734 18.3823 6.28809 18.3961 6.30935C18.8007 6.14513 18.5205 6.20513 18.8519 5.51788C19.2468 4.69887 19.921 3.9896 20.9849 3.95068C23.1913 3.86999 23.0149 6.05078 23.712 5.97579C23.8438 5.33771 22.9967 4.35278 22.6195 4.10294C22.7134 3.67578 23.2014 3.33102 22.9735 2.97125C22.6265 3.05498 22.538 3.50511 22.2814 3.78988L21.3463 3.54099L21.3469 3.54118ZM28.2018 3.06808C28.2114 2.68762 28.3504 2.23825 28.0696 2.06093C27.7854 2.20901 27.8551 2.66807 27.8259 3.04624C27.6618 3.13566 26.918 3.45328 26.7741 3.49334C26.4757 3.25185 26.2796 2.74363 25.8456 2.70585C25.7738 3.09276 26.1972 3.4996 26.4677 3.68034C26.222 4.29013 25.0334 5.21336 25.3254 5.82144C25.7263 5.73981 25.7113 5.16457 26.4548 4.37518C27.9645 2.77191 29.3147 3.31317 30.1422 5.32271C30.2795 5.65627 30.3138 5.93042 30.714 5.89985C30.7995 5.28512 29.6794 3.71717 29.6074 3.55409C29.7595 3.1854 30.0644 2.82203 29.8834 2.48752C29.5484 2.58358 29.4105 3.0863 29.3295 3.36044C28.8529 3.22413 28.7443 3.10718 28.2018 3.06808V3.06808ZM46.124 12.6241C45.9898 12.9147 46.2174 12.6683 45.8256 12.8823C44.3106 13.7096 44.9866 13.8945 45.1539 14.9155C44.4938 14.7728 44.4731 14.855 44.1336 15.2637C43.3664 15.0722 43.241 14.6063 41.3463 14.8081C38.1452 15.1492 35.2288 18.1384 33.9728 20.8709C31.6642 25.8929 34.04 28.0686 33.6808 29.0693C33.0104 30.196 32.1939 31.0395 31.2538 31.768C30.0782 32.6791 29.3173 32.8218 27.6721 33.2503C28.0814 32.3345 28.1344 30.063 27.8969 29.0454C27.7981 28.6224 27.7414 28.8196 27.6599 28.1656C27.5969 27.6589 27.2537 26.3531 26.9752 25.9133C26.8761 25.7568 26.8235 25.7247 26.7557 25.5592C26.5307 25.009 26.4992 24.3685 26.1343 23.8682C25.3723 22.8237 25.2043 22.2756 24.1071 21.2701C23.8206 21.0078 23.009 20.4779 22.8167 20.2045C23.5921 19.631 24.0162 19.7143 25.6519 18.1942C27.6148 16.3704 27.9973 13.066 26.9273 10.721C26.5062 9.79819 25.4668 8.41306 24.615 8.0943C24.1855 8.21714 23.4994 8.75289 23.1201 8.99741C19.4456 11.3663 15.0434 13.8522 10.4033 12.5225C8.77366 12.0555 8.31233 11.8806 7.07281 11.0614C6.21185 10.4923 5.14927 9.61442 4.62871 8.7115C3.51031 6.77125 3.44462 3.00675 5.29071 3.71071C6.14369 4.03592 5.80121 4.92973 6.39164 5.01364C6.70887 4.67989 6.52358 4.29184 6.99307 3.90398C7.35151 3.60781 7.88194 3.58807 8.24019 3.86791C8.97509 4.44201 9.06394 5.76487 9.13551 6.57514C9.61336 6.87415 10.3811 6.78625 10.9656 6.80543C11.6726 6.82859 12.34 6.87016 13.0414 6.88934L16.1493 7.01711C16.3125 7.02147 16.5225 7.0397 16.6751 7.03837C16.7431 7.0378 16.8619 7.03685 16.9257 7.02299L17.1363 6.93661C17.3559 6.83409 17.0497 5.85656 17.0814 5.22684C17.1985 2.90424 18.8199 -0.215917 21.9539 0.801289C22.6827 1.03803 23.2422 1.35735 23.6291 2.00929C23.7844 2.2709 23.7711 2.35197 24.0105 2.57067C24.4361 2.45069 24.6347 1.94038 24.9159 1.65599C25.105 1.46481 25.6496 1.03082 25.9439 0.853498C26.8772 0.290788 27.8912 0.366727 29.0164 0.637261C30.8017 1.06632 31.9657 2.70774 32.3853 4.63109C32.779 6.43598 34.0045 12.0462 34.268 13.8106C34.3809 14.5674 34.3735 16.6561 34.7308 17.1077L36.7411 15.6672C38.7847 14.264 39.968 13.826 42.2564 13.2872C43.1047 13.0875 42.7194 12.4817 43.4221 11.7593C43.4236 11.9218 43.4088 12.1396 43.4192 12.2911C43.4785 13.1591 43.5774 12.5791 46.124 12.6243V12.6241Z" fill="#51B695"/>
<path fill-rule="evenodd" clip-rule="evenodd" d="M41.8133 36.964C39.3284 37.2225 39.691 36.8028 38.2608 36.6152C38.1287 36.9759 37.9072 37.2371 37.8194 37.6144C39.0846 37.9527 41.1522 37.9263 41.8133 36.964V36.964ZM37.9673 36.4248C37.5176 36.1886 36.6881 35.6918 36.2745 35.5371L35.4997 36.8073C35.9933 37.0293 36.7804 37.4604 37.3972 37.4712L37.9673 36.4246V36.4248ZM35.9062 35.2139C35.6747 34.9571 35.0649 34.2647 34.8064 34.0773C34.5242 34.3213 33.7079 35.0974 33.5923 35.3903C33.8567 35.7254 34.7114 36.4673 35.1517 36.5296C35.3759 36.2721 35.867 35.5302 35.9062 35.2139V35.2139ZM18.3154 36.8387C18.3498 36.8766 18.3862 36.933 18.4173 36.9621C18.5379 37.0754 18.4462 37.0025 18.5694 37.0839C19.411 35.8232 18.9539 35.5078 18.5313 34.4995L15.5598 34.3534C16.4414 35.8932 17.0383 35.0947 15.8521 37.3959C16.2445 37.281 16.0655 37.1175 16.5185 37.2163C16.6886 37.6451 16.5737 37.9132 16.606 38.3656C17.4237 37.7264 17.5118 36.6408 18.3156 36.8388L18.3154 36.8387ZM40.6529 33.7538C40.329 33.8641 39.8875 34.23 39.7327 34.5085C39.9306 34.7217 40.1787 34.9455 40.506 35.0586L40.6529 33.7538ZM28.8765 38.9629C29.4411 38.7119 29.2332 38.3842 29.8994 38.3927C30.1139 38.6623 30.2811 38.9989 30.467 39.3714C30.8066 39.0071 30.7994 38.1089 31.1497 37.58C31.6443 37.6178 31.4871 37.6956 31.7834 38.0495C31.9721 37.7936 32.1567 36.9049 32.1912 36.5839C32.267 35.8786 31.1019 34.1924 30.7586 33.4261C30.7032 33.3022 30.6931 33.2562 30.6286 33.1338C30.5084 32.9061 30.5321 32.9462 30.4017 32.8112C30.0218 32.9268 29.6837 33.1182 29.2573 33.2581C28.866 33.3865 28.3388 33.4356 28.0227 33.6268C28.1042 34.0431 28.7538 35.4419 28.9401 35.9221C29.2825 36.8047 28.9216 38.0036 28.8766 38.9632L28.8765 38.9629ZM33.2517 35.0429C33.5171 34.9185 34.387 34.0171 34.5389 33.7145L33.7884 32.4754C33.3504 32.629 32.6127 33.2858 32.2049 33.5178C32.3135 34.0131 32.9819 34.8031 33.2517 35.0429ZM33.0712 30.8087L31.3509 32.2155C31.4759 32.569 31.7056 32.953 31.9562 33.2116C32.1929 33.1434 33.3495 32.3246 33.5566 32.0391L33.0712 30.8087V30.8087ZM38.4336 33.1738C38.6696 33.0521 39.3959 31.8244 39.5192 31.6287C39.0629 31.6567 38.1374 31.9803 37.8018 32.2155C37.8929 32.5581 38.2014 32.9591 38.4336 33.1738ZM40.4481 36.6687C40.944 36.702 41.5576 36.6524 41.9262 36.4487C41.7635 36.207 41.5014 36.147 41.2646 36.0326C40.6808 35.7499 39.9788 35.2745 39.477 34.8534C38.0442 33.6513 35.6837 30.118 35.1521 28.1605L34.8924 27.4239C34.4681 28.0331 34.4261 28.7781 33.8998 29.3332C33.6726 30.2409 32.8416 29.7811 33.9304 31.8762C34.4141 32.8072 34.8096 33.4539 35.4169 34.1489C36.7324 35.6542 38.419 36.3796 40.4479 36.6689L40.4481 36.6687ZM36.2327 29.6945C36.2974 30.0478 36.6982 30.6251 36.8789 30.7941C37.05 30.6206 37.8656 29.4388 37.9453 29.1198C37.4221 29.2221 36.6745 29.4809 36.2327 29.6947V29.6945ZM15.8665 17.8407C15.7498 17.5689 15.4384 16.9312 15.1146 16.7803C14.8702 17.0882 14.6217 17.7808 14.5188 18.2077C15.0033 18.1802 15.517 18.0847 15.8665 17.8407ZM2.94967 14.2978C2.80747 14.179 3.14654 14.1543 2.77406 14.2069C2.69261 14.9456 2.8517 16.0387 2.58022 16.4955C1.82956 16.5693 1.27635 16.2506 0.593272 16.1634C0.8957 16.7417 2.67572 18.0997 2.87316 18.6582L2.34025 19.4186C4.08553 19.254 4.29436 18.8059 6.04799 19.4271C7.71884 20.0189 8.36318 20.9303 8.80971 21.0638C9.12903 20.3858 9.26477 19.638 9.71186 18.9221L9.96114 18.2318C9.35666 17.9406 8.62081 17.6397 7.82876 17.4278C7.27706 17.2801 5.66487 17.2192 5.35504 17.0449C5.17715 16.5904 5.35428 15.7957 5.34954 15.2918C4.78018 15.4914 4.60324 16.0974 3.87404 16.0727C3.62875 15.8101 3.06357 14.7722 2.94948 14.2974L2.94967 14.2978ZM20.683 15.0187C20.4992 14.7675 20.4337 14.6967 20.0667 14.552L19.7951 15.8257C20.1529 15.6968 20.5716 15.2831 20.683 15.0187ZM19.7784 20.4354C22.7897 20.4489 25.4825 18.2856 26.4462 16.455C27.1111 15.1922 27.2781 13.486 26.9392 11.9251C26.7006 10.8255 25.5135 8.85466 24.8135 8.77075C24.693 11.295 22.3195 14.1017 20.9488 15.4202C19.5124 16.8019 17.8858 17.5273 15.9638 18.2588C15.5791 18.4052 13.9753 18.6907 13.9214 18.7226C14.2902 19.0129 16.0249 19.6004 16.5766 19.7895C17.7312 20.1852 18.3763 20.4293 19.7784 20.4354V20.4354ZM14.1646 14.5655C14.436 14.421 15.0166 13.4135 15.1148 13.1006L13.6992 13.2282C13.6381 13.5413 13.9912 14.3386 14.1646 14.5653V14.5655ZM9.85919 12.8145C9.9786 13.2823 10.3344 14.0575 10.5633 14.4489C10.7841 14.2031 11.2783 13.5441 11.2899 13.135L9.85919 12.8145ZM18.5214 12.0589L17.0975 12.6376C17.2069 13.012 17.7183 13.6367 18.0745 13.8144L18.5214 12.0589ZM34.5911 12.7585C34.8443 12.2678 35.2705 11.8446 35.5515 11.2952L34.275 11.7445C34.2873 11.9452 34.3133 12.1377 34.349 12.3031C34.4291 12.674 34.4536 12.6273 34.5909 12.7585H34.5911ZM22.01 10.1435L20.2872 11.1383C20.4094 11.4429 20.7008 11.5921 20.9545 11.7888C21.1588 11.9471 21.4382 12.1639 21.6784 12.2666C21.929 11.851 22.0264 10.771 22.0098 10.1435H22.01ZM33.8402 9.84131C34.0847 9.69322 34.2083 9.54154 34.4215 9.33555L34.8043 8.92624C34.9117 8.76677 34.8094 8.94978 34.9106 8.68779L33.684 9.03711L33.8404 9.84112L33.8402 9.84131ZM22.8167 20.2047C22.546 20.3025 21.6074 20.5558 21.4703 20.7133L20.9871 20.7511C20.0085 20.7914 19.0237 20.881 18.1102 20.6773C17.2878 20.4916 12.915 19.2285 13.0769 18.2254L14.0677 18.2692C14.3123 17.7054 14.5572 16.5331 15.1148 16.3125C15.6327 16.4537 15.8886 17.2442 16.3302 17.6883L17.5659 17.1497C17.9038 17.0288 19.1321 16.4845 19.2975 16.206C19.5521 15.7773 19.4934 14.7457 19.8735 14.1617C20.5649 14.0857 20.6236 14.5636 21.0741 14.7259C22.1733 13.6261 24.4071 10.9529 24.4209 8.68095C23.9706 8.79315 22.9589 9.59109 22.4885 9.84548C22.3275 10.7744 22.419 11.9741 21.9161 12.6978C21.367 12.7325 21.0021 12.2919 20.6502 12.0109C19.9291 11.4353 19.9982 11.2857 19.4418 11.5794C18.5094 12.0711 18.9761 13.2371 18.2237 14.2847C17.7939 14.3249 17.7975 14.1951 17.3289 13.6409C17.0725 13.3375 16.8615 13.0387 16.714 12.7585L16.1337 12.8999C15.4958 12.9806 15.4147 13.4287 15.1064 13.9523C13.7718 16.2177 13.8838 14.4282 13.3008 13.5967C13.2461 13.6485 13.2518 13.6404 13.1696 13.7396C12.6716 14.3417 10.356 18.3748 10.2199 18.7072C10.0035 18.9804 9.43165 20.5419 9.28717 20.9787C9.03923 21.729 8.78863 22.5807 8.6098 23.3458C7.14759 29.6009 10.2155 33.0825 16.0731 33.9647C16.7006 34.0504 17.0808 34.0834 17.7637 34.0568C18.3743 34.086 21.0612 34.1724 21.3875 33.9344C22.2295 34.0302 26.2917 33.5554 27.1198 33.3534L27.6721 33.2505C29.3173 32.822 30.0782 32.6793 31.2537 31.7682C32.1939 31.0396 33.0104 30.1962 33.6808 29.0695C34.6761 27.6249 34.8844 25.5197 34.8853 23.7494C34.8861 22.0406 34.735 22.3208 35.5181 21.1342C36.658 19.4074 38.4497 17.4795 40.3663 16.3759C43.482 14.5816 43.2764 16.2492 44.6832 16.8059C44.6855 16.3582 44.5013 15.696 44.7417 15.3796C45.0285 15.1067 44.9589 15.3125 44.9845 15.3125L45.6928 15.5421C46.0347 15.6801 46.2717 15.7929 46.6666 15.8416C46.3658 14.1843 44.4167 14.1478 45.9727 13.2848C46.0725 13.2293 46.2367 13.1538 46.3119 13.1019C46.6419 12.8749 46.4794 13.0123 46.6014 12.7676L46.1242 12.6241C43.5775 12.5789 43.4786 13.1589 43.4194 12.2909C43.4089 12.1394 43.4238 11.9217 43.4222 11.7592C42.7196 12.4817 43.1048 13.0875 42.2566 13.287C39.9681 13.8256 38.7846 14.2638 36.7413 15.667L34.731 17.1076C34.3739 16.6559 34.3813 14.5672 34.2681 13.8105C34.0046 12.046 32.7792 6.43581 32.3854 4.63092C31.9659 2.70757 30.8019 1.06634 29.0166 0.63709C27.8913 0.366556 26.8774 0.290617 25.9441 0.853327C25.6498 1.03064 25.1051 1.46464 24.916 1.65581C24.6349 1.94021 24.4361 2.45052 24.0107 2.5705C23.7713 2.35199 23.7845 2.27092 23.6292 2.00912C23.2423 1.35718 22.6829 1.03786 21.954 0.801118C18.82 -0.216277 17.1987 2.90407 17.0816 5.22667C17.0499 5.85639 17.3559 6.83392 17.1364 6.93644L16.9259 7.02282C16.8621 7.03668 16.7433 7.03763 16.6753 7.0382C16.5229 7.03934 16.3127 7.02111 16.1494 7.01694L13.0416 6.88917C12.3401 6.8698 11.6728 6.82842 10.9658 6.80525C10.3813 6.78608 9.61352 6.87398 9.13568 6.57497C9.0641 5.7647 8.97544 4.44184 8.24035 3.86773C7.88211 3.5879 7.35167 3.60764 6.99324 3.90381C6.52375 4.29167 6.70885 4.67972 6.3918 5.01347C5.80156 4.92956 6.14386 4.03575 5.29087 3.71054C3.44479 3.00677 3.51048 6.77108 4.62887 8.71133C5.14944 9.61425 6.21202 10.4921 7.07298 11.0613C8.3123 11.8807 8.77383 12.0553 10.4035 12.5223C15.0436 13.852 19.4458 11.3662 23.1203 8.99724C23.4996 8.75272 24.1857 8.21696 24.6151 8.09413C25.467 8.41289 26.5064 9.79802 26.9275 10.7209C27.9975 13.0659 27.6149 16.3702 25.6521 18.1941C24.0162 19.7142 23.5922 19.6308 22.8169 20.2044L22.8167 20.2047ZM33.5742 8.62609C34.1871 8.57084 36.806 7.46365 34.8912 9.37257C34.5596 9.70329 34.2873 9.96717 34.0086 10.3446L34.163 11.3844C34.6393 11.2669 35.0494 10.9958 35.5365 10.8938C36.9572 10.5967 34.9182 12.8217 34.72 13.1733C34.4925 13.5771 34.8734 15.8745 34.9188 16.5133C35.8862 16.1283 37.3771 13.958 42.0314 12.936C42.9396 12.7367 42.8067 10.9426 43.7021 10.9584C43.9215 11.3067 43.7942 11.9004 43.823 12.3388C44.6274 12.3513 46.8731 11.8865 47.4911 12.7255C47.3737 13.0949 46.2508 13.6037 45.8819 13.8012C46.0644 14.3496 47.0206 15.0777 47.1349 15.846C47.2874 16.8708 45.8694 15.9406 45.0407 15.7627C45.053 16.362 45.2381 17.2564 44.9691 17.7154C44.7286 17.7077 43.8188 16.6077 43.3159 16.2971C42.35 15.7 41.7901 16.0581 40.9301 16.5023C39.5776 17.2008 38.1853 18.5143 37.3636 19.3956C36.8319 19.9659 36.4254 20.4977 35.9365 21.1992C35.1046 22.3933 35.2745 21.9726 35.2774 23.7492C35.28 25.4462 35.072 26.5183 35.5399 28.1022C35.6899 28.6097 35.8644 28.9419 35.9796 29.3567C36.4161 29.2612 38.5709 28.0574 38.4458 29.112C38.4285 29.2571 38.3392 29.3744 38.2631 29.4839C37.8853 30.0273 37.3598 30.6069 37.1411 31.2452L37.5071 31.8485C38.1805 31.7684 39.3629 31.0037 40.0576 31.1734C40.1198 31.7614 39.002 32.9868 38.7721 33.5381C38.8959 33.7956 39.1368 34.027 39.3834 34.1897C39.915 33.9738 40.3581 33.0144 40.9869 33.2148C41.0453 33.3449 41.0064 33.0607 41.0529 33.4567C41.107 33.9177 40.7435 34.9988 40.9064 35.3229C41.3838 35.8311 42.5252 35.9893 42.9062 36.36C42.874 36.732 42.6 36.8761 42.3898 37.049C41.5824 37.7131 41.0463 38.0461 39.8814 38.1811C37.416 38.467 34.5429 37.0615 33.0017 35.3808C32.4522 34.7816 31.9311 33.9831 31.4888 33.2241C31.2879 32.8794 31.2433 32.568 30.9198 32.4775C30.6908 32.8765 32 34.9014 32.2223 35.3831C32.569 36.1337 32.6863 36.1584 32.5008 36.9957C31.9712 39.3855 31.9085 38.7307 31.3515 38.209C31.0255 38.7096 31.0791 39.705 30.5743 40C30.0801 39.8601 30.0243 39.1772 29.7107 38.8463C29.3192 39.0559 29.1774 39.6482 28.5205 39.5155C28.2708 38.7943 28.8711 37.1675 28.6551 36.2898C28.5063 35.6846 27.9202 34.3285 27.6377 33.7291L21.3137 34.3801C20.5881 34.4354 19.6478 34.3486 18.9702 34.4659C19.1074 35.0286 19.6117 35.527 19.3987 36.2279C19.3153 36.5022 18.8056 37.7131 18.569 37.8403C18.2554 37.7251 18.2837 37.5973 18.1371 37.2626C17.7235 37.3507 17.1932 38.415 16.8452 38.7481C16.0579 39.5015 16.1739 38.2678 16.2322 37.7543C15.7344 37.8709 15.8793 38.0239 15.2604 37.9757C15.2404 36.7498 16.6687 36.3076 15.8003 35.3052C14.4379 33.7325 15.5011 34.5453 13.412 33.7701C10.2347 32.5912 7.85173 30.4801 7.85173 26.1303C7.85173 25.2086 8.02867 24.5663 8.09702 23.7437C8.16574 22.9167 8.51981 22.3126 8.65745 21.5443C7.96071 20.7124 6.71682 20.0868 5.73474 19.7491C4.95237 19.4801 4.72588 19.3709 3.86094 19.5809C3.43606 19.6842 2.23793 20.0223 1.93683 19.7518C1.90019 19.7168 1.61522 19.687 1.99055 19.1731C2.20166 18.884 2.2254 18.9821 2.36873 18.6343C1.95239 18.0091 -0.136125 16.5129 0.00702085 15.7406C0.649846 15.6051 1.9691 16.2618 2.30001 16.0376C2.69451 15.4523 2.0906 13.7129 2.67723 13.202C3.21963 13.2916 3.17312 14.4132 4.08192 15.6793C4.60457 15.3871 5.04635 14.727 5.6138 14.8598C5.95306 15.4077 5.55495 16.0653 5.73151 16.7417C8.87653 17.0159 9.05214 17.7069 10.1912 17.8973C10.7556 17.1298 11.0725 16.3763 11.5523 15.6136C11.8458 15.1474 12.8969 13.5401 12.9526 13.2774L11.8327 13.2151C11.3009 13.7543 11.1986 14.7373 10.5366 14.9366C10.0555 14.7101 9.80014 13.6886 9.56815 13.1019C9.33559 12.5138 9.42899 12.6577 8.81255 12.4477C8.48241 12.3353 8.18644 12.1928 7.86218 12.0162C5.18095 10.5559 3.2633 8.5492 3.45998 5.22477C3.53857 3.89735 4.32777 2.73757 5.5764 3.41704C5.94072 3.61524 6.04172 3.89166 6.30485 4.15858C6.61089 3.7804 6.70543 3.51822 7.21992 3.3466C9.09733 2.71953 9.30312 5.41063 9.52354 6.33842L16.8298 6.65243C16.636 5.16592 16.6324 4.69832 17.1247 3.31167C17.8899 1.15651 19.4541 -0.290698 21.7953 0.343395C22.3326 0.488818 22.7808 0.669554 23.1911 0.952617C23.7821 1.36041 23.6788 1.55083 24.0965 2.01558C24.4507 1.77998 24.7991 1.22429 25.3085 0.82409C27.6347 -1.00377 31.6475 0.221892 32.7178 4.37311C33.0364 5.60864 33.3838 7.33379 33.5739 8.62571L33.5742 8.62609Z" fill="#0B0B0B"/>
<path fill-rule="evenodd" clip-rule="evenodd" d="M13.5898 22.4578C13.4357 22.6592 13.145 22.9776 13.1319 23.4021C13.1173 23.871 13.4719 24.2026 13.9314 23.9661C14.3615 23.7445 14.8544 22.3736 13.59 22.4579L13.5898 22.4578ZM12.9462 22.494C13.0524 22.3793 13.272 22.1553 13.2741 21.8949C13.2764 21.5958 13.056 21.3464 12.7399 21.4745C12.4961 21.5734 11.9224 22.5337 12.9462 22.4938V22.494ZM17.5658 17.1494L16.3301 17.688C15.8885 17.2441 15.6326 16.4534 15.1147 16.3122C14.5571 16.5326 14.3124 17.7051 14.0677 18.2689L13.0768 18.2251C12.9149 19.2282 17.2877 20.4913 18.1101 20.677C18.2502 20.883 18.1471 20.7072 18.1665 20.9538C17.4477 21.3143 16.7519 22.3558 16.2109 22.8426C15.9417 23.0848 15.4462 23.52 15.2903 23.8212C15.0135 24.3564 15.0313 23.9295 14.5882 25.0469C13.9281 26.7115 14.147 27.7304 14.5313 29.488L15.057 30.6992C15.8583 32.204 16.6785 32.9408 17.764 34.0563C17.0811 34.0827 16.7009 34.0499 16.0734 33.9643C15.9637 33.6491 16.0428 33.7786 15.8108 33.5274C15.7501 33.4617 15.5671 33.2931 15.4418 33.2077C15.18 33.0289 14.8221 32.8874 14.5263 32.7399C12.7437 31.8512 11.3357 30.5223 10.4351 28.433C9.83538 27.0418 9.72527 25.1758 9.99599 23.5317C10.1268 22.7376 10.3315 22.0211 10.4822 21.2376C10.6117 20.5644 10.8545 19.2636 10.1701 19.0063L10.2202 18.7069C10.3563 18.3745 12.6719 14.3412 13.1699 13.7394C13.2521 13.6401 13.2464 13.6482 13.3011 13.5964C13.8841 14.4279 13.7719 16.2173 15.1067 13.952C15.4152 13.4284 15.4961 12.9803 16.134 12.8997C16.0199 13.0739 16.085 12.8442 16.0379 13.199C16.7888 13.5734 16.5826 13.5808 16.9786 14.2575C17.4088 14.9924 17.3499 16.1117 17.3008 17.0467C17.4477 17.1735 17.0777 17.2677 17.566 17.1494H17.5658Z" fill="#51B695"/>
<path fill-rule="evenodd" clip-rule="evenodd" d="M19.7786 20.4354C18.3766 20.4291 17.7315 20.1852 16.5768 19.7895C16.0251 19.6004 14.2905 19.0129 13.9216 18.7226C13.9755 18.6907 15.5794 18.4052 15.964 18.2588C17.886 17.5275 19.5127 16.8019 20.949 15.4202C22.3198 14.1017 24.6932 11.295 24.8138 8.77075C25.5138 8.85466 26.7009 10.8255 26.9395 11.9251C27.2784 13.486 27.1113 15.1922 26.4465 16.455C25.4828 18.2857 22.79 20.4489 19.7786 20.4354Z" fill="#FDCA01"/>
<path fill-rule="evenodd" clip-rule="evenodd" d="M27.4579 29.5728C27.5113 28.9734 27.0389 27.1902 26.813 26.7977L26.7031 26.7998C26.6355 26.8127 26.6002 26.8192 26.5303 26.8429C24.1491 27.6492 20.4759 28.4752 18.0547 28.5871C16.5434 28.6569 16.0112 28.4246 14.7656 28.2514C14.7882 28.7767 15.1055 29.396 15.2828 29.8342C15.7221 30.9197 15.7196 30.8366 16.3118 30.9057C17.5778 31.053 19.1285 31.0124 20.4068 30.9273C22.8478 30.765 25.4275 30.3902 27.4579 29.5728V29.5728ZM26.6275 26.2565C26.503 25.6545 25.7231 24.0017 25.3924 23.6709C24.7156 24.2591 21.9337 24.8736 20.7722 25.0369C17.653 25.4758 17.2952 25.0356 15.1024 25.0663C14.8429 25.8252 14.5583 26.689 14.6836 27.6317C16.6527 28.4832 20.477 27.7789 22.2929 27.3732L26.6273 26.2563L26.6275 26.2565ZM27.6724 33.2505L27.1202 33.3534C27.5648 32.639 27.8033 31.1246 27.576 30.1655C27.3406 30.212 26.7583 30.4571 26.5049 30.5353C26.1054 30.6589 25.6489 30.7496 25.1767 30.8449C22.1798 31.449 19.2231 31.7317 16.165 31.4363C16.394 32.3569 17.2855 33.0468 17.941 33.6505C18.7807 34.4238 20.0134 33.6266 21.3877 33.9345C21.0614 34.1724 18.3745 34.086 17.7639 34.057C16.6783 32.9414 15.8582 32.2048 15.0569 30.6999L14.5312 29.4886C14.1469 27.731 13.9282 26.7121 14.5881 25.0475C15.0312 23.9303 15.0134 24.3571 15.2902 23.8219C15.446 23.5204 15.9415 23.0855 16.2108 22.8432C16.7518 22.3564 17.4476 21.3149 18.1664 20.9544C18.1472 20.7078 18.2503 20.8836 18.11 20.6776C19.0237 20.8813 20.0085 20.7919 20.987 20.7515L20.4451 20.9088C19.8256 20.9347 19.247 20.8202 18.8625 21.0537C18.2623 21.4182 15.4781 23.7767 15.4495 24.5518C17.1735 24.7552 19.1114 24.7267 20.785 24.4486C23.6351 23.9747 23.2237 23.7824 25.1807 23.2759C24.6975 22.6805 24.2389 22.0719 23.7337 21.5617C22.3556 20.1701 22.3757 20.7423 21.4699 20.7137C21.607 20.5559 22.5456 20.3027 22.8163 20.2051C23.0086 20.4785 23.8202 21.0083 24.1067 21.2707C25.204 22.2761 25.3719 22.824 26.1339 23.8688C26.4988 24.369 26.5303 25.0096 26.7553 25.5597C26.8231 25.7253 26.8757 25.7574 26.9748 25.9138C27.2533 26.3537 27.5965 27.6595 27.6595 28.1662C27.741 28.8202 27.7978 28.6229 27.8965 29.0459C28.1342 30.0635 28.081 32.335 27.6717 33.2509L27.6724 33.2505Z" fill="#0B0B0B"/>
<path fill-rule="evenodd" clip-rule="evenodd" d="M27.4579 29.5729C25.4275 30.3905 22.8478 30.7651 20.4068 30.9274C19.1285 31.0123 17.5778 31.0531 16.3117 30.9058C15.7196 30.8369 15.7221 30.9198 15.2828 29.8343C15.1055 29.3961 14.7882 28.7768 14.7656 28.2515C16.0112 28.4247 16.5434 28.657 18.0547 28.5872C20.4761 28.4753 24.1492 27.6491 26.5303 26.843C26.6002 26.8193 26.6355 26.8128 26.7031 26.7999L26.813 26.7979C27.0389 27.1903 27.5113 28.9733 27.4579 29.5729V29.5729Z" fill="#FDCA01"/>
<path fill-rule="evenodd" clip-rule="evenodd" d="M33.6809 29.0695C34.0401 28.0688 31.6643 25.8931 33.9729 20.8711C35.2291 18.1384 38.1455 15.1494 41.3464 14.8083C43.2409 14.6063 43.3665 15.0724 44.1337 15.2639C44.4732 14.855 44.4939 14.7728 45.154 14.9157C44.9867 13.8947 44.3107 13.7098 45.8257 12.8825C46.2175 12.6685 45.9899 12.9149 46.1241 12.6243L46.6014 12.7678C46.4793 13.0127 46.6418 12.8752 46.3119 13.1021C46.2367 13.1539 46.0725 13.2295 45.9726 13.2849C44.4166 14.148 46.3656 14.1842 46.6665 15.8418C46.2718 15.7928 46.0347 15.6803 45.6928 15.5422L44.9844 15.3127C44.959 15.3127 45.0287 15.1067 44.7416 15.3797C44.5013 15.6962 44.6854 16.3584 44.6831 16.8061C43.2764 16.2494 43.482 14.5818 40.3662 16.376C38.4497 17.4796 36.6579 19.4077 35.518 21.1344C34.7349 22.3209 34.886 22.0407 34.8853 23.7496C34.8843 25.5199 34.6761 27.6251 33.6807 29.0697L33.6809 29.0695Z" fill="#02625A"/>
<path fill-rule="evenodd" clip-rule="evenodd" d="M26.6276 26.2563L22.2931 27.3731C20.4772 27.7788 16.6529 28.4832 14.6838 27.6317C14.5585 26.6889 14.8431 25.8251 15.1026 25.0663C17.2952 25.0355 17.6532 25.4756 20.7724 25.0369C21.9341 24.8734 24.7158 24.259 25.3926 23.6709C25.7233 24.0016 26.5032 25.6544 26.6277 26.2564L26.6276 26.2563Z" fill="#FDCA01"/>
<path fill-rule="evenodd" clip-rule="evenodd" d="M27.1203 33.3534C26.2922 33.5554 22.23 34.0302 21.388 33.9343C20.0137 33.6264 18.781 34.4238 17.9413 33.6503C17.2858 33.0468 16.3942 32.3569 16.1653 31.4361C19.2235 31.7317 22.1802 31.4488 25.177 30.8447C25.6491 30.7496 26.1055 30.6587 26.5052 30.5351C26.7584 30.4569 27.3409 30.2118 27.5763 30.1653C27.8033 31.1244 27.5651 32.6388 27.1205 33.3532L27.1203 33.3534Z" fill="#FDCA01"/>
<path fill-rule="evenodd" clip-rule="evenodd" d="M20.9872 20.7513L21.4704 20.7135C22.376 20.7422 22.3561 20.17 23.7342 21.5616C24.2393 22.0717 24.698 22.6804 25.1812 23.2757C23.2242 23.7822 23.6356 23.9746 20.7854 24.4484C19.1119 24.7266 17.174 24.755 15.45 24.5517C15.4786 23.7766 18.2626 21.4181 18.863 21.0536C19.2475 20.8202 19.826 20.9347 20.4456 20.9087L20.9874 20.7513H20.9872Z" fill="#FDCA01"/>
<path fill-rule="evenodd" clip-rule="evenodd" d="M16.0735 33.9646C10.2159 33.0825 7.14798 29.6009 8.61019 23.3456C8.78902 22.5805 9.03962 21.7288 9.28756 20.9786C9.43204 20.5417 10.0039 18.9802 10.2203 18.707L10.1702 19.0064C10.8546 19.2637 10.6118 20.5647 10.4823 21.2377C10.3315 22.021 10.1269 22.7375 9.99608 23.5318C9.72535 25.1761 9.83546 27.0419 10.4352 28.4331C11.3358 30.5224 12.7437 31.8512 14.5264 32.74C14.8222 32.8875 15.1801 33.029 15.4419 33.2078C15.5672 33.2933 15.7502 33.462 15.8109 33.5275C16.0431 33.7787 15.9638 33.6494 16.0735 33.9644V33.9646Z" fill="#02625A"/>
<path fill-rule="evenodd" clip-rule="evenodd" d="M17.5659 17.1497C17.0778 17.2679 17.4477 17.1738 17.3007 17.0469C17.3501 16.1118 17.4087 14.9924 16.9785 14.2577C16.5825 13.5811 16.7887 13.5737 16.0378 13.1993C16.0849 12.8445 16.0198 13.0742 16.1339 12.8999L16.7143 12.7585C16.862 13.0387 17.0729 13.3375 17.3292 13.6409C17.7975 14.195 17.7941 14.3249 18.2239 14.2847C18.9763 13.2369 18.5097 12.071 19.442 11.5793C19.9985 11.2858 19.9293 11.4354 20.6504 12.0108C21.0024 12.2918 21.3673 12.7325 21.9163 12.6977C22.419 11.974 22.3275 10.7744 22.4887 9.84544C22.9591 9.59104 23.9706 8.79311 24.4212 8.68091C24.4073 10.953 22.1735 13.6263 21.0743 14.7259C20.624 14.5635 20.5653 14.0859 19.8737 14.1616C19.4936 14.7456 19.5523 15.7772 19.2977 16.2059C19.1324 16.4844 17.904 17.0287 17.5661 17.1497H17.5659Z" fill="#E56767"/>
<path fill-rule="evenodd" clip-rule="evenodd" d="M9.71234 18.9222C9.26525 19.6381 9.12951 20.3859 8.81019 21.0639C8.36366 20.9304 7.71932 20.0189 6.04847 19.4272C4.29484 18.8062 4.08601 19.254 2.34073 19.4186L2.87364 18.6583C2.67619 18.0998 0.896178 16.742 0.59375 16.1635C1.27682 16.2506 1.82985 16.5692 2.5807 16.4955C2.85218 16.0388 2.69309 14.9454 2.77454 14.2069C3.14683 14.1543 2.80795 14.1788 2.95014 14.2979C2.69974 14.5993 2.73998 15.4261 2.86794 15.6887C2.92546 15.8068 4.55702 17.4814 5.26686 17.5608C8.21805 17.8905 8.42005 18.8964 9.71253 18.9224L9.71234 18.9222Z" fill="#045E5B"/>
<path fill-rule="evenodd" clip-rule="evenodd" d="M28.8766 38.9628C28.9216 38.0031 29.2827 36.8042 28.9401 35.9216C28.7538 35.4415 28.104 34.0427 28.0227 33.6264C28.3388 33.4352 28.8662 33.386 29.2573 33.2577C29.6837 33.118 30.0218 32.9264 30.4017 32.8108C30.5323 32.9458 30.5086 32.9057 30.6286 33.1333C30.6931 33.2558 30.7032 33.3017 30.7586 33.4257C31.1019 34.1919 32.2669 35.8782 32.1912 36.5835C32.1566 36.9047 31.9721 37.7934 31.7834 38.0491C31.4871 37.6952 31.6442 37.6174 31.1497 37.5796C30.7994 38.1087 30.8066 39.0067 30.467 39.371C30.2811 38.9985 30.1139 38.6619 29.8994 38.3923C29.2332 38.3838 29.4411 38.7115 28.8765 38.9624L28.8766 38.9628Z" fill="#51B695"/>
<path fill-rule="evenodd" clip-rule="evenodd" d="M40.4481 36.6686C40.305 36.5314 40.4542 36.6295 40.2013 36.4974L39.3533 36.0322C38.3239 35.356 37.5543 34.4442 36.7835 33.4606L35.3408 31.4943C34.729 30.6719 34.2536 29.4907 33.8999 29.3329C34.4262 28.7778 34.4681 28.0328 34.8924 27.4236L35.1521 28.1602C35.6839 30.1177 38.0443 33.6512 39.4771 34.8531C39.9788 35.274 40.6809 35.7496 41.2647 36.0322C41.5014 36.1467 41.7636 36.2067 41.9263 36.4484C41.5576 36.6523 40.944 36.7018 40.4481 36.6684V36.6686Z" fill="#02625A"/>
<path fill-rule="evenodd" clip-rule="evenodd" d="M40.4484 36.6685C38.4195 36.3792 36.7328 35.6538 35.4174 34.1484C34.8101 33.4534 34.4146 32.8068 33.9309 31.8758C32.8421 29.7806 33.6731 30.2404 33.9003 29.3328C34.254 29.4907 34.7292 30.672 35.3413 31.4942L36.7839 33.4604C37.5547 34.444 38.3242 35.3559 39.3537 36.0321L40.2018 36.4972C40.4544 36.6294 40.3054 36.5312 40.4486 36.6685H40.4484Z" fill="#51B695"/>
<path fill-rule="evenodd" clip-rule="evenodd" d="M9.71218 18.9224C8.41969 18.8964 8.21769 17.8905 5.2665 17.5608C4.55647 17.4814 2.92511 15.8068 2.86758 15.6887C2.73963 15.4259 2.69938 14.5993 2.94979 14.2979C3.06389 14.7727 3.62906 15.8104 3.87435 16.0731C4.60355 16.0978 4.78049 15.4918 5.34985 15.2923C5.35459 15.7961 5.17746 16.5908 5.35535 17.0453C5.66518 17.2196 7.27737 17.2806 7.82907 17.4283C8.62093 17.6401 9.35697 17.941 9.96145 18.2323L9.71218 18.9226V18.9224Z" fill="#53B493"/>
<path fill-rule="evenodd" clip-rule="evenodd" d="M28.2015 3.06794C28.7441 3.10704 28.8527 3.22399 29.3292 3.3603C29.4103 3.08616 29.5481 2.58344 29.8832 2.48738C30.0641 2.82189 29.7592 3.18526 29.6072 3.55395C29.6793 3.71703 30.7992 5.28517 30.7138 5.89971C30.3134 5.93028 30.2792 5.65613 30.142 5.32257C29.3142 3.31303 27.9642 2.77177 26.4546 4.37504C25.7111 5.16462 25.7261 5.73967 25.3251 5.8213C25.0332 5.21341 26.2218 4.28999 26.4675 3.6802C26.1969 3.49946 25.7738 3.09262 25.8453 2.70571C26.2793 2.74329 26.4756 3.25171 26.7739 3.49319C26.9178 3.45314 27.6616 3.13552 27.8256 3.0461C27.8551 2.66793 27.7854 2.20887 28.0694 2.06079C28.35 2.23811 28.2112 2.68748 28.2015 3.06794V3.06794Z" fill="#02130C"/>
<path fill-rule="evenodd" clip-rule="evenodd" d="M21.3468 3.54154L22.2818 3.79043C22.5383 3.50566 22.6267 3.05553 22.974 2.97181C23.2018 3.33157 22.7139 3.67652 22.6199 4.10349C22.9971 4.35314 23.8442 5.33826 23.7125 5.97634C23.0152 6.05133 23.1917 3.87036 20.9853 3.95123C19.9214 3.99015 19.2475 4.69942 18.8524 5.51843C18.5209 6.20568 18.8013 6.14569 18.3966 6.3099C18.3827 6.28883 18.3683 6.22808 18.365 6.24061C18.362 6.25314 18.3413 6.18802 18.3381 6.17037L18.3106 6.02494C18.3013 5.75745 18.5534 5.30029 18.6813 5.0738C18.9682 4.56577 19.0975 4.47028 19.4286 4.08356C19.3904 3.69987 19.036 3.27727 19.1742 2.92966C19.4967 2.95244 19.4665 2.87043 19.7561 3.83979C20.2009 3.74544 20.3998 3.62336 20.957 3.53034C21.0244 2.74494 20.9056 2.53895 21.2471 2.39771C21.4818 2.72424 21.3293 3.07812 21.3474 3.54173L21.3468 3.54154Z" fill="#02130C"/>
<path fill-rule="evenodd" clip-rule="evenodd" d="M18.5313 34.4996L16.6436 34.4865C16.7511 34.814 17.1841 35.3531 17.4172 35.7655C18.4506 37.5937 17.6016 36.1629 18.3154 36.8385C17.5116 36.6405 17.4235 37.7262 16.6058 38.3653C16.5737 37.9131 16.6886 37.6448 16.5183 37.2159C16.0651 37.1172 16.2444 37.2807 15.8519 37.3955C17.0381 35.0944 16.4412 35.8931 15.5596 34.353L18.5311 34.4992L18.5313 34.4996Z" fill="#025E54"/>
<path fill-rule="evenodd" clip-rule="evenodd" d="M18.3154 36.8388C17.6015 36.1632 18.4505 37.5941 17.4172 35.7658C17.1841 35.3533 16.751 34.8143 16.6436 34.4868L18.5312 34.4999C18.9538 35.5082 19.411 35.8233 18.5694 37.0843C18.446 37.0029 18.5379 37.0758 18.4173 36.9624C18.3864 36.9334 18.3499 36.877 18.3154 36.839V36.8388Z" fill="#51B695"/>
<path fill-rule="evenodd" clip-rule="evenodd" d="M33.2517 35.0428C32.9817 34.8031 32.3132 34.0131 32.2048 33.5178C32.6126 33.2858 33.3504 32.6289 33.7884 32.4753L34.5388 33.7145C34.3869 34.0169 33.5171 34.9185 33.2517 35.0428Z" fill="#F7C808"/>
<path fill-rule="evenodd" clip-rule="evenodd" d="M35.9064 35.2138C35.8673 35.5301 35.3762 36.272 35.1519 36.5294C34.7117 36.4671 33.857 35.7252 33.5925 35.3901C33.7081 35.0972 34.5247 34.3209 34.8066 34.0771C35.0652 34.2645 35.675 34.9571 35.9064 35.2138V35.2138Z" fill="#F7C808"/>
<path fill-rule="evenodd" clip-rule="evenodd" d="M28.9202 19.0661C30.1954 19.5517 29.4537 21.1877 28.2782 20.8193C27.2255 20.4896 27.5909 18.5598 28.9202 19.0661V19.0661Z" fill="#178278"/>
<path fill-rule="evenodd" clip-rule="evenodd" d="M41.8134 36.964C41.1524 37.9263 39.0847 37.9527 37.8196 37.6144C37.9071 37.2372 38.1287 36.9759 38.261 36.6152C39.6913 36.8026 39.3285 37.2224 41.8134 36.964V36.964Z" fill="#F7C808"/>
<path fill-rule="evenodd" clip-rule="evenodd" d="M37.3973 37.4713C36.7805 37.4605 35.9934 37.0293 35.4998 36.8074L36.2745 35.5371C36.6882 35.6918 37.5177 36.1885 37.9674 36.4248L37.3973 37.4715V37.4713Z" fill="#F7C808"/>
<path fill-rule="evenodd" clip-rule="evenodd" d="M33.5565 32.0392C33.3496 32.3248 32.1928 33.1436 31.9561 33.2117C31.7053 32.9532 31.4758 32.5691 31.3508 32.2156L33.071 30.8088L33.5565 32.0392V32.0392Z" fill="#F7C808"/>
<path fill-rule="evenodd" clip-rule="evenodd" d="M8.02369 4.43376C8.84365 4.91844 8.38459 6.70225 7.40953 6.22725C6.51744 5.7925 7.06211 3.86554 8.02369 4.43376Z" fill="#010605"/>
<path fill-rule="evenodd" clip-rule="evenodd" d="M30.4795 21.5463C31.4502 22.1454 30.7544 23.5372 29.8783 23.1378C29.052 22.7611 29.3797 20.8674 30.4795 21.5463Z" fill="#178278"/>
<path fill-rule="evenodd" clip-rule="evenodd" d="M5.33704 4.62317C6.2916 5.33263 5.51018 6.53532 4.73788 6.22549C3.74516 5.82738 4.52582 4.0204 5.33704 4.62317Z" fill="#010605"/>
<path fill-rule="evenodd" clip-rule="evenodd" d="M21.6786 12.2666C21.4384 12.1637 21.1588 11.9471 20.9547 11.7888C20.701 11.5921 20.4096 11.4427 20.2874 11.1384L22.0102 10.1436C22.0267 10.7712 21.9294 11.8512 21.6788 12.2666H21.6786Z" fill="#F9F9F9"/>
<path fill-rule="evenodd" clip-rule="evenodd" d="M13.5899 22.4578C14.8545 22.3735 14.3616 23.7446 13.9312 23.966C13.4718 24.2025 13.1173 23.8709 13.1318 23.4019C13.1449 22.9774 13.4355 22.6591 13.5897 22.4576L13.5899 22.4578Z" fill="#178278"/>
<path fill-rule="evenodd" clip-rule="evenodd" d="M36.8792 30.7938C36.6984 30.6249 36.2976 30.0477 36.2329 29.6942C36.6747 29.4805 37.4223 29.2219 37.9455 29.1194C37.8658 29.4385 37.0502 30.6203 36.8792 30.7937V30.7938Z" fill="#F8F8F6"/>
<path fill-rule="evenodd" clip-rule="evenodd" d="M38.4338 33.1738C38.2016 32.9591 37.8931 32.5582 37.802 32.2155C38.1377 31.9803 39.0632 31.6568 39.5194 31.6287C39.3962 31.8244 38.6698 33.052 38.4338 33.1738V33.1738Z" fill="#F8F8F6"/>
<path fill-rule="evenodd" clip-rule="evenodd" d="M18.0746 13.8144C17.7185 13.6367 17.207 13.0119 17.0977 12.6375L18.5215 12.0588L18.0746 13.8144Z" fill="#F8F8F6"/>
<path fill-rule="evenodd" clip-rule="evenodd" d="M16.173 10.7378C15.9809 10.5005 15.785 10.4811 15.7899 9.99302C15.7984 9.15105 17.0211 9.22623 16.9457 10.162C16.9051 10.6677 16.6271 10.7266 16.1728 10.7376L16.173 10.7378Z" fill="#178278"/>
<path fill-rule="evenodd" clip-rule="evenodd" d="M11.2901 13.1349C11.2785 13.5442 10.7843 14.2032 10.5635 14.4489C10.3344 14.0574 9.97879 13.2822 9.85938 12.8145L11.2901 13.1349Z" fill="#F8F8F6"/>
<path fill-rule="evenodd" clip-rule="evenodd" d="M14.1648 14.5655C13.9914 14.3388 13.6381 13.5415 13.6994 13.2284L15.115 13.1008C15.0168 13.4137 14.4362 14.421 14.1648 14.5657V14.5655Z" fill="#F8F8F6"/>
<path fill-rule="evenodd" clip-rule="evenodd" d="M15.8668 17.8405C15.5171 18.0845 15.0035 18.1798 14.519 18.2075C14.6221 17.7805 14.8705 17.088 15.1148 16.78C15.4387 16.931 15.75 17.5687 15.8668 17.8405V17.8405Z" fill="#F8F8F6"/>
<path fill-rule="evenodd" clip-rule="evenodd" d="M31.1396 19.7846C32.026 20.0894 31.4929 21.1072 30.8615 20.906C30.298 20.7264 30.3713 19.5201 31.1396 19.7846Z" fill="#178278"/>
<path fill-rule="evenodd" clip-rule="evenodd" d="M15.8136 8.64973L15.8318 9.24186C15.1482 9.74306 14.5334 9.31097 14.8862 8.52025C15.2583 8.39514 15.5782 8.49595 15.8136 8.64973Z" fill="#178278"/>
<path fill-rule="evenodd" clip-rule="evenodd" d="M34.5913 12.7585C34.454 12.6273 34.4294 12.6742 34.3494 12.3031C34.3137 12.1377 34.2877 11.9452 34.2754 11.7445L35.5519 11.2952C35.271 11.8444 34.8447 12.2676 34.5915 12.7585H34.5913Z" fill="#F4F4F4"/>
<path fill-rule="evenodd" clip-rule="evenodd" d="M12.9461 22.4942C11.9221 22.534 12.496 21.5736 12.7398 21.4749C13.0559 21.3467 13.2763 21.5962 13.274 21.8952C13.2719 22.1557 13.0522 22.3797 12.9461 22.4943V22.4942Z" fill="#178278"/>
<path fill-rule="evenodd" clip-rule="evenodd" d="M40.5059 35.0585C40.1786 34.9453 39.9305 34.7215 39.7327 34.5083C39.8874 34.2298 40.329 33.8642 40.6529 33.7537L40.5059 35.0585Z" fill="#F8F8F6"/>
<path fill-rule="evenodd" clip-rule="evenodd" d="M33.8405 9.84132L33.6841 9.03731L34.9107 8.68799C34.8095 8.95017 34.9118 8.76697 34.8044 8.92644L34.4216 9.33575C34.2086 9.54155 34.085 9.69342 33.8403 9.84151L33.8405 9.84132Z" fill="#F4F4F4"/>
<path fill-rule="evenodd" clip-rule="evenodd" d="M20.6831 15.0186C20.5716 15.2831 20.153 15.6968 19.7952 15.8257L20.0668 14.552C20.4336 14.6967 20.4993 14.7675 20.6831 15.0186Z" fill="#F4F4F4"/>
<path fill-rule="evenodd" clip-rule="evenodd" d="M15.074 10.1048C15.1818 10.1908 15.4182 10.2994 15.2035 10.6108C15.092 10.7721 14.8346 10.8055 14.6686 10.7078C14.2314 10.4499 14.5726 9.70517 15.074 10.1048V10.1048Z" fill="#178278"/>
<path fill-rule="evenodd" clip-rule="evenodd" d="M13.9331 9.60085L13.9422 9.25875C14.5581 9.04763 14.6 9.75349 13.9331 9.60085Z" fill="#19826D"/>
</svg>
