<svg width="49" height="40" viewBox="0 0 49 40" fill="none" xmlns="http://www.w3.org/2000/svg">
<path fill-rule="evenodd" clip-rule="evenodd" d="M13.0933 22.4451C13.0933 21.9538 13.1262 21.9523 13.3637 21.7017C13.6798 21.7606 13.693 21.7672 13.8132 22.1023C13.9487 22.48 14.037 23.2195 13.5798 23.5528C13.1482 23.343 13.0933 22.9906 13.0933 22.4451V22.4451ZM30.9211 21.6887C30.9211 21.3791 31.0035 21.1451 31.0948 20.9437C32.3964 20.6933 33.2379 23.1763 32.7456 24.4119C32.1264 24.4819 31.8148 24.2081 31.4307 23.4978C31.1396 22.9595 30.921 22.4173 30.921 21.6888L30.9211 21.6887ZM31.8033 18.1897C32.4596 17.7308 33.3004 19.9648 32.7359 20.3131C32.1546 20.6718 31.2716 18.5614 31.8033 18.1897ZM29.5418 18.5793C29.4246 18.2953 29.2371 17.8001 29.4453 17.5871C29.8672 17.1553 30.2874 18.7371 30.2474 19.2606C29.7922 19.1677 29.7166 19.003 29.5418 18.5793H29.5418ZM14.0378 9.58366C14.2297 8.98361 15.3726 8.95743 15.6806 9.4794C15.3453 10.0296 14.4433 9.90828 14.0378 9.58366ZM11.3871 8.50697C11.5632 7.98092 12.0681 7.91564 12.7141 7.90573C13.154 7.89905 14.0745 7.9447 13.9825 8.48057C13.88 9.07816 11.8497 9.33384 11.3871 8.50697ZM8.66625 6.86739C8.01017 6.7823 7.82764 6.27823 7.85565 5.59315C7.88127 4.96663 8.05497 4.51198 8.6496 4.38827C9.77057 4.47729 9.69419 6.5676 8.66623 6.86739H8.66625ZM5.34713 6.78996C4.78598 6.6487 4.5809 6.16604 4.61432 5.48518C4.64829 4.7914 4.85815 4.42178 5.41466 4.30558C6.52868 4.35578 6.46662 6.50429 5.34711 6.78996H5.34713ZM8.6018 12.2659L9.238 12.47L11.742 12.9654L12.1623 13.0178L13.0331 13.105L15.9025 13.1668L16.3508 13.1501L18.6767 12.8792L20.7102 12.3789L21.2911 12.1887L22.1084 11.9292C22.75 11.5443 23.8299 11.201 24.5828 10.7801L25.127 10.505L26.9397 9.42322L26.9942 9.98486C27.6137 11.6203 27.2157 15.3917 25.2312 16.8098C23.329 18.169 19.6417 18.6399 17.9568 18.0347C16.9286 17.9251 16.168 17.7521 15.2426 17.4319C14.3325 17.1171 13.6955 16.7058 12.9136 16.3766L12.4771 17.0927C12.1206 17.976 11.5717 18.8412 11.1675 19.8165C10.9184 20.4173 10.3573 22.2859 10.089 22.6394C10.0207 24.2209 8.10797 28.199 10.3809 31.3714C10.766 31.909 11.6334 32.7366 12.2918 33.0027C12.6982 33.2002 12.472 33.1982 12.8657 33.4238C13.0879 33.5511 13.3813 33.6475 13.6268 33.7439C14.2305 33.9812 14.7044 34.1633 15.3818 34.2582L15.4 34.2481L15.0413 31.5679L14.9953 31.0915L14.8704 28.9746L14.873 28.4344L15.0309 26.4387L15.1903 25.5926C15.4364 23.0177 17.2852 21.2909 20.0602 21.1553C21.6827 21.076 22.6489 21.3218 23.8922 21.9625C24.6902 22.3736 25.9574 23.3803 26.3224 24.0818L26.7662 24.5911C27.0709 25.0473 27.8858 26.2232 28.0547 26.8045L28.3912 27.4751L29.4693 30.1485L29.666 30.7117L30.5425 33.8438L30.6867 36.5992C30.3153 36.8786 28.4667 37.6894 27.9929 37.8469L29.853 37.8673L29.2333 39.1879L32.0885 38.411L32.499 39.3103L33.7012 38.0032L33.3929 32.8276C33.9036 32.6018 34.4467 32.2172 34.8815 32.0951C35.4891 31.6774 35.8704 31.336 36.2793 30.792L37.1559 31.2052L37.7009 31.4932L39.4534 32.206L39.962 32.3454L41.9247 32.7201L43.0549 32.7234C43.7279 32.6657 44.3261 32.3767 44.8764 32.3378C45.0888 32.0868 45.6919 31.7825 45.9357 31.5686C46.254 31.2894 46.5392 30.9581 46.7626 30.6669C47.2369 30.0486 47.6851 29.2498 47.9841 28.3072C47.3127 28.7656 46.8147 29.6416 45.8202 29.746C45.5309 30.0438 44.8396 30.0853 44.3777 30.0809L42.9026 29.921L41.5429 29.4739L39.9444 28.6478L38.9614 27.93C38.6875 27.8387 38.5276 27.6798 38.2674 27.4727C38.0287 27.2827 37.9519 27.257 37.6475 26.9804L37.9027 24.1091L37.841 21.6164C36.7424 21.1711 36.0408 21.3713 34.8856 21.4301C35.6027 21.066 37.2738 20.6231 38.1211 21.0381C39.3402 21.2459 40.226 22.2399 40.7404 23.054C41.0169 23.4917 41.2728 24.0067 41.4973 24.5639L42.0822 26.1526C42.0887 26.1362 42.1125 26.1985 42.1305 26.2191C42.7108 25.6565 43.0133 24.958 42.8546 23.7367L46.6084 24.4641C46.3431 23.5706 45.3556 23.1557 44.4605 22.8034C44.9677 22.4085 46.9863 22.2014 47.6174 21.7968C46.9751 21.2053 45.8836 21.3287 44.9197 21.2635C45.3831 20.7043 46.0899 20.2975 46.5404 19.7311C45.4964 19.6065 45.2867 19.7764 44.4813 20.1119L44.1217 19.6656C44.0284 19.5351 43.9113 19.3717 43.8071 19.2288C43.2461 18.4599 42.4834 17.7068 41.6884 17.1361C39.7792 15.7655 39.2281 16.0517 37.6093 15.5707L37.5479 15.0526L37.4851 14.8656C37.4776 14.8333 37.4684 14.8044 37.4615 14.7677L37.3252 13.221L37.0422 11.28C36.8687 11.0402 36.8411 10.4551 36.7999 10.1011L36.4697 8.56378C36.4176 8.47147 36.4174 8.51927 36.3555 8.29582C36.3541 8.29068 36.3184 8.05788 36.3124 8.02285C36.285 7.86151 36.2521 7.69695 36.222 7.53472C35.6109 6.11264 35.4858 4.90805 34.6523 3.53321C34.1186 2.65282 34.0686 2.63816 33.4018 1.9778C32.9941 1.57398 32.5428 0.977382 31.8326 0.88162C30.2254 0.800403 28.5483 0.902126 27.4121 1.7043C26.5706 2.2983 25.6038 3.6285 25.5923 5.13835C26.9473 5.38504 27.9568 5.75413 29.4827 5.89039C31.0911 6.03411 32.5284 5.81211 34.019 5.86013L33.4015 5.97864C33.1219 7.61065 31.4806 9.06818 29.5708 9.06677C27.4795 9.06523 26.5457 7.79543 25.8607 6.04251C25.4034 7.22794 25.3783 7.26227 24.6294 7.99529C24.094 8.51943 23.4359 8.90122 22.4372 8.89567C18.7897 8.87559 17.8943 3.46589 21.0578 1.721C22.7441 0.790833 25.0609 1.59814 25.3874 3.08734C25.4268 3.02381 25.4552 3.00682 25.5311 2.85138C25.6206 2.66799 25.5037 2.96653 25.5996 2.69489C25.6907 2.43687 25.6538 2.83726 25.658 2.35881C24.6423 -0.199907 19.9196 -0.508192 18.5934 3.25603C18.1055 4.64105 18.3226 5.29509 18.5503 6.64093L10.1964 6.45411C10.2781 5.30246 10.0771 4.08488 9.31897 3.58516C8.11248 2.78986 7.43352 4.28025 7.28644 4.4937C7.06759 4.8111 7.23133 4.60974 7.02878 4.78652C6.11652 1.72505 3.06579 3.81523 4.15581 7.66116C4.48395 8.819 5.14599 9.98869 5.79286 10.5664C6.11497 10.8541 6.66875 11.256 7.10753 11.523C7.63533 11.844 8.07882 11.963 8.60164 12.2659L8.6018 12.2659Z" fill="#51B695"/>
<path fill-rule="evenodd" clip-rule="evenodd" d="M25.1268 10.5754C24.9866 11.2917 24.3439 12.3764 23.955 13.0086C23.7686 13.3115 23.6655 13.4895 23.4059 13.6867L23.1276 13.5336C22.7332 13.2845 22.3022 12.4808 22.1081 11.9996L21.2908 12.2591C20.9698 12.9892 20.3409 14.0382 19.9513 14.5128L19.6429 14.3474C19.2422 14.0982 18.853 13.3314 18.6765 12.9497L16.3506 13.2206C16.0644 14.0817 15.336 15.2101 14.9219 15.8299L14.518 15.7114C14.038 15.1423 13.2533 13.9576 13.0329 13.1755L12.1621 13.0882C12.0079 13.658 11.2571 14.5301 11.31 14.925C11.4359 15.3915 12.5191 16.123 12.9133 16.447C13.6952 16.7762 14.3323 17.1875 15.2423 17.5024C16.1678 17.8226 16.9284 17.9955 17.9566 18.1051C20.8506 18.1724 23.083 17.8933 24.8718 16.4101C26.3561 15.1793 27.0902 12.8318 26.9939 10.0553L26.9395 9.49365L25.1268 10.5754V10.5754Z" fill="#F7CA18" stroke="black" stroke-width="0.352799" stroke-miterlimit="22.9256"/>
<path fill-rule="evenodd" clip-rule="evenodd" d="M10.0888 22.6396C10.3572 22.286 10.9182 20.4174 11.1673 19.8166C11.5716 18.8413 12.1205 17.9762 12.477 17.0928C10.2936 17.4206 8.06117 16.9425 6.60222 15.4846C6.21328 15.0961 5.84708 14.3817 5.47618 14.022C4.60859 14.725 5.15739 15.6451 5.22724 16.5572L1.4322 16.7012C1.91115 17.5436 2.97898 17.6486 4.04603 17.839L1.03125 19.4654C2.51996 19.8734 2.71135 19.5491 3.95119 19.3384C3.59293 19.9922 3.05347 20.5835 2.63363 21.2567C3.86692 21.1582 4.16158 20.629 4.61182 20.3646C5.09244 20.5999 5.53579 21.27 7.02493 21.8691C8.14767 22.3209 8.99911 22.322 10.0889 22.6396H10.0888Z" fill="#12816A"/>
<path fill-rule="evenodd" clip-rule="evenodd" d="M24.5365 6.23818C24.0297 8.22542 20.905 7.68435 21.4695 5.50214C21.9824 3.51945 25.0388 4.26862 24.5365 6.23818ZM33.4017 5.97877C32.5128 6.18863 31.6014 6.29062 30.6513 6.29197L30.4238 6.53824C30.0527 8.00245 27.5867 8.1871 27.3829 6.13323C27.0088 6.03881 24.8931 5.77708 24.7899 5.37381C24.7988 4.65223 25.0112 3.5279 25.3876 3.0875C25.0611 1.5983 22.7443 0.790988 21.0579 1.72115C17.8945 3.46604 18.7899 8.87574 22.4373 8.89582C23.436 8.90135 24.0942 8.51959 24.6296 7.99544C25.3784 7.26242 25.4035 7.22809 25.8609 6.04267C26.5459 7.79556 27.4796 9.06538 29.571 9.06693C31.4808 9.06834 33.1221 7.61078 33.4017 5.9788L33.4017 5.97877Z" fill="white"/>
<path fill-rule="evenodd" clip-rule="evenodd" d="M15.0415 31.5678L15.4003 34.248C19.3705 35.4828 26.5778 35.136 30.5427 33.8437L29.6662 30.7117C29.0432 30.757 26.2396 32.1543 22.6572 32.5024C21.2978 32.6345 19.8109 32.6181 18.5093 32.432C17.125 32.2341 16.2053 31.8553 15.0415 31.5678L15.0415 31.5678Z" fill="#F7CA18"/>
<path fill-rule="evenodd" clip-rule="evenodd" d="M15.1904 25.5925L15.1948 25.8628C17.5863 26.0803 18.9714 26.4214 21.4567 25.8931C23.2767 25.5062 24.926 24.8804 26.3225 24.0817C25.9575 23.3802 24.6903 22.3736 23.8924 21.9625C22.649 21.3218 21.6829 21.076 20.0603 21.1552C17.2853 21.2908 15.4365 23.0177 15.1905 25.5925H15.1904Z" fill="#F7CA18"/>
<path fill-rule="evenodd" clip-rule="evenodd" d="M14.8706 28.9746L14.9955 31.0915C15.3469 30.9361 17.0949 31.6207 18.3656 31.8093C21.009 32.2018 23.5947 31.9357 26.1529 31.2391C27.1516 30.9671 28.6807 30.2807 29.4695 30.1485L28.3914 27.4751L25.463 28.6016C24.4378 28.9381 23.34 29.2032 22.2316 29.3655C18.5554 29.9039 17.8253 29.3657 14.8706 28.9746V28.9746Z" fill="#F7CA18"/>
<path fill-rule="evenodd" clip-rule="evenodd" d="M15.0309 26.4389L14.873 28.4346C15.321 28.3725 17.4496 28.8538 18.2232 28.9198C19.4605 29.0252 20.8729 28.966 22.0862 28.7877C23.2774 28.6127 27.5918 27.5054 28.0548 26.8047C27.8858 26.2234 27.071 25.0475 26.7662 24.5913L24.2962 25.7055C20.6579 27.069 18.7089 26.9213 15.0309 26.4389H15.0309Z" fill="#F7CA18"/>
<path fill-rule="evenodd" clip-rule="evenodd" d="M15.3818 34.2584C14.7045 34.1635 14.2306 33.9814 13.6268 33.7441C13.3813 33.6477 13.088 33.5513 12.8658 33.424C12.4721 33.1985 12.6982 33.2004 12.2919 33.0029C12.553 33.4527 12.4251 34.2238 12.4251 34.901C11.6209 35.1649 10.4346 35.6828 9.69604 36.0535L11.4456 36.1142C11.2875 36.5652 11.0054 37.0908 10.7261 37.4584L13.6916 36.6843L14.0121 37.5867C14.1991 37.4689 15.0948 36.575 15.2059 36.3903C15.5248 35.8607 15.2535 34.9041 15.3819 34.2584H15.3818Z" fill="#13806A"/>
<path fill-rule="evenodd" clip-rule="evenodd" d="M14.9951 31.0914L15.041 31.5678C16.2048 31.8552 17.1245 32.234 18.5089 32.4319C19.8104 32.6181 21.2973 32.6344 22.6568 32.5024C26.2391 32.1543 29.0427 30.757 29.6657 30.7116L29.4691 30.1484C28.6803 30.2806 27.1512 30.967 26.1526 31.239C23.5943 31.9356 21.0087 32.2017 18.3652 31.8092C17.0945 31.6206 15.3465 30.936 14.9951 31.0914V31.0914Z" fill="#0B0B0B"/>
<path fill-rule="evenodd" clip-rule="evenodd" d="M14.8732 28.4344L14.8706 28.9746C17.8253 29.3657 18.5554 29.9038 22.2316 29.3654C23.34 29.2031 24.4378 28.938 25.463 28.6016L28.3914 27.475L28.0549 26.8044C27.5919 27.5052 23.2775 28.6125 22.0864 28.7875C20.873 28.9658 19.4606 29.025 18.2233 28.9195C17.4497 28.8535 15.3211 28.3723 14.8732 28.4344L14.8732 28.4344Z" fill="#0B0B0B"/>
<path fill-rule="evenodd" clip-rule="evenodd" d="M24.5363 6.23815C25.0386 4.26859 21.9822 3.51944 21.4693 5.50211C20.9048 7.68433 24.0295 8.22539 24.5363 6.23815Z" fill="black"/>
<path fill-rule="evenodd" clip-rule="evenodd" d="M15.1902 25.5926L15.0308 26.4387C18.7088 26.9212 20.6578 27.0688 24.296 25.7053L26.7661 24.5911L26.3223 24.0818C24.9258 24.8805 23.2764 25.5063 21.4565 25.8932C18.9712 26.4215 17.586 26.0803 15.1946 25.8628L15.1902 25.5926L15.1902 25.5926Z" fill="#0B0B0B"/>
<path fill-rule="evenodd" clip-rule="evenodd" d="M18.2354 18.2671C19.9203 18.8724 23.6075 18.4015 25.5097 17.0422C27.4942 15.6241 27.8922 11.8527 27.2727 10.2173C27.369 12.9938 26.6349 15.3413 25.1505 16.5721C23.3618 18.0553 21.1294 18.3344 18.2354 18.2671V18.2671Z" fill="#13806A"/>
<path fill-rule="evenodd" clip-rule="evenodd" d="M39.7339 34.3745C40.2435 34.4846 40.6713 34.6728 41.2243 34.6248L42.3165 34.6634L42.2366 32.7663L41.9247 32.7201L39.962 32.3455L39.7339 34.3745Z" fill="#F7CA18"/>
<path fill-rule="evenodd" clip-rule="evenodd" d="M30.9209 21.6889C30.9209 22.4175 31.1395 22.9596 31.4306 23.4979C31.8147 24.2082 32.1263 24.4821 32.7455 24.4121C33.2378 23.1765 32.3963 20.6935 31.0947 20.9439C31.0033 21.1453 30.9209 21.3793 30.9209 21.6889L30.9209 21.6889Z" fill="#11956F"/>
<path fill-rule="evenodd" clip-rule="evenodd" d="M47.984 28.3072C47.6849 29.2499 47.2368 30.0486 46.7624 30.667C46.539 30.9581 46.2539 31.2894 45.9356 31.5686C45.6918 31.7825 45.0887 32.0868 44.8762 32.3379C44.6752 32.7834 45.2243 33.2436 45.2379 33.7724C46.1811 33.1987 46.7274 32.4463 47.2559 31.2685C47.666 30.3544 48.1384 29.1082 48.2126 27.8965L47.984 28.3073V28.3072Z" fill="#EABF16"/>
<path fill-rule="evenodd" clip-rule="evenodd" d="M37.1822 33.3619C37.4605 33.6155 38.4633 34.0643 38.9703 34.0684C39.6058 34.1598 39.1369 34.1069 39.3219 33.9712C39.4263 33.4996 39.5646 32.679 39.4532 32.2062L37.7007 31.4934C37.4323 31.8463 37.1777 32.9799 37.1822 33.3619Z" fill="#F7CA18"/>
<path fill-rule="evenodd" clip-rule="evenodd" d="M43.055 32.7235L42.6748 32.8091L42.7478 34.5467L43.2301 34.5922C43.8352 34.6186 44.979 34.105 45.2382 33.7724C45.2245 33.2436 44.6754 32.7834 44.8765 32.3379C44.3261 32.3767 43.728 32.6658 43.055 32.7235H43.055Z" fill="#F7CA18"/>
<path fill-rule="evenodd" clip-rule="evenodd" d="M14.5183 15.6411C15.0098 14.9055 15.5384 14.1168 15.9026 13.1669L13.0332 13.1052C13.2536 13.8873 14.0383 15.072 14.5183 15.6411V15.6411Z" fill="white"/>
<path fill-rule="evenodd" clip-rule="evenodd" d="M30.4237 6.53833C30.3876 6.18386 30.43 6.28818 29.9108 6.28054C29.6165 6.27613 29.3347 6.29717 29.0302 6.28341C28.4533 6.25737 27.9292 6.1571 27.3828 6.1333C27.5865 8.18717 30.0526 8.00253 30.4237 6.53831V6.53833Z" fill="black"/>
<path fill-rule="evenodd" clip-rule="evenodd" d="M22.1084 11.9294C22.3025 12.4106 22.7335 13.2143 23.1279 13.4633C23.5716 12.7806 24.2884 11.801 24.5828 10.7803C23.83 11.2012 22.7501 11.5445 22.1084 11.9294Z" fill="white"/>
<path fill-rule="evenodd" clip-rule="evenodd" d="M34.8818 32.0953C35.0547 32.3214 36.1658 32.9275 36.4562 33.0215L36.7436 32.9955L37.1562 31.2055L36.2796 30.7922C35.8707 31.3363 35.4894 31.6777 34.8818 32.0953V32.0953Z" fill="#F7CA18"/>
<path fill-rule="evenodd" clip-rule="evenodd" d="M11.7421 12.9653L9.23804 12.47L10.6626 14.8168C11.1043 14.3469 11.473 13.6535 11.7421 12.9653V12.9653Z" fill="white"/>
<path fill-rule="evenodd" clip-rule="evenodd" d="M11.3103 14.8545C11.2573 14.4596 12.0081 13.5876 12.1623 13.0178L11.742 12.9654C11.473 13.6536 11.1043 14.347 10.6626 14.8169L9.23801 12.47L8.60181 12.2659L10.5617 15.5592C10.8987 15.3363 10.7678 15.098 11.3103 14.8545V14.8545Z" fill="#C5A113"/>
<path fill-rule="evenodd" clip-rule="evenodd" d="M37.9028 24.1093L39.6137 24.0498C39.2598 23.7999 38.3196 23.257 37.9975 23.1247C37.9833 22.7495 37.9911 22.3837 37.9812 22.0103C37.965 21.3878 37.8898 21.2833 38.1212 21.0383C37.274 20.6233 35.6028 21.0662 34.8857 21.4303C36.041 21.3715 36.7426 21.1713 37.8412 21.6166L37.9028 24.1093V24.1093Z" fill="#0A754B"/>
<path fill-rule="evenodd" clip-rule="evenodd" d="M11.387 8.50707C11.8495 9.33394 13.8798 9.07826 13.9823 8.48067C14.0743 7.94478 13.1538 7.89915 12.7139 7.90583C12.0679 7.91574 11.563 7.98102 11.387 8.50707V8.50707Z" fill="#11956F"/>
<path fill-rule="evenodd" clip-rule="evenodd" d="M31.803 18.1898C31.2713 18.5615 32.1543 20.6719 32.7356 20.3132C33.3001 19.9649 32.4593 17.7309 31.803 18.1898Z" fill="#11956F"/>
<path fill-rule="evenodd" clip-rule="evenodd" d="M18.6768 12.8793C18.8534 13.261 19.2426 14.0278 19.6432 14.2771C19.9492 13.6872 20.5061 13.0957 20.7103 12.3789L18.6768 12.8793L18.6768 12.8793Z" fill="white"/>
<path fill-rule="evenodd" clip-rule="evenodd" d="M5.34715 6.79005C6.46664 6.50437 6.52872 4.35586 5.41469 4.30566C5.16504 5.48118 5.15296 5.59014 5.34715 6.79005Z" fill="black"/>
<path fill-rule="evenodd" clip-rule="evenodd" d="M8.66625 6.86754C9.69419 6.56778 9.77059 4.47747 8.64962 4.38843C8.48575 5.21369 8.33383 6.14083 8.66625 6.86754Z" fill="black"/>
<path fill-rule="evenodd" clip-rule="evenodd" d="M44.3779 30.081C44.8398 30.0854 45.5311 30.0439 45.8204 29.7462L45.5197 27.4749C45.0813 28.174 44.883 29.2629 44.378 30.081H44.3779Z" fill="#087146"/>
<path fill-rule="evenodd" clip-rule="evenodd" d="M37.3252 13.221L37.4615 14.7677C37.4683 14.8043 37.4776 14.8333 37.4851 14.8656L37.5479 15.0525C37.5248 14.5229 37.4641 14.5792 37.8401 14.2903C38.0352 14.1404 38.2392 14.0059 38.4601 13.8309C38.7937 13.5666 39.3876 13.1068 39.5569 12.8364L37.3252 13.221L37.3252 13.221Z" fill="#087146"/>
<path fill-rule="evenodd" clip-rule="evenodd" d="M41.543 29.474L42.9027 29.9211L43.0927 27.5208C42.4246 28.1874 42.1693 29.2816 41.543 29.474Z" fill="#087146"/>
<path fill-rule="evenodd" clip-rule="evenodd" d="M24.5828 10.7802C24.2884 11.8009 23.5716 12.7805 23.1279 13.4633L23.4062 13.6164C23.6658 13.4192 23.7689 13.2412 23.9553 12.9383C24.3442 12.3061 24.9869 11.2214 25.127 10.5051L24.5828 10.7802H24.5828Z" fill="#C5A213"/>
<path fill-rule="evenodd" clip-rule="evenodd" d="M8.66609 6.86754C8.33366 6.14085 8.48559 5.21371 8.64946 4.38843C8.05481 4.51214 7.88112 4.96679 7.85551 5.5933C7.82749 6.27838 8.01003 6.78245 8.66611 6.86754H8.66609Z" fill="#087146"/>
<path fill-rule="evenodd" clip-rule="evenodd" d="M5.3471 6.79005C5.15291 5.59017 5.16499 5.4812 5.41465 4.30566C4.85812 4.42186 4.64829 4.79149 4.61431 5.48526C4.5809 6.16613 4.78596 6.64879 5.34713 6.79005H5.3471Z" fill="#087146"/>
<path fill-rule="evenodd" clip-rule="evenodd" d="M38.9614 27.9302L39.9444 28.648L40.6175 26.6035C40.0886 27.0106 39.5438 27.5396 38.9614 27.9302Z" fill="#087146"/>
<path fill-rule="evenodd" clip-rule="evenodd" d="M13.0933 22.4451C13.0933 22.9906 13.1482 23.343 13.5798 23.5528C14.037 23.2195 13.9486 22.48 13.8132 22.1023C13.693 21.7672 13.6798 21.7606 13.3637 21.7017C13.1262 21.9523 13.0933 21.9538 13.0933 22.4451V22.4451Z" fill="#11956F"/>
<path fill-rule="evenodd" clip-rule="evenodd" d="M14.5181 15.6409L14.922 15.7594C15.3361 15.1397 16.0645 14.0113 16.3507 13.1501L15.9024 13.1668C15.5382 14.1166 15.0096 14.9053 14.5181 15.6409V15.6409Z" fill="#C5A213"/>
<path fill-rule="evenodd" clip-rule="evenodd" d="M41.2242 34.625C41.5538 34.8315 43.1405 34.8361 43.2299 34.5923L42.7475 34.5468L42.6745 32.8092L43.0547 32.7236L41.9244 32.7202L42.2364 32.7665L42.3162 34.6636L41.2241 34.625H41.2242Z" fill="#BA9911"/>
<path fill-rule="evenodd" clip-rule="evenodd" d="M36.4561 33.0213L36.7928 33.2699C36.9405 33.332 37.0077 33.3277 37.1826 33.3618C37.1781 32.9798 37.4327 31.8462 37.7011 31.4933L37.1561 31.2053L36.7435 32.9953L36.4561 33.0213V33.0213Z" fill="#BA9911"/>
<path fill-rule="evenodd" clip-rule="evenodd" d="M20.7101 12.3789C20.506 13.0956 19.9491 13.6872 19.6431 14.2771L19.9515 14.4424C20.3411 13.9678 20.97 12.9188 21.291 12.1887L20.7101 12.3789V12.3789Z" fill="#C5A213"/>
<path fill-rule="evenodd" clip-rule="evenodd" d="M38.9702 34.0683C39.1021 34.1944 38.9272 34.1526 39.3302 34.2892C39.3921 34.3102 39.6502 34.3559 39.7336 34.3746L39.9617 32.3455L39.4532 32.2061C39.5646 32.6788 39.4262 33.4995 39.3219 33.9711C39.1369 34.1067 39.6057 34.1597 38.9702 34.0683H38.9702Z" fill="#B89710"/>
<path fill-rule="evenodd" clip-rule="evenodd" d="M30.2473 19.2607C30.2872 18.7373 29.8671 17.1554 29.4451 17.5872C29.237 17.8002 29.4245 18.2954 29.5417 18.5794C29.7164 19.0031 29.7921 19.1678 30.2473 19.2607H30.2473Z" fill="#11956F"/>
<path fill-rule="evenodd" clip-rule="evenodd" d="M14.0376 9.58368C14.4431 9.90831 15.345 10.0296 15.6804 9.47943C15.3724 8.95746 14.2295 8.98363 14.0376 9.58368Z" fill="#11956F"/>
<path fill-rule="evenodd" clip-rule="evenodd" d="M36.7998 10.1012C36.8411 10.4552 36.8687 11.0403 37.0422 11.2801L37.0295 10.9777C37.5618 10.691 37.9682 10.2458 38.4029 9.82471L36.7998 10.1013V10.1012Z" fill="#087146"/>
<path fill-rule="evenodd" clip-rule="evenodd" d="M36.2222 7.53468C36.2523 7.69693 36.2851 7.8615 36.3126 8.02281C36.3186 8.05784 36.3543 8.29064 36.3557 8.29578C36.4176 8.51923 36.4177 8.47143 36.4699 8.56374L36.4406 8.16602C36.8137 8.00497 37.2246 7.60866 37.4547 7.30811L36.2222 7.53466V7.53468Z" fill="#086B45"/>
<path fill-rule="evenodd" clip-rule="evenodd" d="M41.1501 35.0167C40.5932 35.041 40.191 34.8689 39.6521 34.752C39.5105 34.7212 39.3411 34.7006 39.2065 34.655C39.0408 34.5988 38.8814 34.5569 38.7679 34.4377C38.2344 34.3603 37.418 34.0293 37.015 33.7237C36.8867 33.7012 36.7828 33.6846 36.643 33.6259L36.6005 33.6079L36.2724 33.3658C35.9274 33.2344 35.1916 32.8357 34.797 32.5341C34.5523 32.6363 34.2886 32.7966 34.0774 32.9127C33.9837 32.9643 33.8894 33.0153 33.7938 33.0639L34.0965 38.144L32.3892 40L31.8734 38.8698L28.529 39.7798L29.2484 38.247L25.6842 38.2077L27.8711 37.4806C28.3041 37.3366 28.7785 37.1163 29.1953 36.9278C29.4628 36.8068 29.7298 36.6824 29.992 36.5501C30.0792 36.5062 30.1888 36.4527 30.2893 36.396L30.1827 34.3584C26.2206 35.5082 19.6966 35.8104 15.7292 34.7451C15.7299 34.8901 15.7385 35.0359 15.744 35.1664C15.7636 35.6323 15.7857 36.1755 15.5366 36.5893C15.3801 36.8492 14.4776 37.7496 14.2179 37.9133L13.8097 38.1705L13.4462 37.1472L9.74296 38.114L10.4186 37.2247C10.5818 37.0098 10.74 36.7473 10.8715 36.4806L8.17106 36.3869L9.52266 35.7084C10.3035 35.3164 11.2048 34.9159 12.048 34.6211C12.0678 34.2048 12.1052 33.6094 12.001 33.2955C11.3122 32.9591 10.4843 32.1789 10.067 31.5964C8.94558 30.0311 8.73615 28.2248 8.97393 26.3601C9.06996 25.6068 9.23501 24.8732 9.41047 24.1355C9.49668 23.7732 9.6173 23.3286 9.67373 22.9276C9.32775 22.8418 8.9796 22.7771 8.62772 22.7094C8.02003 22.5923 7.45781 22.4594 6.88086 22.2273C6.274 21.9832 5.72661 21.6837 5.20639 21.2876C5.04344 21.1636 4.82202 20.9619 4.62312 20.822C4.45856 20.9451 4.29794 21.0896 4.12114 21.2002C3.67436 21.4796 3.1862 21.5999 2.66443 21.6416L1.9006 21.7026L2.30604 21.0524C2.54852 20.6634 2.8389 20.2971 3.11101 19.9229C2.98289 19.9527 2.85454 19.9803 2.7251 20.0025C2.09992 20.1094 1.53441 20.0035 0.929312 19.8377L0 19.5831L2.89753 18.0198C2.17294 17.854 1.48443 17.5742 1.09661 16.892L0.782431 16.3394L4.78459 16.1875C4.78311 16.18 4.78163 16.1725 4.78024 16.1651C4.59744 15.2327 4.37046 14.421 5.23314 13.7218L5.4993 13.5062L5.74517 13.7447C6.1876 14.1739 6.45095 14.7875 6.87519 15.2114C8.26527 16.6003 10.3489 16.9793 12.2426 16.7356L12.4052 16.4687C12.0188 16.1736 11.5062 15.7953 11.1939 15.4109C11.177 15.4346 11.1594 15.4618 11.1397 15.4934C11.0379 15.6566 10.9375 15.7737 10.7748 15.8814L10.437 16.105L8.32253 12.5518C7.86044 12.2983 7.36527 12.1317 6.90704 11.853C6.44571 11.5724 5.93848 11.2143 5.53578 10.8546C4.7254 10.1307 4.08013 8.81012 3.78435 7.76658C3.47566 6.67741 3.40937 5.42641 3.8622 4.36588C4.17125 3.64192 4.80191 2.91753 5.65483 2.9306C6.35134 2.94126 6.82867 3.42877 7.13056 4.00692C7.14544 3.98227 7.16062 3.958 7.17619 3.93427C7.31149 3.72849 7.46756 3.53255 7.65276 3.36931C8.2269 2.86341 8.89526 2.84346 9.53153 3.26288C10.3993 3.83485 10.6119 5.05889 10.5986 6.07702L18.0897 6.24445C17.8908 5.10781 17.7806 4.40133 18.2293 3.12781C18.7922 1.53014 20.0372 0.376091 21.7279 0.102925C23.0973 -0.118293 24.6367 0.301754 25.5361 1.40139C25.6406 1.52915 25.7346 1.66445 25.8173 1.8064C25.8751 1.75593 25.9299 1.69975 25.9863 1.63782C26.189 1.41486 26.3536 1.21 26.6002 1.02675C27.0627 0.683232 27.6022 0.438214 28.1524 0.273517C28.8707 0.0585513 29.672 -0.0391826 30.4207 0.0144467C30.932 0.0510885 31.5929 0.175088 32.0089 0.519857C32.7477 0.667634 33.1611 1.19602 33.6735 1.70353C33.9002 1.92811 34.1441 2.15446 34.3501 2.39793C34.5909 2.68255 34.7895 3.01504 34.9824 3.33314C35.3956 4.0147 35.6643 4.70475 35.9079 5.4594C36.0862 6.01165 36.2493 6.56002 36.4603 7.09848L38.3705 6.74724L37.761 7.54303C37.5332 7.84049 37.1922 8.17376 36.8439 8.38859L36.8526 8.509L37.0994 9.65778L39.5707 9.23149L38.6716 10.1021C38.2685 10.4925 37.8948 10.8918 37.4249 11.1926L37.4271 11.244L37.65 12.7733L40.3427 12.3093L39.8841 13.0415C39.6602 13.3991 39.0447 13.8603 38.6998 14.1336C38.496 14.2951 38.2809 14.4386 38.0752 14.5966C38.0352 14.6274 37.9616 14.6788 37.9141 14.7213C37.913 14.8083 37.9279 14.9381 37.9327 15.0198L37.9622 15.2684C38.4214 15.3884 38.8741 15.4654 39.3398 15.5719C40.3398 15.8003 41.0834 16.2267 41.9135 16.8226C42.7368 17.4136 43.5219 18.1832 44.1188 19.0013C44.2232 19.1443 44.3264 19.2882 44.4293 19.4322L44.5998 19.6438C45.3269 19.3392 45.626 19.2332 46.5861 19.3477L47.2735 19.4297L46.8426 19.9715C46.5525 20.3362 46.1864 20.6171 45.838 20.9099C46.5769 20.9359 47.3372 21.014 47.8788 21.5129L48.2471 21.8519L47.8257 22.122C47.4122 22.3871 46.6516 22.5459 46.1679 22.6593C46.0279 22.6922 45.7564 22.7514 45.481 22.8232C46.15 23.1558 46.7571 23.609 46.9784 24.3543L47.1594 24.9643L43.2812 24.2128C43.3082 25.0863 43.0787 25.8376 42.3991 26.4965L42.3381 26.5557L42.0695 27.2361L41.1391 24.7083C40.9384 24.2104 40.7009 23.7145 40.4139 23.2604C39.9344 22.5017 39.2265 21.7512 38.3426 21.4861C38.3449 21.6527 38.3655 21.9398 38.367 22.0001C38.3747 22.2911 38.3715 22.5822 38.3767 22.8732C38.6051 22.9859 38.8388 23.123 39.0463 23.2432C39.3102 23.396 39.587 23.5584 39.836 23.7343L40.7725 24.3957L38.2569 24.4833L38.0495 26.8172C38.2 26.94 38.3503 27.0454 38.5077 27.1707C38.6362 27.2729 38.772 27.3997 38.9206 27.4877C39.4284 27.1203 39.8855 26.6794 40.3819 26.2974L41.3767 25.5318L40.4139 28.4561L41.546 29.0411C41.6733 28.9436 41.7876 28.7712 41.8576 28.6618C42.0646 28.3378 42.2356 27.9984 42.4587 27.6822C42.5673 27.528 42.6861 27.3808 42.8197 27.2475L43.5599 26.5089L43.317 29.5777L44.168 29.6698C44.5742 28.9032 44.7347 27.9994 45.1922 27.2697L45.7615 26.3618L46.1466 29.2699C46.7396 29.0324 47.1764 28.4235 47.6888 28.0436L48.7018 26.2232L48.5981 27.92C48.5247 29.1186 48.096 30.3394 47.6082 31.4266C47.1051 32.5476 46.5388 33.4156 45.4915 34.0697C45.0841 34.5117 44.0168 34.9295 43.3751 34.975C43.0515 35.173 42.4889 35.1674 42.1904 35.1632C41.9105 35.1591 41.4501 35.1348 41.1499 35.0166L41.1501 35.0167ZM34.6524 3.53334C35.4859 4.90811 35.611 6.11276 36.222 7.53491L37.4546 7.3083C37.2244 7.60878 36.8136 8.00516 36.4405 8.16614L36.4696 8.56393L36.7999 10.1013L38.4031 9.82475C37.9683 10.2458 37.5618 10.691 37.0294 10.9777L37.0422 11.2801L37.3252 13.2212L39.557 12.8366C39.3877 13.1069 38.7937 13.5667 38.4601 13.831C38.2392 14.006 38.0353 14.1406 37.8401 14.2904C37.4641 14.5794 37.5248 14.5231 37.5478 15.0527L37.6093 15.5709C39.2281 16.0518 39.7792 15.7657 41.6884 17.1362C42.4834 17.7068 43.2461 18.4601 43.807 19.2289C43.9113 19.3718 44.0284 19.5352 44.1217 19.6657L44.4814 20.112C45.2867 19.7765 45.4964 19.6065 46.5405 19.7311C46.0899 20.2976 45.3832 20.7043 44.9197 21.2635C45.8835 21.3288 46.9751 21.2055 47.6174 21.7969C46.9863 22.2015 44.9677 22.4086 44.4606 22.8035C45.3557 23.1558 46.3431 23.5707 46.6083 24.4641L42.8547 23.7367C43.0134 24.9582 42.7108 25.6566 42.1305 26.2192C42.1125 26.1986 42.0887 26.1363 42.0822 26.1526L41.4973 24.5639C41.2728 24.0067 41.017 23.4918 40.7404 23.0541C40.226 22.24 39.3401 21.246 38.1211 21.0382C37.8896 21.2831 37.9649 21.3876 37.9812 22.0102C37.9909 22.3836 37.9831 22.7494 37.9975 23.1246C38.3194 23.2568 39.2597 23.7998 39.6135 24.0497L37.9027 24.1092L37.6475 26.9805C37.952 27.2571 38.0288 27.2828 38.2674 27.4727C38.5277 27.6798 38.6875 27.8388 38.9614 27.9301C39.5438 27.5395 40.0886 27.0105 40.6176 26.6034L39.9444 28.648L41.543 29.4741C42.1693 29.2816 42.4246 28.1874 43.0927 27.5207L42.9027 29.9211L44.3778 30.0809C44.8828 29.263 45.0812 28.174 45.5195 27.4748L45.8203 29.7461C46.8147 29.6416 47.3128 28.7657 47.9842 28.3073L48.2128 27.8964C48.1387 29.1082 47.6662 30.3545 47.256 31.2685C46.7275 32.4462 46.1813 33.1987 45.2382 33.7724C44.9789 34.105 43.8351 34.6186 43.2301 34.5922C43.1407 34.836 41.554 34.8314 41.2244 34.6249C40.6714 34.6729 40.2435 34.4846 39.7339 34.3745C39.6505 34.3559 39.3924 34.3102 39.3304 34.2892C38.9275 34.1527 39.1023 34.1944 38.9704 34.0683C38.4635 34.0641 37.4607 33.6153 37.1825 33.3617C37.0076 33.3277 36.9404 33.332 36.7926 33.2698L36.4559 33.0213C36.1655 32.9273 35.0544 32.3213 34.8816 32.0951C34.4468 32.2172 33.9035 32.6018 33.3929 32.8277L33.7013 38.0032L32.4989 39.3103L32.0885 38.4111L29.2333 39.188L29.8531 37.8675L27.993 37.847C28.4668 37.6894 30.3153 36.8787 30.6866 36.5993L30.5425 33.8438C26.5776 35.1361 19.3702 35.4828 15.4 34.2481L15.3818 34.2582C15.2534 34.9039 15.5248 35.8605 15.2059 36.3901C15.0947 36.5748 14.199 37.4687 14.0121 37.5865L13.6915 36.6841L10.7261 37.4582C11.0054 37.0906 11.2874 36.565 11.4455 36.1141L9.69594 36.0534C10.4344 35.6826 11.6208 35.1647 12.425 34.9008C12.425 34.2236 12.5529 33.4525 12.2917 33.0028C11.6334 32.7366 10.766 31.909 10.3809 31.3715C8.10795 28.199 10.0207 24.2209 10.0889 22.6394C8.9992 22.3219 8.14775 22.3207 7.02501 21.869C5.53587 21.2698 5.09252 20.5998 4.61189 20.3646C4.16159 20.6287 3.867 21.158 2.63371 21.2566C3.05353 20.5833 3.593 19.9921 3.95126 19.3382C2.71136 19.5489 2.52006 19.8733 1.03142 19.4653L4.04606 17.8389C2.97908 17.6485 1.91125 17.5436 1.4323 16.7011L5.22727 16.557C5.15749 15.6449 4.60869 14.7249 5.4763 14.0218C5.84714 14.3815 6.21346 15.0959 6.60234 15.4845C8.06135 16.9423 10.2937 17.4204 12.4772 17.0927L12.9136 16.3765C12.5194 16.0526 11.4361 15.3211 11.3103 14.8546C10.7679 15.0981 10.8987 15.3363 10.5617 15.5594L8.60179 12.2659C8.07897 11.9631 7.63541 11.844 7.10775 11.523C6.6689 11.2561 6.1151 10.8542 5.79308 10.5665C5.14615 9.98868 4.48411 8.81906 4.15594 7.66122C3.06592 3.81529 6.11665 1.72505 7.02891 4.78658C7.23146 4.6098 7.06766 4.81114 7.28656 4.49376C7.43365 4.28027 8.11261 2.78992 9.3191 3.58522C10.0773 4.08494 10.2782 5.30252 10.1965 6.45417L18.5504 6.64092C18.3227 5.29515 18.1056 4.64111 18.5936 3.25609C19.9198 -0.508131 24.6424 -0.199846 25.6581 2.35887C26.2228 2.11666 26.3682 1.6802 26.8306 1.33667C28.4024 0.169082 31.1257 0.151534 31.8326 0.881658C32.5428 0.977487 32.9941 1.57402 33.4019 1.97784C34.0686 2.6382 34.1187 2.65288 34.6524 3.53325V3.53334Z" fill="#0B0B0B"/>
<path fill-rule="evenodd" clip-rule="evenodd" d="M26.5843 23.9014L27.0179 24.399L27.0291 24.4158C27.4244 25.0073 28.1431 26.0188 28.3496 26.6876L28.6797 27.345L29.7654 30.0375L29.9677 30.6172L30.9286 34.0505L30.6406 34.1443C26.6156 35.4563 19.3568 35.8095 15.3065 34.5499L15.1139 34.49L14.7276 31.6042L14.6806 31.116L14.5547 28.9833L14.5575 28.4214L14.7175 26.397L14.8774 25.5483C15.1553 22.7098 17.2424 20.9769 20.045 20.8399C21.6088 20.7635 22.6562 20.9702 24.0372 21.6819C24.8291 22.0899 26.1476 23.1056 26.5843 23.9014L26.5843 23.9014ZM23.8926 21.9627C24.6905 22.3739 25.9577 23.3805 26.3227 24.082L26.7664 24.5913C27.0712 25.0474 27.886 26.2234 28.055 26.8048L28.3915 27.4752L29.4697 30.1487L29.6661 30.7119L30.5427 33.844C26.5779 35.1363 19.3705 35.483 15.4002 34.2482L15.0415 31.5682L14.9956 31.0916L14.8707 28.9748L14.8733 28.4347L15.0312 26.4388L15.1905 25.5928C15.4367 23.0179 17.2855 21.2911 20.0604 21.1555C21.6829 21.0762 22.6491 21.322 23.8925 21.9627L23.8926 21.9627Z" fill="#0B0B0B"/>
<path fill-rule="evenodd" clip-rule="evenodd" d="M23.8925 21.9625C24.6904 22.3736 25.9576 23.3802 26.3226 24.0817L26.7664 24.5911C27.0711 25.0472 27.886 26.2231 28.0549 26.8045L28.3914 27.475L29.4696 30.1485L29.6661 30.7117L30.5427 33.8438C26.5778 35.136 19.3704 35.4827 15.4002 34.248L15.0414 31.5679L14.9955 31.0913L14.8706 28.9746L14.8733 28.4345L15.0311 26.4386L15.1905 25.5926C15.4366 23.0177 17.2854 21.2908 20.0603 21.1552C21.6828 21.076 22.649 21.3217 23.8924 21.9625L23.8925 21.9625Z" stroke="black" stroke-width="0.19999" stroke-miterlimit="22.9256"/>
<path fill-rule="evenodd" clip-rule="evenodd" d="M24.4458 1.34626L21.7524 1.11401L19.8252 2.01959L18.7571 4.52728L18.7339 6.19902L25.9783 6.15268C25.8854 5.14649 25.7925 4.14029 25.6996 3.13411C25.9102 2.08299 25.1506 1.73448 24.4458 1.34626H24.4458Z" fill="#51B695"/>
<path fill-rule="evenodd" clip-rule="evenodd" d="M19.3838 5.9436C22.0927 5.99779 24.5462 6.05194 27.2551 6.10613C24.2675 6.57055 21.3729 6.45442 18.5246 6.61694C17.1411 0.869824 22.6034 -0.925536 24.8868 1.36947C21.1098 -0.150612 18.6898 3.09563 19.3838 5.94358V5.9436Z" fill="#087146"/>
<path fill-rule="evenodd" clip-rule="evenodd" d="M31.5044 0.719491C30.6066 0.642062 29.8015 0.703983 29.0431 0.835535C28.4306 1.01771 27.7901 1.31132 27.1159 1.74111C26.3277 2.51927 25.9071 3.34665 26.0478 4.2488C26.0401 4.80603 26.0323 5.36332 26.0246 5.92054C28.4394 5.9051 30.8542 5.88966 33.269 5.8742C33.1761 4.86802 33.0832 3.86181 32.9903 2.85563C32.5724 2.25966 31.9223 1.31546 31.5044 0.719469L31.5044 0.719491Z" fill="#51B695"/>
<path fill-rule="evenodd" clip-rule="evenodd" d="M26.3499 5.71152C29.0588 5.76571 31.4891 5.81986 34.198 5.87405C32.3017 6.45451 28.5248 6.19909 25.6765 6.36162C23.8286 1.79874 28.8033 -0.670045 31.969 0.835518C27.8205 0.313882 25.5398 2.7242 26.3499 5.71152Z" fill="#087146"/>
</svg>
