<?xml version="1.0" encoding="UTF-8"?>
<!DOCTYPE svg PUBLIC "-//W3C//DTD SVG 1.1//EN" "http://www.w3.org/Graphics/SVG/1.1/DTD/svg11.dtd">
<!-- Creator: CorelDRAW 2020 (64-Bit) -->
<svg xmlns="http://www.w3.org/2000/svg" xml:space="preserve" width="6.35mm" height="6.35mm" version="1.1" style="shape-rendering:geometricPrecision; text-rendering:geometricPrecision; image-rendering:optimizeQuality; fill-rule:evenodd; clip-rule:evenodd"
viewBox="0 0 32.88 32.88"
 xmlns:xlink="http://www.w3.org/1999/xlink"
 xmlns:xodm="http://www.corel.com/coreldraw/odm/2003">
 <defs>
  <style type="text/css">
   <![CDATA[
    .fil0 {fill:#1C1F25}
    .fil1 {fill:#1C1F25;fill-rule:nonzero}
   ]]>
  </style>
 </defs>
 <g id="Capa_x0020_1">
  <metadata id="CorelCorpID_0Corel-Layer"/>
  <g id="_1162308240">
   <path class="fil0" d="M28.08 4.83c3.09,3.1 4.81,7.25 4.81,11.62 0,4.37 -1.71,8.53 -4.81,11.62 -3.1,3.1 -7.26,4.8 -11.64,4.8 -4.38,0 -8.54,-1.71 -11.64,-4.8 -3.1,-3.1 -4.81,-7.25 -4.81,-11.62 0,-4.39 1.74,-8.55 4.84,-11.66 3.09,-3.1 7.26,-4.8 11.64,-4.8 4.37,0 8.52,1.74 11.6,4.83zm-1.48 21.74c2.71,-2.69 4.21,-6.3 4.21,-10.11 0,-3.81 -1.52,-7.42 -4.21,-10.11 -2.69,-2.69 -6.31,-4.21 -10.12,-4.21 -3.81,0 -7.43,1.52 -10.12,4.21 -2.69,2.69 -4.21,6.31 -4.21,10.11 0,3.82 1.5,7.42 4.21,10.11 2.7,2.68 6.31,4.21 10.12,4.21 3.81,0 7.42,-1.53 10.12,-4.21zm-7.63 -5.52l-0.08 0.08 -0.07 0 -4.58 2.64c-0.26,0.16 -0.9,0.39 -1.2,0.39 -0.58,0 -1.1,-0.22 -1.51,-0.62 -0.39,-0.39 -0.63,-0.95 -0.63,-1.51l0 -11.1c0,-0.04 0,-0.09 0,-0.13l0 -0.03 0.01 -0.03c0.03,-0.12 0.03,-0.25 0.08,-0.39 0.07,-0.18 0.1,-0.34 0.21,-0.49 0.28,-0.49 0.74,-0.83 1.28,-0.99 0.54,-0.15 1.14,-0.06 1.62,0.22l4.71 2.71 4.75 2.75c0.65,0.41 1.22,1.21 1.22,1.99 0,0.14 0,0.29 -0.04,0.42 -0.15,0.56 -0.49,1.02 -0.99,1.32l-4.78 2.76zm-1.03 -7.4c-0.06,-0.01 -0.12,-0.04 -0.17,-0.07l-4.65 -2.68 -0 -0.01c-0.01,-0 -0.01,-0.01 -0.02,-0.01 -0.01,0 -0.01,0 -0.02,0 -0,0 -0.01,0 -0.01,0.01 -0.01,0.02 -0.02,0.03 -0.03,0.05l0 11.04c0,0.01 0,0.01 0,0.02 0,0 0.01,0 0.01,0 0.03,-0 0.09,-0.02 0.12,-0.04l0.01 -0.01 4.65 -2.68c0.03,-0.03 0.07,-0.05 0.12,-0.06l4.7 -2.72c0.02,-0.02 0.04,-0.06 0.05,-0.05 -0.01,-0.02 -0.05,-0.05 -0.09,-0.07l-4.69 -2.71z"/>
   <path class="fil1" d="M23.43 14.76l-4.74 -2.74 -4.7 -2.71c-0.46,-0.26 -0.98,-0.33 -1.44,-0.2 -0.46,0.13 -0.88,0.42 -1.14,0.88 -0.1,0.13 -0.13,0.29 -0.2,0.46 -0.03,0.1 -0.03,0.23 -0.07,0.36 0,0.03 0,0.1 0,0.13l0 5.55 0 5.55c0,0.52 0.23,1.01 0.56,1.34 0.36,0.36 0.82,0.55 1.34,0.55 0.29,0 0.91,-0.26 1.08,-0.36l4.64 -2.68 0.03 0 0.03 -0.03 4.8 -2.77c0.46,-0.26 0.75,-0.69 0.88,-1.18 0.03,-0.1 0.03,-0.23 0.03,-0.36 0,-1.08 -1.11,-1.8 -1.11,-1.8zm4.48 -9.76c-3.14,-3.17 -7.29,-4.77 -11.43,-4.77 -4.15,0 -8.3,1.57 -11.47,4.73 -3.17,3.2 -4.77,7.34 -4.77,11.49 0,4.14 1.57,8.29 4.74,11.46 3.17,3.17 7.32,4.73 11.47,4.73 4.15,0 8.3,-1.57 11.47,-4.73 3.17,-3.17 4.74,-7.31 4.74,-11.46 0,-4.14 -1.57,-8.29 -4.74,-11.46zm-1.14 21.74c-2.84,2.84 -6.57,4.28 -10.29,4.28 -3.72,0 -7.45,-1.44 -10.29,-4.28 -2.88,-2.84 -4.28,-6.56 -4.28,-10.28 0,-3.72 1.44,-7.44 4.28,-10.28 2.84,-2.84 6.57,-4.28 10.29,-4.28 3.72,0 7.45,1.44 10.29,4.28 2.84,2.84 4.28,6.56 4.28,10.28 0,3.72 -1.4,7.44 -4.28,10.28zm-3.99 -10.05l-4.74 2.74c-0.03,0 -0.07,0.03 -0.07,0.03l-4.64 2.68c-0.03,0.03 -0.2,0.1 -0.26,0.1 -0.07,0 -0.13,-0.03 -0.2,-0.07 -0.03,-0.03 -0.07,-0.13 -0.07,-0.2l0 -5.52 0 -5.52 0 -0.03c0,-0.03 0,-0.03 0,-0.07 0,0 0,-0.03 0.03,-0.03 0,0 0.03,-0.03 0.03,-0.07 0.03,-0.03 0.1,-0.07 0.13,-0.1 0.07,0 0.13,0 0.16,0 0.03,0.03 0.07,0.03 0.1,0.07l4.64 2.68c0.03,0.03 0.07,0.03 0.07,0.03l0.03 0 4.74 2.74c0.07,0.03 0.2,0.13 0.2,0.23 0,0.13 -0.1,0.26 -0.16,0.29z"/>
  </g>
 </g>
</svg>
