<svg width="24" height="25" viewBox="0 0 24 25" fill="none" xmlns="http://www.w3.org/2000/svg">
<path d="M17.1773 10.7661L13.6693 8.73384L10.1854 6.72577C9.8467 6.53223 9.4596 6.48384 9.12089 6.58061C8.78218 6.67739 8.46766 6.89513 8.27411 7.23384C8.20153 7.33061 8.17734 7.45158 8.12895 7.57255C8.10476 7.64513 8.10476 7.7419 8.08057 7.83868C8.08057 7.86287 8.08057 7.91126 8.08057 7.93545V12.0484V16.1613C8.08057 16.5484 8.24992 16.9113 8.49186 17.1532C8.75799 17.4193 9.0967 17.5645 9.48379 17.5645C9.70153 17.5645 10.1612 17.3709 10.2822 17.2984L13.7177 15.3145H13.7419L13.7661 15.2903L17.3225 13.2338C17.6612 13.0403 17.879 12.7258 17.9757 12.3629C17.9999 12.2903 17.9999 12.1935 17.9999 12.0967C17.9999 11.2984 17.1773 10.7661 17.1773 10.7661ZM16.6935 12.1935L13.1854 14.2258C13.1612 14.2258 13.137 14.25 13.137 14.25L9.70153 16.2338C9.67734 16.258 9.55637 16.3064 9.50799 16.3064C9.4596 16.3064 9.41121 16.2822 9.36282 16.258C9.33863 16.2338 9.31444 16.1613 9.31444 16.1129V12.0242V7.93545V7.91126C9.31444 7.88707 9.31444 7.88707 9.31444 7.86287C9.31444 7.86287 9.31444 7.83868 9.33863 7.83868C9.33863 7.83868 9.36282 7.81448 9.36282 7.79029C9.38702 7.7661 9.43541 7.7419 9.4596 7.71771C9.50799 7.71771 9.55637 7.71771 9.58057 7.71771C9.60476 7.7419 9.62895 7.7419 9.65315 7.7661L13.0886 9.74997C13.1128 9.77416 13.137 9.77416 13.137 9.77416H13.1612L16.6693 11.8064C16.7177 11.8306 16.8144 11.9032 16.8144 11.9758C16.8144 12.0725 16.7419 12.1693 16.6935 12.1935Z" fill="#1C1F25"/>
<path d="M20.4919 3.53226C18.1694 1.18548 15.0968 0 12.0242 0C8.95161 0 5.87903 1.16129 3.53226 3.50806C1.18548 5.87903 0 8.95161 0 12.0242C0 15.0968 1.16129 18.1694 3.50806 20.5161C5.85484 22.8629 8.92742 24.0242 12 24.0242C15.0726 24.0242 18.1452 22.8629 20.4919 20.5161C22.8387 18.1694 24 15.0968 24 12.0242C24 8.95161 22.8387 5.87903 20.4919 3.53226ZM19.6452 19.6452C17.5403 21.75 14.7823 22.8145 12.0242 22.8145C9.26613 22.8145 6.50806 21.75 4.40323 19.6452C2.27419 17.5403 1.23387 14.7823 1.23387 12.0242C1.23387 9.26613 2.29839 6.50807 4.40323 4.40323C6.50806 2.29839 9.26613 1.23387 12.0242 1.23387C14.7823 1.23387 17.5403 2.29839 19.6452 4.40323C21.75 6.50807 22.8145 9.26613 22.8145 12.0242C22.8145 14.7823 21.7742 17.5403 19.6452 19.6452Z" fill="#1C1F25"/>
</svg>
