<svg width="16" height="18" viewBox="0 0 16 18" fill="none" xmlns="http://www.w3.org/2000/svg">
<path fill-rule="evenodd" clip-rule="evenodd" d="M8.00006 13.9283L2.28634 8.21457C2.00028 7.92851 1.5365 7.92851 1.25044 8.21457L0.214541 9.25047C-0.071514 9.53652 -0.0715137 10.0003 0.214542 10.2864L7.46583 17.5377C7.61312 17.6849 7.80754 17.7564 8.00054 17.752C8.19324 17.7561 8.38726 17.6847 8.53431 17.5376L15.7856 10.2863C16.0716 10.0003 16.0716 9.5365 15.7856 9.25045L14.7497 8.21455C14.4636 7.92849 13.9999 7.92849 13.7138 8.21455L8.00006 13.9283Z" fill="#1C1F25"/>
<path fill-rule="evenodd" clip-rule="evenodd" d="M8.00006 5.92829L2.28634 0.21457C2.00028 -0.0714855 1.5365 -0.0714855 1.25044 0.21457L0.214541 1.25047C-0.071514 1.53652 -0.0715137 2.00031 0.214542 2.28637L7.46583 9.53766C7.61312 9.68495 7.80754 9.7564 8.00054 9.75201C8.19324 9.75614 8.38726 9.68468 8.53431 9.53763L15.7856 2.28635C16.0716 2.00029 16.0716 1.5365 15.7856 1.25045L14.7497 0.21455C14.4636 -0.0715055 13.9999 -0.0715055 13.7138 0.21455L8.00006 5.92829Z" fill="#1C1F25"/>
</svg>
