<svg width="19" height="24" viewBox="0 0 19 24" fill="none" xmlns="http://www.w3.org/2000/svg">
<path d="M18.0752 5.83087L12.4504 0.206016C12.3191 0.0746719 12.1399 0 11.9531 0H2.10938C0.946266 0 0 0.946266 0 2.10938V21.8906C0 23.0537 0.946266 24 2.10938 24H16.1719C17.335 24 18.2812 23.0537 18.2812 21.8906V6.32812C18.2812 6.13641 18.2008 5.95636 18.0752 5.83087ZM12.6562 2.40061L15.8806 5.625H13.3594C12.9717 5.625 12.6562 5.30958 12.6562 4.92188V2.40061ZM16.1719 22.5938H2.10938C1.72167 22.5938 1.40625 22.2783 1.40625 21.8906V2.10938C1.40625 1.72167 1.72167 1.40625 2.10938 1.40625H11.25V4.92188C11.25 6.08498 12.1963 7.03125 13.3594 7.03125H16.875V21.8906C16.875 22.2783 16.5596 22.5938 16.1719 22.5938Z" fill="#15171C"/>
<path d="M13.3594 9.9375H4.92188C4.53356 9.9375 4.21875 10.2523 4.21875 10.6406C4.21875 11.0289 4.53356 11.3438 4.92188 11.3438H13.3594C13.7477 11.3438 14.0625 11.0289 14.0625 10.6406C14.0625 10.2523 13.7477 9.9375 13.3594 9.9375Z" fill="#15171C"/>
<path d="M13.3594 12.75H4.92188C4.53356 12.75 4.21875 13.0648 4.21875 13.4531C4.21875 13.8414 4.53356 14.1562 4.92188 14.1562H13.3594C13.7477 14.1562 14.0625 13.8414 14.0625 13.4531C14.0625 13.0648 13.7477 12.75 13.3594 12.75Z" fill="#15171C"/>
<path d="M13.3594 15.5625H4.92188C4.53356 15.5625 4.21875 15.8773 4.21875 16.2656C4.21875 16.6539 4.53356 16.9688 4.92188 16.9688H13.3594C13.7477 16.9688 14.0625 16.6539 14.0625 16.2656C14.0625 15.8773 13.7477 15.5625 13.3594 15.5625Z" fill="#15171C"/>
<path d="M10.5469 18.375H4.92188C4.53356 18.375 4.21875 18.6898 4.21875 19.0781C4.21875 19.4664 4.53356 19.7812 4.92188 19.7812H10.5469C10.9352 19.7812 11.25 19.4664 11.25 19.0781C11.25 18.6898 10.9352 18.375 10.5469 18.375Z" fill="#15171C"/>
</svg>
