<?xml version="1.0" encoding="UTF-8"?>
<!DOCTYPE svg PUBLIC "-//W3C//DTD SVG 1.1//EN" "http://www.w3.org/Graphics/SVG/1.1/DTD/svg11.dtd">
<!-- Creator: CorelDRAW 2020 (64-Bit) -->
<svg xmlns="http://www.w3.org/2000/svg" xml:space="preserve" width="6.35mm" height="6.35mm" version="1.1" style="shape-rendering:geometricPrecision; text-rendering:geometricPrecision; image-rendering:optimizeQuality; fill-rule:evenodd; clip-rule:evenodd"
viewBox="0 0 50.53 50.53"
 xmlns:xlink="http://www.w3.org/1999/xlink"
 xmlns:xodm="http://www.corel.com/coreldraw/odm/2003">
 <defs>
  <style type="text/css">
   <![CDATA[
    .fil0 {fill:#1C1F25;fill-rule:nonzero}
   ]]>
  </style>
 </defs>
 <g id="Capa_x0020_1">
  <metadata id="CorelCorpID_0Corel-Layer"/>
  <path class="fil0" d="M25.26 50.53c-0.72,0 -1.41,-0.29 -1.95,-0.82 -2.04,-2.01 -4.01,-3.89 -5.74,-5.55l-0.01 -0.01c-5.09,-4.88 -9.49,-9.09 -12.55,-13.23 -3.42,-4.64 -5.01,-9.03 -5.01,-13.84 0,-4.67 1.42,-8.97 4.01,-12.12 2.62,-3.19 6.2,-4.95 10.11,-4.95 2.92,0 5.59,1.04 7.94,3.08 1.19,1.03 2.26,2.29 3.21,3.77 0.95,-1.47 2.02,-2.74 3.21,-3.77 2.35,-2.04 5.02,-3.08 7.94,-3.08 3.9,0 7.49,1.76 10.11,4.95 2.58,3.15 4.01,7.46 4.01,12.12 0,4.8 -1.59,9.2 -5.01,13.84 -3.06,4.15 -7.45,8.36 -12.54,13.23 -1.74,1.67 -3.71,3.55 -5.76,5.57 -0.54,0.53 -1.23,0.82 -1.95,0.82zm-11.15 -47.2c-3.07,0 -5.88,1.37 -7.93,3.87 -2.08,2.54 -3.22,6.04 -3.22,9.87 0,4.04 1.34,7.65 4.33,11.71 2.89,3.93 7.2,8.05 12.19,12.83l0.01 0.01c1.74,1.67 3.72,3.56 5.78,5.58 2.07,-2.03 4.05,-3.92 5.79,-5.59 4.98,-4.78 9.29,-8.9 12.18,-12.82 2.99,-4.06 4.33,-7.67 4.33,-11.71 0,-3.83 -1.15,-7.33 -3.22,-9.87 -2.05,-2.5 -4.86,-3.87 -7.93,-3.87 -2.25,0 -4.31,0.8 -6.13,2.38 -1.62,1.41 -2.75,3.19 -3.42,4.44 -0.34,0.64 -0.94,1.02 -1.6,1.02 -0.66,0 -1.26,-0.38 -1.6,-1.02 -0.66,-1.25 -1.79,-3.03 -3.42,-4.44 -1.82,-1.58 -3.88,-2.38 -6.13,-2.38z"/>
 </g>
</svg>
