<svg width="24" height="22" viewBox="0 0 24 22" fill="none" xmlns="http://www.w3.org/2000/svg">
<path d="M12 21.3523C11.6583 21.3523 11.3289 21.2285 11.0722 21.0037C10.1027 20.1559 9.16791 19.3592 8.3432 18.6564L8.33899 18.6528C5.92108 16.5923 3.83313 14.8129 2.38037 13.06C0.756409 11.1004 0 9.24243 0 7.21271C0 5.24066 0.676208 3.42133 1.90393 2.0896C3.1463 0.742126 4.85101 0 6.70459 0C8.08997 0 9.3587 0.437988 10.4755 1.3017C11.0391 1.73767 11.5499 2.27124 12 2.89362C12.4503 2.27124 12.9609 1.73767 13.5247 1.3017C14.6415 0.437988 15.9102 0 17.2956 0C19.149 0 20.8539 0.742126 22.0963 2.0896C23.324 3.42133 24 5.24066 24 7.21271C24 9.24243 23.2438 11.1004 21.6198 13.0598C20.1671 14.8129 18.0793 16.5921 15.6617 18.6524C14.8356 19.3563 13.8994 20.1542 12.9276 21.004C12.6711 21.2285 12.3415 21.3523 12 21.3523ZM6.70459 1.40588C5.24835 1.40588 3.91058 1.98706 2.93738 3.04248C1.94971 4.11383 1.4057 5.59479 1.4057 7.21271C1.4057 8.9198 2.04016 10.4465 3.46271 12.163C4.83765 13.8221 6.88275 15.5649 9.25067 17.5829L9.25507 17.5865C10.0829 18.2921 11.0213 19.0919 11.998 19.9459C12.9805 19.0902 13.9204 18.2891 14.7499 17.5825C17.1176 15.5645 19.1625 13.8221 20.5375 12.163C21.9598 10.4465 22.5943 8.9198 22.5943 7.21271C22.5943 5.59479 22.0503 4.11383 21.0626 3.04248C20.0896 1.98706 18.7516 1.40588 17.2956 1.40588C16.2288 1.40588 15.2494 1.745 14.3846 2.4137C13.6139 3.00989 13.077 3.76355 12.7623 4.29089C12.6004 4.56207 12.3155 4.72394 12 4.72394C11.6845 4.72394 11.3996 4.56207 11.2377 4.29089C10.9232 3.76355 10.3863 3.00989 9.61542 2.4137C8.75061 1.745 7.77118 1.40588 6.70459 1.40588Z" fill="#1C1F25"/>
</svg>
