<svg width="24" height="24" viewBox="0 0 24 24" fill="none" xmlns="http://www.w3.org/2000/svg">
<g clip-path="url(#clip0)">
<path d="M14.2969 11.6923C14.2969 12.9284 13.2686 13.9303 12 13.9303C10.7314 13.9303 9.70312 12.9284 9.70312 11.6923C9.70312 10.4563 10.7314 9.45435 12 9.45435C13.2686 9.45435 14.2969 10.4563 14.2969 11.6923Z" fill="#434B59"/>
<path d="M17.3716 7.73267C17.2612 7.44115 17.085 7.17728 16.8561 6.96069C16.6339 6.73768 16.3632 6.56604 16.0638 6.45846C15.821 6.36658 15.4563 6.25722 14.7845 6.22742C14.0577 6.19513 13.8398 6.18817 12 6.18817C10.16 6.18817 9.94208 6.19495 9.21552 6.22724C8.5437 6.25722 8.17877 6.36658 7.93616 6.45846C7.63678 6.56604 7.36597 6.73768 7.14386 6.96069C6.91498 7.17728 6.73883 7.44097 6.62823 7.73267C6.53394 7.96924 6.42169 8.32481 6.39111 8.9794C6.35797 9.68734 6.35083 9.89964 6.35083 11.6925C6.35083 13.4852 6.35797 13.6975 6.39111 14.4056C6.42169 15.0602 6.53394 15.4156 6.62823 15.6521C6.73883 15.9438 6.91479 16.2075 7.14368 16.4241C7.36597 16.6471 7.6366 16.8188 7.93597 16.9263C8.17877 17.0184 8.5437 17.1278 9.21552 17.1576C9.94208 17.1899 10.1598 17.1966 11.9998 17.1966C13.84 17.1966 14.0579 17.1899 14.7843 17.1576C15.4561 17.1278 15.821 17.0184 16.0638 16.9263C16.6648 16.7005 17.1398 16.2377 17.3716 15.6521C17.4659 15.4156 17.5781 15.0602 17.6089 14.4056C17.642 13.6975 17.649 13.4852 17.649 11.6925C17.649 9.89964 17.642 9.68734 17.6089 8.9794C17.5783 8.32481 17.4661 7.96924 17.3716 7.73267ZM12 15.1399C10.0457 15.1399 8.46149 13.5965 8.46149 11.6923C8.46149 9.78814 10.0457 8.24471 12 8.24471C13.9541 8.24471 15.5383 9.78814 15.5383 11.6923C15.5383 13.5965 13.9541 15.1399 12 15.1399ZM15.6782 8.9141C15.2216 8.9141 14.8513 8.55336 14.8513 8.1084C14.8513 7.66345 15.2216 7.3027 15.6782 7.3027C16.1349 7.3027 16.5051 7.66345 16.5051 8.1084C16.5049 8.55336 16.1349 8.9141 15.6782 8.9141Z" fill="#434B59"/>
<path d="M12 0C5.3736 0 0 5.23581 0 11.6923C0 18.1488 5.3736 23.3846 12 23.3846C18.6264 23.3846 24 18.1488 24 11.6923C24 5.23581 18.6264 0 12 0ZM18.8491 14.4603C18.8157 15.1751 18.6991 15.663 18.5288 16.0901C18.1708 16.992 17.4391 17.7049 16.5135 18.0537C16.0754 18.2196 15.5744 18.3331 14.8411 18.3658C14.1063 18.3984 13.8715 18.4062 12.0002 18.4062C10.1287 18.4062 9.8941 18.3984 9.15912 18.3658C8.42578 18.3331 7.9248 18.2196 7.48663 18.0537C7.02667 17.8851 6.61029 17.6209 6.26605 17.2792C5.91559 16.944 5.64441 16.5381 5.47137 16.0901C5.30109 15.6632 5.18445 15.1751 5.15112 14.4605C5.11725 13.7444 5.10938 13.5157 5.10938 11.6923C5.10938 9.86895 5.11725 9.64023 5.15094 8.92427C5.18427 8.20956 5.30072 7.7216 5.47101 7.29449C5.64404 6.8465 5.91541 6.44062 6.26605 6.10538C6.61011 5.76373 7.02667 5.4995 7.48645 5.3309C7.9248 5.16498 8.4256 5.05151 9.15912 5.01886C9.89392 4.98622 10.1287 4.97837 12 4.97837C13.8713 4.97837 14.1061 4.98622 14.8409 5.01904C15.5744 5.05151 16.0752 5.16498 16.5135 5.33073C16.9733 5.49932 17.3899 5.76373 17.7341 6.10538C18.0846 6.4408 18.356 6.8465 18.5288 7.29449C18.6993 7.7216 18.8157 8.20956 18.8492 8.92427C18.8828 9.64023 18.8906 9.86895 18.8906 11.6923C18.8906 13.5157 18.8828 13.7444 18.8491 14.4603Z" fill="#434B59"/>
</g>
<defs>
<clipPath id="clip0">
<rect width="24" height="23.3846" fill="white"/>
</clipPath>
</defs>
</svg>
