<svg width="24" height="18" viewBox="0 0 24 18" fill="none" xmlns="http://www.w3.org/2000/svg">
<path d="M23.5491 4.93721L12.2983 0.0618445C12.108 -0.0206148 11.892 -0.0206148 11.7018 0.0618445L0.45093 4.93721C-0.15024 5.19771 -0.15038 6.0531 0.45093 6.31361L4.49945 8.06794V12.7509C4.49945 15.2745 7.79407 17.2513 12 17.2513C16.2059 17.2513 19.5006 15.2745 19.5006 12.7509V8.06794L20.2506 7.74293V15.7511C20.2506 16.1654 20.5865 16.5012 21.0007 16.5012C21.4149 16.5012 21.7507 16.1654 21.7507 15.7511V7.09292L23.5491 6.31365C24.1503 6.05315 24.1504 5.19776 23.5491 4.93721ZM12 1.56749L21.3644 5.62543L20.6217 5.94725L12.093 4.88114C11.6819 4.83009 11.3071 5.12135 11.2557 5.53238C11.2043 5.94341 11.4959 6.31829 11.907 6.36967L17.9141 7.12057L12 9.68333C6.70944 7.39073 7.83626 7.87902 2.63561 5.62538L12 1.56749ZM18.0005 12.751C18.0005 13.4577 17.4204 14.1853 16.4091 14.7471C14.0004 16.0852 10.0066 16.0892 7.59095 14.7471C6.57959 14.1853 5.99956 13.4577 5.99956 12.751V8.71805L11.7018 11.189C11.8917 11.2713 12.1076 11.2716 12.2983 11.189L18.0005 8.71805V12.751Z" fill="#1C1F25"/>
</svg>
