<?xml version="1.0" encoding="UTF-8"?>
<!DOCTYPE svg PUBLIC "-//W3C//DTD SVG 1.1//EN" "http://www.w3.org/Graphics/SVG/1.1/DTD/svg11.dtd">
<!-- Creator: CorelDRAW 2020 (64-Bit) -->
<svg xmlns="http://www.w3.org/2000/svg" xml:space="preserve" width="6.35mm" height="6.3499mm" version="1.1" style="shape-rendering:geometricPrecision; text-rendering:geometricPrecision; image-rendering:optimizeQuality; fill-rule:evenodd; clip-rule:evenodd"
viewBox="0 0 39.72 39.72"
 xmlns:xlink="http://www.w3.org/1999/xlink"
 xmlns:xodm="http://www.corel.com/coreldraw/odm/2003">
 <defs>
  <style type="text/css">
   <![CDATA[
    .fil0 {fill:#1C1F25}
   ]]>
  </style>
 </defs>
 <g id="Capa_x0020_1">
  <metadata id="CorelCorpID_0Corel-Layer"/>
  <path class="fil0" d="M-0 14.64l19.86 -14.64 19.86 14.64 -19.86 14.64 -19.86 -14.64zm3.85 0l16.01 -11.54 16.01 11.54 -16.01 11.54 -16.01 -11.54z"/>
  <polygon class="fil0" points="6.9,19.35 9.19,19.35 9.19,32.88 6.9,32.56 "/>
  <polygon class="fil0" points="30.42,19.35 32.7,19.35 32.7,32.56 30.42,32.94 "/>
  <path class="fil0" d="M6.91 30.69c3.21,2.05 7.47,4.9 13.07,4.94 2.38,-0.01 4.27,-0.4 5.9,-1 -0.37,0.36 -0.61,0.86 -0.61,1.43 0,0.47 0.16,0.9 0.43,1.24 -1.67,0.57 -3.57,0.95 -5.74,0.93 -5.93,-0.19 -9.79,-2.6 -13.08,-4.9 0,-0.69 0.02,-1.95 0.02,-2.64zm20.23 3.41c2.06,-0.96 3.73,-2.24 5.56,-3.41 0,0.69 -0.02,1.94 -0.02,2.63 -0.99,0.72 -2.18,1.6 -3.59,2.41 -0.15,-0.93 -0.94,-1.63 -1.9,-1.63l-0.05 0z"/>
  <rect class="fil0" x="26.1" y="22.32" width="2.28" height="11.11"/>
  <rect class="fil0" transform="matrix(0.74305 -0.661471 0.442952 0.51495 19.4801 15.5068)" width="2.32" height="16.22"/>
  <path class="fil0" d="M27.19 39.72c1.99,0 3.6,-1.64 3.6,-3.66 0,-2.02 -1.61,-3.66 -3.6,-3.66 -1.99,0 -3.6,1.64 -3.6,3.66 0,2.02 1.61,3.66 3.6,3.66zm0 -1.71c1.06,0 1.92,-0.87 1.92,-1.95 0,-1.08 -0.86,-1.95 -1.92,-1.95 -1.06,0 -1.92,0.88 -1.92,1.95 0,1.08 0.86,1.95 1.92,1.95z"/>
 </g>
</svg>
