<svg width="12" height="12" viewBox="0 0 12 12" fill="none" xmlns="http://www.w3.org/2000/svg">
<path d="M8.58018 5.37762L6.82792 4.36252L5.08774 3.35949C4.91855 3.26282 4.7252 3.23865 4.55601 3.28699C4.38683 3.33532 4.22973 3.44409 4.13305 3.61327C4.0968 3.66161 4.08472 3.72203 4.06055 3.78245C4.04846 3.81871 4.04846 3.86705 4.03638 3.91539C4.03638 3.92747 4.03638 3.95164 4.03638 3.96372V6.0181V8.07249C4.03638 8.26584 4.12097 8.44711 4.24182 8.56795C4.37475 8.70088 4.54393 8.77339 4.73728 8.77339C4.84604 8.77339 5.07565 8.67671 5.13607 8.64046L6.85209 7.64952H6.86417L6.87626 7.63744L8.65269 6.61025C8.82188 6.51357 8.93064 6.35647 8.97897 6.1752C8.99106 6.13895 8.99106 6.09061 8.99106 6.04227C8.99106 5.64348 8.58018 5.37762 8.58018 5.37762ZM8.33849 6.09061L6.58623 7.10572C6.57414 7.10572 6.56206 7.1178 6.56206 7.1178L4.84604 8.10874C4.83396 8.12082 4.77354 8.14499 4.74937 8.14499C4.7252 8.14499 4.70103 8.13291 4.67686 8.12082C4.66478 8.10874 4.65269 8.07248 4.65269 8.04832V6.00602V3.96372V3.95164C4.65269 3.93955 4.65269 3.93955 4.65269 3.92747C4.65269 3.92747 4.65269 3.91539 4.66478 3.91539C4.66478 3.91539 4.67686 3.9033 4.67686 3.89122C4.68894 3.87913 4.71311 3.86705 4.7252 3.85496C4.74937 3.85496 4.77354 3.85496 4.78562 3.85496C4.79771 3.86705 4.80979 3.86705 4.82188 3.87913L6.53789 4.87007C6.54997 4.88215 6.56206 4.88215 6.56206 4.88215H6.57414L8.32641 5.89726C8.35058 5.90934 8.39891 5.9456 8.39891 5.98185C8.39891 6.03019 8.36266 6.07853 8.33849 6.09061Z" fill="#5B6472"/>
<path d="M10.2356 1.76435C9.07553 0.592145 7.54079 0 6.00604 0C4.4713 0 2.93656 0.58006 1.76435 1.75227C0.592145 2.93656 0 4.4713 0 6.00604C0 7.54079 0.58006 9.07553 1.75227 10.2477C2.92447 11.4199 4.45921 12 5.99396 12C7.5287 12 9.06344 11.4199 10.2356 10.2477C11.4079 9.07553 11.9879 7.54079 11.9879 6.00604C11.9879 4.4713 11.4079 2.93656 10.2356 1.76435ZM9.81269 9.81269C8.76133 10.864 7.38369 11.3958 6.00604 11.3958C4.6284 11.3958 3.25076 10.864 2.1994 9.81269C1.13595 8.76133 0.616314 7.38369 0.616314 6.00604C0.616314 4.6284 1.14804 3.25076 2.1994 2.1994C3.25076 1.14804 4.6284 0.616314 6.00604 0.616314C7.38369 0.616314 8.76133 1.14804 9.81269 2.1994C10.864 3.25076 11.3958 4.6284 11.3958 6.00604C11.3958 7.38369 10.8761 8.76133 9.81269 9.81269Z" fill="#5B6472"/>
</svg>
