<svg width="56" height="36" viewBox="0 0 56 36" fill="none" xmlns="http://www.w3.org/2000/svg">
<path d="M3.4021 22.8187V31.0076H5.04201V27.7349H5.89241C7.24767 27.7349 8.35076 26.6318 8.35076 25.2765C8.35076 23.9213 7.24767 22.8182 5.89241 22.8182H3.4021V22.8187ZM13.2162 27.6222C14.1985 27.3 14.9104 26.3751 14.9104 25.2867C14.9104 23.9314 13.8078 22.8283 12.4521 22.8283H9.96225V31.0172H11.6022V28.0464L13.0518 31.0218L14.9104 31.0183L13.2162 27.6217V27.6222ZM11.6022 24.4683H12.4521C12.9031 24.4683 13.2705 24.8351 13.2705 25.2867C13.2705 25.7378 12.9036 26.1051 12.4521 26.1051H11.6022V24.4688V24.4683ZM49.346 33.4675H47.699H46.024H3.62282L1.6394 31.4846V22.3504L3.62282 20.367H8.32133H9.88158H52.3767L54.3596 22.3504V31.4846L52.3767 33.4675H50.7987H49.346ZM8.32133 18.7265H2.94392L0 21.671V32.1635L2.94392 35.1074H46.0246H47.6995H49.3465H50.7992H53.0566L56 32.1635V21.671L53.0566 18.7265H34.1981L38.649 13.5338L50.1385 15.1225V9.16767L54.0161 8.39135L51.3451 0L38.0168 6.60784L37.1131 4.82637H18.8874L17.9837 6.60784L11.9655 3.62434L11.2373 5.09326L17.2424 8.07017L16.668 9.20217L6.82501 7.68759L4.10282 7.14264L5.63871 2.31779L11.2373 5.09326L11.9655 3.62434L4.65538 0L1.98443 8.39135L5.86197 9.16767V15.1225L17.3657 13.5323L21.8673 18.727H9.88158H8.32133V18.7265ZM31.7027 12.1248L28.6761 18.7265H27.3518L24.3531 12.1248H31.7027ZM24.1714 10.4854L25.3359 6.46628H30.7245L31.8895 10.4854H24.1719H24.1714ZM33.5065 12.1248H37.6961L32.0376 18.7265H30.4799L33.5065 12.1248V12.1248ZM48.4981 13.24L39.917 12.0537L40.4579 11.4231L40.1124 10.7416L48.4981 9.45181V13.2406V13.24ZM50.3613 2.31779L51.8967 7.14315L49.175 7.6881L39.3315 9.20268L38.7576 8.07017L50.3613 2.31779ZM38.1436 10.4849H33.5963L32.4319 6.46577H36.1054L38.1431 10.4849H38.1436ZM19.8941 6.46577H23.629L22.464 10.4849H17.8558L19.8936 6.46577H19.8941ZM7.50188 13.24V9.4513L15.8876 10.7416L15.5406 11.4251L16.085 12.0532L7.50188 13.2395V13.24ZM18.3166 12.1248H22.5523L25.551 18.7265H24.0375L18.3166 12.1248V12.1248ZM36.1897 22.808V27.7151C36.1897 29.5235 37.6611 30.9949 39.4695 30.9949C41.2778 30.9949 42.7493 29.5235 42.7493 27.7151V22.808H41.1094V27.7151C41.1094 28.6193 40.3737 29.355 39.4695 29.355C38.5653 29.355 37.8301 28.6193 37.8301 27.7151V22.808H36.1897V22.808ZM50.957 31.0238H52.5969V22.8172H50.9935L48.5326 25.584L46.0636 22.8172H44.3923V31.0238H46.0322V25.2451L48.5341 28.0495L50.9565 25.3263V31.0238H50.957ZM31.2714 31.0238V22.8172H29.6686L27.2072 25.584L24.7387 22.8172H23.0668V31.0238H24.7072V25.2451L27.2087 28.049L29.631 25.3258V31.0233H31.2709L31.2714 31.0238ZM32.9159 22.8273H34.5558V31.0238H32.9159V22.8273ZM21.431 24.4693V22.8299H16.5102V31.0218H21.431V29.3824H18.1501V27.746H19.7911V26.1061H18.1501V24.4698H21.431V24.4693ZM6.71135 25.2776C6.71135 25.7286 6.3445 26.096 5.89292 26.096H5.04252V24.4596H5.89292C6.344 24.4596 6.71135 24.8265 6.71135 25.2781V25.2776Z" fill="#55B99D"/>
</svg>
