<svg width="56" height="36" viewBox="0 0 56 36" fill="none" xmlns="http://www.w3.org/2000/svg">
<path d="M3.40298 22.8186V31.0075H5.04284V27.7349H5.89302C7.24839 27.7349 8.35122 26.6322 8.35122 25.2767C8.35122 23.9213 7.2485 22.8186 5.89302 22.8186H3.40298ZM6.71136 25.2767C6.71136 25.7278 6.3443 26.0949 5.89313 26.0949H5.04295V24.4584H5.89313C6.34419 24.4584 6.71136 24.8255 6.71136 25.2767Z" fill="#55B99D"/>
<path d="M21.4312 24.4688V22.829H16.5104V31.0214H21.4312V29.3815H18.1502V27.7451H19.7913V26.1052H18.1502V24.4688H21.4312Z" fill="#55B99D"/>
<path d="M32.9159 22.8268H34.5558V31.0236H32.9159V22.8268Z" fill="#55B99D"/>
<path d="M31.2716 31.0236V22.8168H29.6686L27.2075 25.5836L24.7389 22.8168H23.0675V31.0236H24.7075V25.2448L27.2094 28.0489L29.6318 25.3257V31.0236H31.2716Z" fill="#55B99D"/>
<path d="M50.9572 31.0236H52.5971V22.8168H50.9939L48.5329 25.5836L46.0642 22.8168H44.3929V31.0236H46.0328V25.2447L48.5349 28.0489L50.9572 25.3257V31.0236Z" fill="#55B99D"/>
<path d="M36.19 22.8081V27.7149C36.19 29.5233 37.6613 30.9946 39.4698 30.9946C41.2782 30.9946 42.7495 29.5233 42.7495 27.7149V22.8081H41.1097V27.7149C41.1097 28.6191 40.3741 29.3547 39.4699 29.3547C38.5657 29.3547 37.83 28.6191 37.83 27.7149V22.8081H36.19Z" fill="#55B99D"/>
<path d="M53.0562 18.7266H34.1978L38.6486 13.5337L50.1383 15.1221V9.1677L54.0156 8.39136L51.3445 0L38.0164 6.60778L37.1129 4.82617H18.8871L17.9835 6.60778L11.9654 3.62414L11.237 5.09337L17.2418 8.07045L16.6676 9.20249L6.82444 7.68808L4.10253 7.14306L5.63859 2.31787L9.59709 4.28039L10.3255 2.81116L4.65542 0L1.98438 8.39136L5.86172 9.1677V15.1221L17.3657 13.5318L21.8673 18.7266H8.32145V20.3665H52.3769L54.3601 22.3497V31.4841L52.3769 33.4673H49.3463V35.1072H53.0562L56 32.1634V21.6705L53.0562 18.7266ZM31.7028 12.1249L28.6763 18.7266H27.3519L24.3533 12.1249H31.7028ZM24.1716 10.485L25.3363 6.46603H30.7247L31.8894 10.485H24.1716ZM33.5068 12.1249H37.6964L32.038 18.7266H30.4802L33.5068 12.1249ZM48.4984 13.24L39.9173 12.0537L40.4581 11.4227L40.1127 10.7416L48.4984 9.45142V13.24ZM50.3614 2.31787L51.8973 7.14317L49.1754 7.68819L39.3321 9.20259L38.758 8.07056L50.3614 2.31787ZM38.144 10.485H33.5967L32.4321 6.46603H36.1058L38.144 10.485ZM19.8942 6.46603H23.6289L22.4643 10.485H17.8561L19.8942 6.46603ZM7.50158 13.24V9.45153L15.8873 10.7417L15.5404 11.4256L16.0846 12.0536L7.50158 13.24ZM18.3164 12.1249H22.5522L25.5509 18.7266H24.0372L18.3164 12.1249Z" fill="#55B99D"/>
<path d="M44.3987 33.4673H3.62305L1.63986 31.4841V22.3497L3.62305 20.3665H6.68161V18.7266H2.94383L0 21.6705V32.1633L2.94383 35.1072H44.3987V33.4673Z" fill="#55B99D"/>
<path d="M46.0247 33.4673H47.6994V35.1072H46.0247V33.4673Z" fill="#55B99D"/>
<path d="M13.2169 27.6224C14.1992 27.3002 14.9108 26.3752 14.9108 25.2865C14.9108 23.9311 13.8081 22.8284 12.4527 22.8284H9.96265V31.0173H11.6025V28.0468L13.0521 31.022L14.9107 31.0187L13.2169 27.6224ZM11.6025 24.4683H12.4527C12.9038 24.4683 13.2709 24.8354 13.2709 25.2865C13.2709 25.7377 12.9038 26.1048 12.4527 26.1048H11.6025V24.4683Z" fill="#55B99D"/>
</svg>
