<svg width="32" height="32" viewBox="0 0 32 32" fill="none" xmlns="http://www.w3.org/2000/svg">
<path d="M31.1744 10.0704C30.0779 8.97381 28.2936 8.97387 27.1966 10.0707C26.8592 10.4084 24.7052 12.5642 24.3761 12.8936V5.46413C24.3761 4.71288 24.0836 4.00662 23.5523 3.47544L20.9007 0.82375C20.3696 0.2925 19.6633 0 18.912 0H2.81363C1.26282 0 0.00112915 1.26169 0.00112915 2.8125V29.1875C0.00112915 30.7383 1.26282 32 2.81363 32H21.5636C23.1144 32 24.3761 30.7383 24.3761 29.1875V20.8519L31.1744 14.0479C32.2736 12.9488 32.2738 11.1697 31.1744 10.0704ZM18.7512 1.875C18.9283 1.875 19.2696 1.84431 19.5749 2.14956L22.2266 4.80125C22.5241 5.09881 22.5012 5.42488 22.5012 5.625H18.7512V1.875ZM22.5011 29.1875C22.5011 29.7044 22.0806 30.125 21.5636 30.125H2.81363C2.29669 30.125 1.87613 29.7044 1.87613 29.1875V2.8125C1.87613 2.29556 2.29669 1.875 2.81363 1.875H16.8761V6.5625C16.8761 7.08025 17.2959 7.5 17.8136 7.5H22.5011V14.7702C22.5011 14.7702 19.7352 17.5384 19.7351 17.5385L18.4099 18.8638C18.3071 18.9666 18.2294 19.0921 18.1834 19.2302L16.8576 23.2077C16.7453 23.5446 16.8329 23.916 17.0841 24.1671C17.3355 24.4185 17.7071 24.5057 18.0434 24.3936L22.0209 23.0678C22.159 23.0218 22.2845 22.9442 22.3874 22.8412L22.5011 22.7275V29.1875ZM20.3986 19.5267L21.7244 20.8525L21.218 21.3589L19.2293 22.0218L19.8922 20.0331L20.3986 19.5267ZM23.05 19.5264L21.7242 18.2006C22.4302 17.494 25.5657 14.3557 26.2307 13.6902L27.5566 15.016L23.05 19.5264ZM29.8483 12.7224L28.8819 13.6896L27.5561 12.3638L28.5228 11.3962C28.8886 11.0307 29.4832 11.0307 29.8487 11.3962C30.2141 11.7619 30.2161 12.3546 29.8483 12.7224Z" fill="#272B33"/>
<path d="M17.8136 9.375H4.68863C4.17088 9.375 3.75113 9.79475 3.75113 10.3125C3.75113 10.8303 4.17088 11.25 4.68863 11.25H17.8136C18.3314 11.25 18.7511 10.8303 18.7511 10.3125C18.7511 9.79475 18.3314 9.375 17.8136 9.375Z" fill="#272B33"/>
<path d="M14.0636 13.125H4.68863C4.17088 13.125 3.75113 13.5447 3.75113 14.0625C3.75113 14.5803 4.17088 15 4.68863 15H14.0636C14.5814 15 15.0011 14.5803 15.0011 14.0625C15.0011 13.5447 14.5814 13.125 14.0636 13.125Z" fill="#272B33"/>
<path d="M14.0636 16.875H4.68863C4.17088 16.875 3.75113 17.2947 3.75113 17.8125C3.75113 18.3303 4.17088 18.75 4.68863 18.75H14.0636C14.5814 18.75 15.0011 18.3303 15.0011 17.8125C15.0011 17.2947 14.5814 16.875 14.0636 16.875Z" fill="#272B33"/>
<path d="M14.0636 20.625H4.68863C4.17088 20.625 3.75113 21.0447 3.75113 21.5625C3.75113 22.0803 4.17088 22.5 4.68863 22.5H14.0636C14.5814 22.5 15.0011 22.0803 15.0011 21.5625C15.0011 21.0447 14.5814 20.625 14.0636 20.625Z" fill="#272B33"/>
<path d="M17.8136 26.375H12.1886C11.6709 26.375 11.2511 26.7947 11.2511 27.3125C11.2511 27.8303 11.6709 28.25 12.1886 28.25H17.8136C18.3314 28.25 18.7511 27.8303 18.7511 27.3125C18.7511 26.7947 18.3314 26.375 17.8136 26.375Z" fill="#272B33"/>
</svg>
