<svg width="256" height="256" viewBox="0 0 256 256" fill="none" xmlns="http://www.w3.org/2000/svg">
<path fill-rule="evenodd" clip-rule="evenodd" d="M128 118H63V173C63 178.523 67.4766 183 73 183V218.5C73 239.211 89.7891 256 110.5 256H128H145.5C166.211 256 183 239.211 183 218.5V198H138.213C134.174 198 130.699 194.896 130.508 190.863C130.305 186.555 133.738 183 138 183H218.5C239.211 183 256 166.211 256 145.5V110.5C256 89.7891 239.211 73 218.5 73H173V118H128ZM145.5 233C149.643 233 153 229.643 153 225.5C153 221.357 149.643 218 145.5 218C141.357 218 138 221.357 138 225.5C138 229.643 141.357 233 145.5 233Z" fill="#FAC73A"/>
<path fill-rule="evenodd" clip-rule="evenodd" d="M163 128C174.045 128 183 119.045 183 108V37.5C183 16.8223 166.178 0 145.5 0H128H110.5C89.8223 0 73 16.8223 73 37.5V58H118C122.143 58 125.5 61.3574 125.5 65.5C125.5 69.6426 122.143 73 118 73H37.5C16.8223 73 0 89.8223 0 110.5V145.5C0 166.178 16.8223 183 37.5 183H73V148C73 136.955 81.9551 128 93 128H128H163ZM110.5 38C114.643 38 118 34.6426 118 30.5C118 26.3574 114.643 23 110.5 23C106.357 23 103 26.3574 103 30.5C103 34.6426 106.357 38 110.5 38Z" fill="#346792"/>
</svg>
