<svg width="256" height="252" viewBox="0 0 256 252" fill="none" xmlns="http://www.w3.org/2000/svg">
<path d="M127.984 0.66449C57.312 0.66449 0 58.2005 0 129.176C0 185.944 36.672 234.104 87.552 251.112C93.952 252.296 96.288 248.328 96.288 244.92C96.288 241.864 96.176 233.784 96.112 223.064C60.512 230.824 52.992 205.832 52.992 205.832C47.184 190.984 38.784 187.032 38.784 187.032C27.152 179.064 39.648 179.224 39.648 179.224C52.496 180.136 59.248 192.472 59.248 192.472C70.672 212.104 89.216 206.44 96.512 203.144C97.664 194.84 100.976 189.176 104.64 185.96C76.224 182.712 46.336 171.688 46.336 122.456C46.336 108.424 51.328 96.9525 59.52 87.9605C58.192 84.7125 53.808 71.6405 60.768 53.9605C60.768 53.9605 71.52 50.5045 95.968 67.1285C106.176 64.2805 117.12 62.8565 128.016 62.8085C138.88 62.8725 149.84 64.2805 160.064 67.1445C184.496 50.5205 195.232 53.9765 195.232 53.9765C202.208 71.6725 197.824 84.7285 196.512 87.9765C204.72 96.9685 209.664 108.44 209.664 122.472C209.664 171.832 179.744 182.696 151.232 185.88C155.824 189.848 159.92 197.688 159.92 209.672C159.92 226.856 159.76 240.712 159.76 244.92C159.76 248.36 162.064 252.36 168.56 251.096C219.36 234.072 256 185.928 256 129.176C256 58.2005 198.688 0.66449 127.984 0.66449Z" fill="white"/>
</svg>
