<svg width="250" height="261" viewBox="0 0 250 261" fill="none" xmlns="http://www.w3.org/2000/svg">
<path d="M48.761 15.0658L8.51465 21.0282L20.9718 207.301L43.81 248.505L75.5919 252.977L235.033 241.052L241.475 225.135L238.973 55.3121L225.078 38.4363L173.439 7.13361L48.761 15.0658Z" fill="white" stroke="black"/>
<path d="M89.3678 5.38617C48.6356 8.40014 14.0085 11.172 12.3804 11.4965C7.81569 12.3106 3.66312 15.407 1.71049 19.4822L0 23.0681L0.164866 108.531L0.407014 193.993L3.01396 199.29C4.4823 202.221 14.4207 215.91 25.2555 230.001C46.6829 257.781 48.2286 259.332 56.374 260.146C58.7388 260.388 76.498 259.574 95.7255 258.435C115.035 257.214 145.989 255.339 164.567 254.283C243.915 249.466 239.839 249.873 244.399 245.962C250.102 241.238 249.695 248.976 249.937 145.105C250.102 57.0357 250.02 51.2551 248.716 48.5657C247.171 45.5517 244.399 43.4342 208.226 18.0139C184.032 1.06874 182.322 0.172277 171.482 0.00741049C167.004 -0.152304 130.018 2.28978 89.3678 5.38617ZM180.936 16.5456C184.357 18.0912 209.37 35.5258 213.033 38.8695C214.012 39.8484 214.337 40.6624 213.847 41.1519C212.708 42.1308 57.9144 51.3375 53.4373 50.6832C51.4022 50.3586 48.3883 49.1376 46.6778 47.9938C39.5885 43.1869 21.9942 28.7663 21.9942 27.7101C21.9942 24.9383 21.4223 24.9383 90.4292 19.9717C103.629 19.0752 125.298 17.4472 138.498 16.3858C167.087 14.1035 175.644 14.1859 180.936 16.5456ZM230.143 61.111C231.282 62.2496 232.261 64.4495 232.585 66.567C232.827 68.5248 232.992 105.022 232.827 147.547C232.585 220.542 232.503 225.107 231.117 227.224C230.303 228.528 228.675 229.914 227.449 230.321C224.033 231.706 61.83 240.913 58.4915 239.934C56.9459 239.527 54.8232 238.224 53.6846 237.085L51.7268 234.968L51.4847 156.27C51.3198 101.034 51.4847 76.593 52.139 74.393C52.6284 72.765 53.8495 70.8072 54.9108 70.158C56.3791 69.1791 65.9929 68.3651 99.0692 66.4125C122.29 65.109 158.215 62.9091 178.828 61.688C227.861 58.6689 227.701 58.6689 230.143 61.111Z" fill="black"/>
<path d="M186.554 88.077C177.754 88.6488 169.934 89.4629 169.037 89.9523C166.348 91.3382 164.72 93.6206 164.395 96.2275C164.153 98.9169 164.967 99.2415 173.762 100.303L177.59 100.792V135.579C177.59 156.27 177.265 169.959 176.858 169.552C176.451 169.062 164.885 151.468 151.113 130.448C137.347 109.35 125.94 91.9925 125.775 91.8328C125.61 91.668 116.651 92.1574 105.898 92.8942C92.6988 93.7906 85.4499 94.6046 83.9815 95.4187C81.6167 96.6397 79.0098 100.957 79.0098 103.811C79.0098 105.522 82.1062 106.418 88.6235 106.418H92.0445V206.461L86.506 208.172C82.1886 209.475 80.7203 210.289 79.9887 211.917C78.6852 214.689 78.7676 217.214 80.0711 217.214C80.5605 217.214 89.7673 216.642 100.355 215.993C121.293 214.772 123.652 214.2 125.852 209.882C126.507 208.579 127.073 207.193 127.073 206.786C127.073 206.461 124.224 205.482 120.798 204.668C117.295 203.854 113.791 203.04 113.06 202.875C111.674 202.468 111.591 199.944 111.591 164.91V127.351L136.357 166.213C162.345 206.946 165.606 211.593 169.599 213.628C174.57 216.235 187.198 214.442 193.551 210.289L195.508 209.068L195.673 153.508L195.915 97.8659L200.233 97.0519C205.364 96.073 207.729 93.7133 207.729 89.638C207.729 87.0311 207.564 86.8662 205.122 86.9487C203.664 87.0156 195.271 87.5051 186.554 88.077V88.077Z" fill="black"/>
</svg>
