<svg width="16" height="16" viewBox="0 0 16 16" fill="none" xmlns="http://www.w3.org/2000/svg">
<rect width="16" height="16" fill="#272B33"/>
<path d="M13.4719 0H2.52809C1.13404 0 0 1.13404 0 2.52809V13.4719C0 14.866 1.13404 16 2.52809 16H13.4719C14.866 16 16 14.866 16 13.4719V2.52809C16 1.13404 14.866 0 13.4719 0ZM14.3146 13.4719C14.3146 13.9365 13.9365 14.3146 13.472 14.3146H2.52809C2.06347 14.3146 1.68547 13.9365 1.68547 13.4719V2.52809C1.68547 2.06347 2.06351 1.68547 2.52809 1.68547H13.4719C13.9365 1.68547 14.3145 2.06351 14.3145 2.52809V13.4719H14.3146Z" fill="#5B6472"/>
</svg>
