<svg width="185" height="36" viewBox="0 0 185 36" fill="none" xmlns="http://www.w3.org/2000/svg">
<rect width="185" height="36" fill="#15171C"/>
<path d="M29.4755 9.84549L29 8.38197L28.5245 9.84549L26.8406 15.0279H21.3915H19.8527L21.0977 15.9324L25.506 19.1353L23.8222 24.3176L23.3467 25.7812L24.5916 24.8766L29 21.6738L33.4084 24.8766L34.6533 25.7812L34.1778 24.3176L32.494 19.1353L36.9023 15.9324L38.1473 15.0279H36.6085H31.1594L29.4755 9.84549Z" fill="#5B6472" stroke="#5B6472"/>
<path d="M157.476 9.84549L157 8.38197L156.524 9.84549L154.841 15.0279H149.392H147.853L149.098 15.9324L153.506 19.1353L151.822 24.3176L151.347 25.7812L152.592 24.8766L157 21.6738L161.408 24.8766L162.653 25.7812L162.178 24.3176L160.494 19.1353L164.902 15.9324L166.147 15.0279H164.608H159.159L157.476 9.84549Z" stroke="#5B6472"/>
<path d="M93.4755 9.84549L93 8.38197L92.5245 9.84549L90.8406 15.0279H85.3915H83.8527L85.0977 15.9324L89.506 19.1353L87.8222 24.3176L87.3467 25.7812L88.5916 24.8766L93 21.6738L97.4084 24.8766L98.6533 25.7812L98.1778 24.3176L96.494 19.1353L100.902 15.9324L102.147 15.0279H100.608H95.1594L93.4755 9.84549Z" fill="#5B6472" stroke="#5B6472"/>
<path d="M125.476 9.84549L125 8.38197L124.524 9.84549L122.841 15.0279H117.392H115.853L117.098 15.9324L121.506 19.1353L119.822 24.3176L119.347 25.7812L120.592 24.8766L125 21.6738L129.408 24.8766L130.653 25.7812L130.178 24.3176L128.494 19.1353L132.902 15.9324L134.147 15.0279H132.608H127.159L125.476 9.84549Z" fill="#5B6472" stroke="#5B6472"/>
<path d="M61.4755 9.84549L61 8.38197L60.5245 9.84549L58.8406 15.0279H53.3915H51.8527L53.0977 15.9324L57.506 19.1353L55.8222 24.3176L55.3467 25.7812L56.5916 24.8766L61 21.6738L65.4084 24.8766L66.6533 25.7812L66.1778 24.3176L64.494 19.1353L68.9023 15.9324L70.1473 15.0279H68.6085H63.1594L61.4755 9.84549Z" fill="#5B6472" stroke="#5B6472"/>
</svg>
